<svg xmlns="http://www.w3.org/2000/svg" xmlns:xlink="http://www.w3.org/1999/xlink" width="1320" height="530.835" viewBox="0 0 1320 530.835">
  <defs>
    <linearGradient id="linear-gradient" x1="0.835" y1="0.896" x2="0.013" y2="0.056" gradientUnits="objectBoundingBox">
      <stop offset="0" stop-color="#004b89"/>
      <stop offset="1" stop-color="#008bfd"/>
    </linearGradient>
    <clipPath id="clip-path">
      <path id="Rectangle_652" data-name="Rectangle 652" d="M20.787,0H1299.213C1310.693,0,1320,8.4,1320,18.772V488.063c0,10.367-9.307,18.772-20.787,18.772H20.787C9.307,506.835,0,498.431,0,488.063V18.772C0,8.4,9.307,0,20.787,0Z" fill="url(#linear-gradient)"/>
    </clipPath>
    <clipPath id="clip-path-2">
      <path id="Rectangle_652-2" data-name="Rectangle 652" d="M1274.283,0H20.388C9.128,0,0,8.243,0,18.411V478.7c0,10.168,9.128,18.411,20.388,18.411H1274.283c11.26,0,20.389-8.243,20.389-18.411V18.411C1294.672,8.243,1285.543,0,1274.283,0Z" transform="translate(-0.001)" fill="#387db8" style="mix-blend-mode: multiply;isolation: isolate"/>
    </clipPath>
    <clipPath id="clip-path-3">
      <rect id="Rect치ngulo_33767" data-name="Rect치ngulo 33767" width="1329" height="716.333" fill="#387db8"/>
    </clipPath>
    <clipPath id="clip-path-4">
      <rect id="Rect치ngulo_33766" data-name="Rect치ngulo 33766" width="1320.049" height="548.743" fill="#387db8"/>
    </clipPath>
    <linearGradient id="linear-gradient-2" x1="0.725" y1="0.055" x2="0.025" y2="1.015" gradientUnits="objectBoundingBox">
      <stop offset="0" stop-color="#2574b7"/>
      <stop offset="1" stop-color="#01447b"/>
    </linearGradient>
    <linearGradient id="linear-gradient-3" x1="0.5" x2="0.5" y2="1" gradientUnits="objectBoundingBox">
      <stop offset="0" stop-color="#cce951"/>
      <stop offset="1" stop-color="#7c9a02"/>
    </linearGradient>
  </defs>
  <g id="Grupo_81037" data-name="Grupo 81037" transform="translate(-142.665 -46)">
    <g id="Enmascarar_grupo_51" data-name="Enmascarar grupo 51" transform="translate(167.994 46)" clip-path="url(#clip-path-2)">
      <g id="Grupo_80114" data-name="Grupo 80114" transform="translate(-21.579 -175.101)">
        <g id="Grupo_80113" data-name="Grupo 80113" clip-path="url(#clip-path-3)">
          <g id="Grupo_80112" data-name="Grupo 80112" transform="translate(8.952 157.711)">
            <g id="Grupo_80111" data-name="Grupo 80111" clip-path="url(#clip-path-4)">
              <path id="Trazado_113525" data-name="Trazado 113525" d="M0,1161.7H1411.139V0H0Z" transform="matrix(-0.85, -0.527, 0.527, -0.85, 953.889, 1139.739)" fill="#387db8"/>
            </g>
          </g>
        </g>
      </g>
      <g id="Grupo_80116" data-name="Grupo 80116" transform="translate(-3.925 -23.539)">
        <g id="Grupo_80115" data-name="Grupo 80115" transform="translate(0 0)">
          <path id="Trazado_113526" data-name="Trazado 113526" d="M0,0H1319.006V539.447H0Z" fill="url(#linear-gradient-2)"/>
        </g>
      </g>
      <path id="Trazado_113527" data-name="Trazado 113527" d="M603.333,515.907s288.954-72.58,392-194.2S974.8,0,974.8,0H1343.52V497.272Z" transform="translate(-28.438 0)" fill="url(#linear-gradient-3)"/>
      <path id="Trazado_113528" data-name="Trazado 113528" d="M1343.52,515.907s-288.954-72.58-392-194.2S972.057,0,972.057,0H603.333V497.272Z" transform="translate(-607.257 1.962)" fill="#fff" opacity="0.1"/>
    </g>
    <g id="Grupo_80117" data-name="Grupo 80117" transform="translate(599.337 461.189)">
      <path id="Trazado_100685" data-name="Trazado 100685" d="M82.189,0,71.99,7.846,61.787,0l-10.2,7.846L41.391,0,31.2,7.846,21,0,10.8,7.846,1.2.461,0,2.015l10.8,8.306L21,2.475l10.2,7.846,10.2-7.846,10.2,7.846,10.2-7.846,10.2,7.846,10.2-7.846L92.4,10.321l10.8-8.306L102,.46,92.4,7.847Z" transform="translate(-0.001 0)" fill="#bbe7f6"/>
      <path id="Trazado_100686" data-name="Trazado 100686" d="M71.99,17.846,61.788,10l-10.2,7.846L41.391,10,31.2,17.846,21,10,10.8,17.846,1.2,10.461,0,12.015l10.8,8.306L21,12.474l10.2,7.847,10.2-7.847,10.2,7.847,10.2-7.847,10.2,7.847,10.2-7.847L92.4,20.321l10.8-8.306-1.195-1.556L92.4,17.847,82.19,10Z" transform="translate(-0.001 -0.192)" fill="#bbe7f6"/>
    </g>
    <g id="Grupo_80118" data-name="Grupo 80118" transform="translate(238.687 401.259)">
      <path id="Trazado_100689" data-name="Trazado 100689" d="M19.875,238.564l-.546-13.66,13.661.546.119-2.993-16.9-.676.676,16.9Z" transform="translate(-16.206 -221.782)" fill="#f4dd4e"/>
      <path id="Trazado_100690" data-name="Trazado 100690" d="M11.772,246.666l-.546-13.659,13.661.546.119-2.994-16.9-.676.676,16.9Z" transform="translate(-0.157 -221.937)" fill="#f4dd4e"/>
      <path id="Trazado_100691" data-name="Trazado 100691" d="M16.9,238.661l-.121,2.994L3.124,241.11l.546,13.659-2.994.12L0,237.985Z" transform="translate(15.893 -222.093)" fill="#f4dd4e"/>
    </g>
    <g id="Elipse_4065" data-name="Elipse 4065" transform="translate(783.221 66.829) rotate(47)" fill="none" stroke="#fff" stroke-width="2">
      <ellipse cx="16.208" cy="11.059" rx="16.208" ry="11.059" stroke="none"/>
      <ellipse cx="16.208" cy="11.059" rx="15.208" ry="10.059" fill="none"/>
    </g>
    <g id="Trazado_100684" data-name="Trazado 100684" transform="translate(223.403 268.551) rotate(47)" fill="none" opacity="0.5">
      <path d="M16.208,0C25.16,0,32.416,4.951,32.416,11.059S25.16,22.119,16.208,22.119,0,17.167,0,11.059,7.257,0,16.208,0Z" stroke="none"/>
      <path d="M 16.20820617675781 3 C 14.30161666870117 3 12.45884704589844 3.252830505371094 10.73108673095703 3.751461029052734 C 9.107526779174805 4.220020294189453 7.663166046142578 4.881431579589844 6.438146591186523 5.717300415039062 C 5.154106140136719 6.593430519104004 2.999996185302734 8.452481269836426 2.999996185302734 11.05933094024658 C 2.999996185302734 13.66618061065674 5.154106140136719 15.52523040771484 6.438146591186523 16.4013614654541 C 7.663166046142578 17.23723030090332 9.107526779174805 17.89864158630371 10.73108673095703 18.36720085144043 C 12.45884704589844 18.86583137512207 14.30161666870117 19.11865997314453 16.20820617675781 19.11865997314453 C 18.11479568481445 19.11865997314453 19.95755577087402 18.86583137512207 21.68531608581543 18.36720085144043 C 23.30888748168945 17.89864158630371 24.75323677062988 17.23723030090332 25.9782657623291 16.4013614654541 C 27.26230621337891 15.52523040771484 29.41641616821289 13.66618061065674 29.41641616821289 11.05933094024658 C 29.41641616821289 8.452481269836426 27.26230621337891 6.593430519104004 25.9782657623291 5.717300415039062 C 24.75323677062988 4.881431579589844 23.30888748168945 4.220020294189453 21.68531608581543 3.751461029052734 C 19.95755577087402 3.252830505371094 18.11479568481445 3 16.20820617675781 3 M 16.20820617675781 0 C 25.15974617004395 0 32.41641616821289 4.951431274414062 32.41641616821289 11.05933094024658 C 32.41641616821289 17.1672306060791 25.15974617004395 22.11866188049316 16.20820617675781 22.11866188049316 C 7.256656646728516 22.11866188049316 -3.814697265625e-06 17.1672306060791 -3.814697265625e-06 11.05933094024658 C -3.814697265625e-06 4.951431274414062 7.256656646728516 0 16.20820617675781 0 Z" stroke="none" fill="#fff"/>
    </g>
    <g id="Grupo_56508" data-name="Grupo 56508" transform="translate(207.012 77.468)">
      <path id="Trazado_100687" data-name="Trazado 100687" d="M82.189,0,71.99,7.846,61.787,0l-10.2,7.846L41.391,0,31.2,7.846,21,0,10.8,7.846,1.2.461,0,2.015l10.8,8.306L21,2.475l10.2,7.846,10.2-7.846,10.2,7.846,10.2-7.846,10.2,7.846,10.2-7.846L92.4,10.321l10.8-8.306L102,.46,92.4,7.847Z" transform="translate(-0.001 0)" fill="#bbe7f6"/>
      <path id="Trazado_100688" data-name="Trazado 100688" d="M71.99,17.846,61.788,10l-10.2,7.846L41.391,10,31.2,17.846,21,10,10.8,17.846,1.2,10.461,0,12.015l10.8,8.306L21,12.474l10.2,7.847,10.2-7.847,10.2,7.847,10.2-7.847,10.2,7.847,10.2-7.847L92.4,20.321l10.8-8.306-1.195-1.556L92.4,17.847,82.19,10Z" transform="translate(-0.001 -0.192)" fill="#bbe7f6"/>
    </g>
    <g id="Grupo_78297" data-name="Grupo 78297" transform="translate(11218.248 12523.086)">
      <path id="Trazado_99257" data-name="Trazado 99257" d="M416.049,103.656a.918.918,0,1,1-.918-.877A.9.9,0,0,1,416.049,103.656Z" transform="translate(-11447.97 -12119.038)" fill="#fff"/>
      <path id="Trazado_99258" data-name="Trazado 99258" d="M424.495,103.656a.918.918,0,1,1-.917-.877A.9.9,0,0,1,424.495,103.656Z" transform="translate(-11448.161 -12119.038)" fill="#fff"/>
      <path id="Trazado_99259" data-name="Trazado 99259" d="M432.941,103.656a.918.918,0,1,1-.917-.877A.9.9,0,0,1,432.941,103.656Z" transform="translate(-11448.352 -12119.038)" fill="#fff"/>
      <path id="Trazado_99260" data-name="Trazado 99260" d="M441.388,103.656a.918.918,0,1,1-.918-.877A.9.9,0,0,1,441.388,103.656Z" transform="translate(-11448.543 -12119.038)" fill="#fff"/>
      <path id="Trazado_99261" data-name="Trazado 99261" d="M449.834,103.656a.918.918,0,1,1-.917-.877A.9.9,0,0,1,449.834,103.656Z" transform="translate(-11448.733 -12119.038)" fill="#fff"/>
      <ellipse id="Elipse_3975" data-name="Elipse 3975" cx="0.917" cy="0.877" rx="0.917" ry="0.877" transform="translate(-11033.756 -12009.241)" fill="#fff"/>
      <path id="Trazado_99268" data-name="Trazado 99268" d="M424.495,111.164a.918.918,0,1,1-.917-.877A.9.9,0,0,1,424.495,111.164Z" transform="translate(-11448.161 -12119.528)" fill="#fff"/>
      <ellipse id="Elipse_3976" data-name="Elipse 3976" cx="0.917" cy="0.877" rx="0.917" ry="0.877" transform="translate(-11017.245 -12009.241)" fill="#fff"/>
      <path id="Trazado_99269" data-name="Trazado 99269" d="M441.388,111.164a.918.918,0,1,1-.918-.877A.9.9,0,0,1,441.388,111.164Z" transform="translate(-11448.543 -12119.528)" fill="#fff"/>
      <path id="Trazado_99270" data-name="Trazado 99270" d="M449.834,111.164a.918.918,0,1,1-.917-.877A.9.9,0,0,1,449.834,111.164Z" transform="translate(-11448.733 -12119.528)" fill="#fff"/>
      <path id="Trazado_99274" data-name="Trazado 99274" d="M416.049,118.672a.918.918,0,1,1-.918-.878A.9.9,0,0,1,416.049,118.672Z" transform="translate(-11447.97 -12120.019)" fill="#fff"/>
      <path id="Trazado_99275" data-name="Trazado 99275" d="M424.495,118.672a.918.918,0,1,1-.917-.878A.9.9,0,0,1,424.495,118.672Z" transform="translate(-11448.161 -12120.019)" fill="#fff"/>
      <path id="Trazado_99276" data-name="Trazado 99276" d="M432.941,118.672a.918.918,0,1,1-.917-.878A.9.9,0,0,1,432.941,118.672Z" transform="translate(-11448.352 -12120.019)" fill="#fff"/>
      <path id="Trazado_99277" data-name="Trazado 99277" d="M441.388,118.672a.918.918,0,1,1-.918-.878A.9.9,0,0,1,441.388,118.672Z" transform="translate(-11448.543 -12120.019)" fill="#fff"/>
      <path id="Trazado_99278" data-name="Trazado 99278" d="M449.834,118.672a.918.918,0,1,1-.917-.878A.9.9,0,0,1,449.834,118.672Z" transform="translate(-11448.733 -12120.019)" fill="#fff"/>
      <ellipse id="Elipse_3980" data-name="Elipse 3980" cx="0.917" cy="0.877" rx="0.917" ry="0.877" transform="translate(-11033.756 -11995.206)" fill="#fff"/>
      <path id="Trazado_99285" data-name="Trazado 99285" d="M424.495,126.18a.918.918,0,1,1-.917-.878A.9.9,0,0,1,424.495,126.18Z" transform="translate(-11448.161 -12120.509)" fill="#fff"/>
      <ellipse id="Elipse_3981" data-name="Elipse 3981" cx="0.917" cy="0.877" rx="0.917" ry="0.877" transform="translate(-11017.245 -11995.206)" fill="#fff"/>
      <path id="Trazado_99286" data-name="Trazado 99286" d="M441.388,126.18a.918.918,0,1,1-.918-.878A.9.9,0,0,1,441.388,126.18Z" transform="translate(-11448.543 -12120.509)" fill="#fff"/>
      <path id="Trazado_99287" data-name="Trazado 99287" d="M449.834,126.18a.918.918,0,1,1-.917-.878A.9.9,0,0,1,449.834,126.18Z" transform="translate(-11448.733 -12120.509)" fill="#fff"/>
      <ellipse id="Elipse_3985" data-name="Elipse 3985" cx="0.917" cy="0.877" rx="0.917" ry="0.877" transform="translate(-11033.756 -11988.189)" fill="#fff"/>
      <path id="Trazado_99291" data-name="Trazado 99291" d="M424.495,133.688a.918.918,0,1,1-.917-.878A.9.9,0,0,1,424.495,133.688Z" transform="translate(-11448.161 -12120.999)" fill="#fff"/>
      <ellipse id="Elipse_3986" data-name="Elipse 3986" cx="0.917" cy="0.877" rx="0.917" ry="0.877" transform="translate(-11017.245 -11988.189)" fill="#fff"/>
      <path id="Trazado_99292" data-name="Trazado 99292" d="M441.388,133.688a.918.918,0,1,1-.918-.878A.9.9,0,0,1,441.388,133.688Z" transform="translate(-11448.543 -12120.999)" fill="#fff"/>
      <path id="Trazado_99293" data-name="Trazado 99293" d="M449.834,133.688a.918.918,0,1,1-.917-.878A.9.9,0,0,1,449.834,133.688Z" transform="translate(-11448.733 -12120.999)" fill="#fff"/>
    </g>
  </g>
</svg>
