<svg id="Grupo_80887" data-name="Grupo 80887" xmlns="http://www.w3.org/2000/svg" xmlns:xlink="http://www.w3.org/1999/xlink" width="47.122" height="60.965" viewBox="0 0 47.122 60.965">
  <defs>
    <clipPath id="clip-path">
      <rect id="Rectángulo_34173" data-name="Rectángulo 34173" width="47.122" height="60.965" fill="#1dd1ff"/>
    </clipPath>
  </defs>
  <g id="Grupo_80886" data-name="Grupo 80886" transform="translate(0 0)" clip-path="url(#clip-path)">
    <path id="Trazado_116257" data-name="Trazado 116257" d="M40.01,52.71H35.482a.8.8,0,0,1-.8-.8V5.724H3.535a.8.8,0,0,1-.8-.8V.8a.8.8,0,0,1,.8-.8H40.01a.8.8,0,0,1,.8.8V51.914a.8.8,0,0,1-.8.8m-3.728-1.6H39.21V1.6H4.335V4.128H35.482a.8.8,0,0,1,.8.8Z" transform="translate(6.313 0)" fill="#1dd1ff"/>
    <path id="Trazado_116258" data-name="Trazado 116258" d="M37.271,55.21H.8a.8.8,0,0,1-.8-.8V3.3a.8.8,0,0,1,.8-.8H37.271a.8.8,0,0,1,.8.8V54.411a.8.8,0,0,1-.8.8M1.6,53.614H36.471V4.1H1.6Z" transform="translate(0 5.755)" fill="#1dd1ff"/>
    <path id="Trazado_116259" data-name="Trazado 116259" d="M38.641,53.959H34.113a.8.8,0,0,1-.8-.8V6.973H2.166a.8.8,0,0,1-.8-.8V2.045a.8.8,0,0,1,.8-.8H38.641a.8.8,0,0,1,.8.8V53.163a.8.8,0,0,1-.8.8m-3.728-1.6h2.928V2.845H2.966V5.373H34.113a.8.8,0,0,1,.8.8Z" transform="translate(3.157 2.878)" fill="#1dd1ff"/>
    <path id="Trazado_116260" data-name="Trazado 116260" d="M19.4,13.725H4.27a2.645,2.645,0,1,1,0-5.291H19.4a2.645,2.645,0,0,1,0,5.291M4.27,10.03a1.048,1.048,0,0,0,0,2.1H19.4a1.048,1.048,0,0,0,0-2.1Z" transform="translate(3.741 19.438)" fill="#1dd1ff"/>
    <path id="Trazado_116261" data-name="Trazado 116261" d="M16.064,20.4h-4.4a.8.8,0,0,1-.757-.545L9.706,16.208,8.5,19.86a.8.8,0,0,1-.757.545H3.348A.8.8,0,0,1,2.6,19.318L8.215,4.949a1.6,1.6,0,0,1,2.978,0l5.615,14.369a.8.8,0,0,1-.744,1.087m-3.817-1.6h2.647L9.706,5.53,4.514,18.809H7.161l1.785-5.393a.8.8,0,0,1,1.517,0Z" transform="translate(5.869 9.059)" fill="#1dd1ff"/>
    <path id="Trazado_116262" data-name="Trazado 116262" d="M12.528,15.84H7.789a.8.8,0,0,1-.76-.545L5.476,10.6a.8.8,0,0,1,.76-1.051H10.78a.8.8,0,0,1,.75.522l1.748,4.689a.8.8,0,0,1-.75,1.077m-4.164-1.6h3.014l-1.153-3.1H7.34Z" transform="translate(12.528 22.012)" fill="#1dd1ff"/>
    <path id="Trazado_116263" data-name="Trazado 116263" d="M7.142,15.84H2.4a.8.8,0,0,1-.747-1.077L3.4,10.073a.8.8,0,0,1,.75-.522H8.7A.8.8,0,0,1,9.452,10.6L7.9,15.295a.8.8,0,0,1-.757.545m-3.592-1.6H6.564l1.024-3.1H4.7Z" transform="translate(3.691 22.012)" fill="#1dd1ff"/>
    <path id="Trazado_116264" data-name="Trazado 116264" d="M28.147,14.426H2.427a.8.8,0,1,1,0-1.6H28.147a.8.8,0,1,1,0,1.6" transform="translate(3.75 29.569)" fill="#1dd1ff"/>
    <path id="Trazado_116265" data-name="Trazado 116265" d="M28.147,15.865H2.427a.8.8,0,1,1,0-1.6H28.147a.8.8,0,1,1,0,1.6" transform="translate(3.75 32.886)" fill="#1dd1ff"/>
    <path id="Trazado_116266" data-name="Trazado 116266" d="M28.147,17.305H2.427a.8.8,0,1,1,0-1.6H28.147a.8.8,0,1,1,0,1.6" transform="translate(3.75 36.204)" fill="#1dd1ff"/>
  </g>
</svg>
