<svg xmlns="http://www.w3.org/2000/svg" xmlns:xlink="http://www.w3.org/1999/xlink" width="56.442" height="67.498" viewBox="0 0 56.442 67.498">
  <defs>
    <clipPath id="clip-path">
      <rect id="Rectángulo_34174" data-name="Rectángulo 34174" width="56.442" height="67.498" fill="#1dd1ff"/>
    </clipPath>
  </defs>
  <g id="Grupo_80889" data-name="Grupo 80889" transform="translate(0 0)">
    <g id="Grupo_80888" data-name="Grupo 80888" transform="translate(0 0)" clip-path="url(#clip-path)">
      <path id="Trazado_116267" data-name="Trazado 116267" d="M11.744,38.244h-5.5A6.239,6.239,0,0,1,.62,29.3L6.853,16.34A11.63,11.63,0,0,1,17.275,9.787H19.19l1.88-2.943a.91.91,0,0,1,1.537.976l-2.148,3.369a.921.921,0,0,1-.769.418H17.275A9.788,9.788,0,0,0,8.5,17.131L2.263,30.093a4.418,4.418,0,0,0,3.979,6.33h5.5a.91.91,0,1,1,0,1.82" transform="translate(0.001 17.778)" fill="#1dd1ff"/>
      <path id="Trazado_116268" data-name="Trazado 116268" d="M25.447,38.244h-5.5a.91.91,0,1,1,0-1.82h5.5a4.418,4.418,0,0,0,3.979-6.33L23.194,17.131a9.784,9.784,0,0,0-8.78-5.524H12a.909.909,0,0,1-.765-.418L9.083,7.82a.91.91,0,0,1,1.537-.976L12.5,9.787h1.914A11.63,11.63,0,0,1,24.837,16.34L31.069,29.3a6.239,6.239,0,0,1-5.622,8.942" transform="translate(24.751 17.778)" fill="#1dd1ff"/>
      <path id="Trazado_116269" data-name="Trazado 116269" d="M16.064,23.343a11.672,11.672,0,1,1,11.674-11.67,11.687,11.687,0,0,1-11.674,11.67m0-21.523a9.852,9.852,0,1,0,9.85,9.854,9.864,9.864,0,0,0-9.85-9.854" transform="translate(12.152 0.001)" fill="#1dd1ff"/>
      <path id="Trazado_116270" data-name="Trazado 116270" d="M36.727,32.075a.91.91,0,0,1-.912-.912V14.949a2.284,2.284,0,0,0-3.35-2.023l-11.783,6.21a.919.919,0,0,1-.852,0L8.048,12.925A2.284,2.284,0,0,0,4.7,14.949V31.163a.912.912,0,1,1-1.824,0V14.949A4.109,4.109,0,0,1,8.9,11.313L20.256,17.3l11.357-5.988a4.109,4.109,0,0,1,6.025,3.636V31.163a.913.913,0,0,1-.912.912" transform="translate(7.956 29.994)" fill="#1dd1ff"/>
      <path id="Trazado_116271" data-name="Trazado 116271" d="M14.419,16.255a.9.9,0,0,1-.426-.106L5.47,11.658a.911.911,0,0,1,.848-1.613l8.1,4.269,8.1-4.269a.912.912,0,0,1,.852,1.613l-8.523,4.492a.9.9,0,0,1-.426.106" transform="translate(13.797 27.517)" fill="#1dd1ff"/>
      <path id="Trazado_116272" data-name="Trazado 116272" d="M8.158,32.667a.913.913,0,0,1-.912-.912V13.491a.912.912,0,0,1,1.824,0V31.755a.913.913,0,0,1-.912.912" transform="translate(20.058 34.832)" fill="#1dd1ff"/>
    </g>
  </g>
</svg>
