<svg xmlns="http://www.w3.org/2000/svg" xmlns:xlink="http://www.w3.org/1999/xlink" width="81" height="71" viewBox="0 0 81 71">
  <defs>
    <clipPath id="clip-path">
      <rect id="Rectángulo_34230" data-name="Rectángulo 34230" width="81" height="71" transform="translate(0 0)" fill="#fff"/>
    </clipPath>
  </defs>
  <g id="Grupo_80953" data-name="Grupo 80953" transform="translate(0 0)" clip-path="url(#clip-path)">
    <path id="Trazado_116352" data-name="Trazado 116352" d="M27.2,31.053l-.154-.124A12.585,12.585,0,1,0,5.042,22.605,12.5,12.5,0,0,0,8.249,30.93l-.156.124C3.507,34.709.87,37.283,0,47.816c0,1.354.565,3.3,3.257,4.851C6.419,54.492,12.033,55.4,17.65,55.4s11.231-.91,14.393-2.738c2.69-1.553,3.255-3.494,3.245-5.057-.86-10.324-3.5-12.9-8.085-16.553M17.647,15.042a7.563,7.563,0,1,1-7.563,7.563,7.572,7.572,0,0,1,7.563-7.563m0,35.295c-7.677,0-11.962-1.669-12.588-2.579.734-8.42,2.456-9.794,6.179-12.764l1.185-.945a12.478,12.478,0,0,0,4.326,1.071l1.742,2.612-3.361,8.405,3.139,4.185c-.214,0-.4.015-.618.015Zm4.588-.229,2.98-3.971L21.85,37.732l1.959-2.937.252.2c3.724,2.97,5.443,4.344,6.179,12.764-.489.708-3.217,1.866-8.007,2.35" transform="translate(0 15.211)" fill="#fff"/>
    <path id="Trazado_116353" data-name="Trazado 116353" d="M45.2,31.053l-.154-.124a12.608,12.608,0,1,0-18.8,0l-.156.126C21.507,34.709,18.87,37.28,18,47.816c0,1.354.565,3.3,3.255,4.848,3.161,1.828,8.776,2.738,14.393,2.738s11.231-.91,14.39-2.735c2.692-1.556,3.257-3.5,3.25-5.06-.86-10.326-3.5-12.9-8.085-16.553M35.647,15.042a7.563,7.563,0,1,1-7.563,7.563,7.571,7.571,0,0,1,7.563-7.563M29.236,34.994l.25-.2,1.959,2.937-3.361,8.4,2.977,3.973c-4.788-.484-7.518-1.641-8-2.35.734-8.42,2.456-9.794,6.179-12.764M35.65,50.337c-.219,0-.406-.015-.62-.018l3.139-4.185-3.361-8.4,1.74-2.612a12.466,12.466,0,0,0,4.326-1.074l1.185.948c3.726,2.97,5.446,4.344,6.182,12.764-.628.91-4.911,2.579-12.59,2.579" transform="translate(27.379 15.211)" fill="#fff"/>
    <path id="Trazado_116354" data-name="Trazado 116354" d="M14.521,4a2.521,2.521,0,1,0,2.521,2.521A2.522,2.522,0,0,0,14.521,4" transform="translate(18.253 6.085)" fill="#fff"/>
    <path id="Trazado_116355" data-name="Trazado 116355" d="M17.521,4a2.521,2.521,0,1,0,2.521,2.521A2.522,2.522,0,0,0,17.521,4" transform="translate(22.816 6.085)" fill="#fff"/>
    <path id="Trazado_116356" data-name="Trazado 116356" d="M20.521,4a2.521,2.521,0,1,0,2.521,2.521A2.522,2.522,0,0,0,20.521,4" transform="translate(27.379 6.085)" fill="#fff"/>
    <path id="Trazado_116357" data-name="Trazado 116357" d="M48.337,12.605C48.337,5.645,39.307,0,28.169,0S8,5.645,8,12.605c0,5.289,5.214,9.82,12.605,11.69v5.957l7.563-5.042c11.138,0,20.169-5.645,20.169-12.605M28.169,20.169a5.035,5.035,0,0,0-2.8.847l-.62.411a5.03,5.03,0,0,0-2.909-2.019c-5.1-1.291-8.8-4.152-8.8-6.8,0-3.57,6.469-7.563,15.126-7.563s15.126,3.993,15.126,7.563-6.469,7.563-15.126,7.563" transform="translate(12.169 0)" fill="#fff"/>
  </g>
</svg>
