<svg id="Grupo_80942" data-name="Grupo 80942" xmlns="http://www.w3.org/2000/svg" xmlns:xlink="http://www.w3.org/1999/xlink" width="76" height="74" viewBox="0 0 76 74">
  <defs>
    <clipPath id="clip-path">
      <rect id="Rect치ngulo_34224" data-name="Rect치ngulo 34224" width="76" height="74" fill="#fff"/>
    </clipPath>
  </defs>
  <g id="Grupo_80941" data-name="Grupo 80941" clip-path="url(#clip-path)">
    <path id="Trazado_116331" data-name="Trazado 116331" d="M40.382,45.125H4.75V4.75h57V2.375A2.374,2.374,0,0,0,59.375,0h-57A2.376,2.376,0,0,0,0,2.375V47.5a2.374,2.374,0,0,0,2.375,2.375h38Z" fill="#fff"/>
    <path id="Trazado_116332" data-name="Trazado 116332" d="M43.482,22.717a11.874,11.874,0,1,0-17.708,0C20.946,26.691,18.763,31.8,18,41c0,4,0,8.469,5.147,9.348L25.2,60.575c1.356,5.42,5.056,8.925,9.426,8.925h0C39,69.5,42.7,66,44.083,60.465l2.024-10.117c5.149-.881,5.149-5.372,5.139-9.545C50.5,31.8,48.31,26.691,43.482,22.717M34.628,7.75A7.125,7.125,0,1,1,27.5,14.875,7.134,7.134,0,0,1,34.628,7.75m9.5,38a2.378,2.378,0,0,0-2.33,1.91L39.452,59.423c-.81,3.237-2.7,5.327-4.824,5.327s-4.014-2.09-4.8-5.215L27.455,47.66a2.375,2.375,0,0,0-2.327-1.91c-2.375,0-2.375,0-2.382-4.553.743-8.937,2.852-12.255,6.242-14.967a2.543,2.543,0,0,0,.416-.43c.052-.071.114-.145.171-.219a11.678,11.678,0,0,0,1.482.56l1.988,2.983-3.166,7.916,4.75,6.334,4.75-6.334-3.166-7.916L38.2,26.142a11.849,11.849,0,0,0,1.484-.56c.057.071.116.147.171.219a2.455,2.455,0,0,0,.416.43c3.389,2.712,5.5,6.03,6.234,14.77,0,4.75,0,4.75-2.377,4.75" transform="translate(24.754 4.125)" fill="#fff"/>
    <path id="Trazado_116333" data-name="Trazado 116333" d="M43.375,5.375V3H3V38.625H5.375V5.375Z" transform="translate(4.125 4.125)" fill="#fff"/>
    <rect id="Rect치ngulo_34223" data-name="Rect치ngulo 34223" width="38" height="3" transform="translate(2 52)" fill="#fff"/>
    <path id="Trazado_116334" data-name="Trazado 116334" d="M35.719,4.625a1.192,1.192,0,0,0-1.594.532L28.062,17.281,24.376,9.907a1.212,1.212,0,0,0-1.126-.656,1.187,1.187,0,0,0-1.05.767L15.89,26.85l-3.465-5.2a1.163,1.163,0,0,0-1.109-.522,1.186,1.186,0,0,0-.981.741L5.585,33.747a1.187,1.187,0,0,0,.663,1.541,1.139,1.139,0,0,0,.439.085,1.189,1.189,0,0,0,1.1-.746L11.7,24.85,15.2,30.1a1.19,1.19,0,0,0,2.1-.242L23.469,13.4,27,20.468a1.237,1.237,0,0,0,2.126,0l7.125-14.25a1.189,1.189,0,0,0-.532-1.594" transform="translate(7.563 6.189)" fill="#fff"/>
  </g>
</svg>
