<svg xmlns="http://www.w3.org/2000/svg" xmlns:xlink="http://www.w3.org/1999/xlink" width="85" height="85" viewBox="0 0 85 85"><defs><clipPath id="a"><rect width="39.135" height="53.392" transform="translate(0 0.001)" fill="none"/></clipPath></defs><g transform="translate(-452 -6694)"><circle cx="42.5" cy="42.5" r="42.5" transform="translate(452 6694)" fill="#cce951"/><g transform="translate(475 6710)"><g clip-path="url(#a)"><path d="M.91,42.217A.911.911,0,0,1,0,41.306V7.159A7.167,7.167,0,0,1,7.159,0H38.225a.91.91,0,0,1,.911.91V35.058a.91.91,0,0,1-.911.91H7.159a5.344,5.344,0,0,0-5.338,5.338.911.911,0,0,1-.911.911m6.249-40.4A5.344,5.344,0,0,0,1.821,7.159V36.541a7.147,7.147,0,0,1,5.338-2.393H37.315V1.821Z"/><path d="M38.225,42.216H9.007a.91.91,0,0,1,0-1.82H38.225a.91.91,0,0,1,0,1.82"/><path d="M38.225,48.464H23.176a.91.91,0,0,1-.911-.91V42.216H16.077v5.338a.909.909,0,0,1-.91.91H7.158a7.159,7.159,0,0,1,0-14.317H38.225a.91.91,0,0,1,.91.91v12.5a.909.909,0,0,1-.91.91m-14.139-1.82H37.315V35.968H7.158a5.338,5.338,0,0,0,0,10.676h7.1V41.306a.909.909,0,0,1,.91-.91h8.009a.91.91,0,0,1,.91.91Z"/><path d="M23.177,53.392a.907.907,0,0,1-.661-.283l-3.344-3.527-3.344,3.527a.91.91,0,0,1-1.57-.627V41.306a.909.909,0,0,1,.91-.91h8.008a.91.91,0,0,1,.911.91V52.482a.909.909,0,0,1-.91.91m-4-6.044a.91.91,0,0,1,.661.284L22.266,50.2V42.216H16.078V50.2l2.433-2.567a.91.91,0,0,1,.661-.284"/><path d="M20.73,25.727c-6.324,0-11.469-3.552-11.469-7.918S14.406,9.891,20.73,9.891a15.915,15.915,0,0,1,4.844.731.91.91,0,1,1-.553,1.734,14.127,14.127,0,0,0-4.291-.644c-5.32,0-9.648,2.735-9.648,6.1s4.328,6.1,9.648,6.1,9.648-2.736,9.648-6.1a4.682,4.682,0,0,0-1.688-3.418.91.91,0,0,1,1.234-1.339A6.449,6.449,0,0,1,32.2,17.809c0,4.366-5.145,7.918-11.469,7.918"/></g></g></g></svg>