<svg xmlns="http://www.w3.org/2000/svg" xmlns:xlink="http://www.w3.org/1999/xlink" width="85" height="85" viewBox="0 0 85 85"><defs><clipPath id="a"><rect width="55.877" height="52.364" transform="translate(0 0)" fill="none"/></clipPath></defs><g transform="translate(-810 -6695.863)"><circle cx="42.5" cy="42.5" r="42.5" transform="translate(810 6695.863)" fill="#cce951"/><g transform="translate(824 6711.863)"><g clip-path="url(#a)"><path d="M12.457,52.364H4.651a2.442,2.442,0,0,1-2.439-2.439V12.586a2.441,2.441,0,0,1,2.439-2.438h7.806A2.442,2.442,0,0,1,14.9,12.586V49.925a2.442,2.442,0,0,1-2.439,2.439m-7.806-40.4a.619.619,0,0,0-.619.618V49.925a.619.619,0,0,0,.619.618h7.806a.618.618,0,0,0,.618-.618V12.586a.618.618,0,0,0-.618-.618Z"/><path d="M25.661,52.364H15.514a2.441,2.441,0,0,1-2.439-2.438V5.562a2.442,2.442,0,0,1,2.439-2.439H25.661A2.442,2.442,0,0,1,28.1,5.562V49.926a2.442,2.442,0,0,1-2.44,2.438M15.514,4.943a.619.619,0,0,0-.619.619V49.926a.619.619,0,0,0,.619.618H25.661a.619.619,0,0,0,.619-.618V5.562a.619.619,0,0,0-.619-.619Z"/><path d="M33.4,52.364H28.719a2.442,2.442,0,0,1-2.439-2.439V7.9a2.442,2.442,0,0,1,2.439-2.439H33.4A2.442,2.442,0,0,1,35.841,7.9V49.925A2.442,2.442,0,0,1,33.4,52.364M28.719,7.284A.619.619,0,0,0,28.1,7.9V49.925a.619.619,0,0,0,.619.618H33.4a.619.619,0,0,0,.619-.618V7.9a.619.619,0,0,0-.619-.619Z"/><path d="M45.047,52.364H36.46a2.442,2.442,0,0,1-2.439-2.439V2.439A2.442,2.442,0,0,1,36.46,0h8.587a2.441,2.441,0,0,1,2.438,2.439V49.925a2.441,2.441,0,0,1-2.438,2.439M36.46,1.82a.619.619,0,0,0-.619.619V49.925a.619.619,0,0,0,.619.618h8.587a.618.618,0,0,0,.617-.618V2.439a.618.618,0,0,0-.617-.619Z"/><path d="M51.227,52.364H48.1a2.441,2.441,0,0,1-2.439-2.438V5.561A2.442,2.442,0,0,1,48.1,3.122h3.123a2.443,2.443,0,0,1,2.439,2.439v5.058a.91.91,0,0,1-1.82,0V5.561a.619.619,0,0,0-.619-.618H48.1a.618.618,0,0,0-.618.618V49.926a.619.619,0,0,0,.618.618h3.123a.62.62,0,0,0,.619-.618V16.034a.91.91,0,1,1,1.82,0V49.926a2.442,2.442,0,0,1-2.439,2.438"/><path d="M13.985,23.547H3.122a.91.91,0,0,1-.911-.91V19.515a.911.911,0,0,1,.911-.911H13.985a.91.91,0,0,1,.91.911v3.122a.909.909,0,0,1-.91.91m-9.953-1.82h9.043v-1.3H4.032Z"/><path d="M13.985,29.6H3.122a.911.911,0,0,1-.911-.911V25.564a.91.91,0,0,1,.911-.91H13.985a.909.909,0,0,1,.91.91v3.122a.91.91,0,0,1-.91.911M4.032,27.776h9.043v-1.3H4.032Z"/><path d="M10.148,44.233H6.959a.91.91,0,0,1,0-1.82h3.189a.91.91,0,0,1,0,1.82"/><path d="M10.148,41.045H6.959a.91.91,0,1,1,0-1.82h3.189a.91.91,0,0,1,0,1.82"/><path d="M22.181,44.233H18.994a.91.91,0,0,1,0-1.82h3.187a.91.91,0,0,1,0,1.82"/><path d="M22.181,41.045H18.994a.91.91,0,1,1,0-1.82h3.187a.91.91,0,0,1,0,1.82"/><path d="M22.1,31.679H19.075a2.459,2.459,0,0,1-2.455-2.455V15.335a2.458,2.458,0,0,1,2.455-2.454H22.1a2.458,2.458,0,0,1,2.455,2.454V29.224A2.459,2.459,0,0,1,22.1,31.679M19.075,14.7a.634.634,0,0,0-.634.634V29.224a.634.634,0,0,0,.634.634H22.1a.634.634,0,0,0,.634-.634V15.335A.634.634,0,0,0,22.1,14.7Z"/><path d="M34.931,42.8h-3.87a.91.91,0,1,1,0-1.821h3.87a.91.91,0,0,1,0,1.821"/><path d="M34.931,15.725H30.768a.91.91,0,1,1,0-1.82h4.163a.91.91,0,0,1,0,1.82"/><path d="M46.575,11.968H34.931a.91.91,0,0,1-.91-.91V8.066a.91.91,0,0,1,.91-.91H46.575a.909.909,0,0,1,.91.91v2.992a.909.909,0,0,1-.91.91m-10.733-1.82h9.823V8.976H35.842Z"/><path d="M46.575,26.8H34.931a.911.911,0,0,1-.91-.91V22.9a.911.911,0,0,1,.91-.91H46.575a.91.91,0,0,1,.91.91V25.89a.91.91,0,0,1-.91.91M35.842,24.979h9.823V23.807H35.842Z"/><path d="M46.575,41.631H34.931a.91.91,0,0,1-.91-.91V37.729a.911.911,0,0,1,.91-.911H46.575a.91.91,0,0,1,.91.911v2.992a.909.909,0,0,1-.91.91m-10.733-1.82h9.823V38.639H35.842Z"/><path d="M43.291,47.486H38.216a.91.91,0,0,1,0-1.82h5.075a.91.91,0,0,1,0,1.82"/><path d="M49.666,47.486a.91.91,0,0,1-.91-.91V44.233a.91.91,0,1,1,1.82,0v2.343a.91.91,0,0,1-.91.91"/><path d="M49.666,41.631a.91.91,0,0,1-.91-.91V34.232a.91.91,0,1,1,1.82,0v6.489a.91.91,0,0,1-.91.91"/><path d="M49.666,14.505a.909.909,0,0,1-.91-.91V9.058a.91.91,0,0,1,1.82,0V13.6a.909.909,0,0,1-.91.91"/><path d="M54.967,52.364H.91a.91.91,0,1,1,0-1.82H54.967a.91.91,0,0,1,0,1.82"/></g></g></g></svg>