<svg xmlns="http://www.w3.org/2000/svg" xmlns:xlink="http://www.w3.org/1999/xlink" width="77" height="82" viewBox="0 0 77 82">
  <defs>
    <clipPath id="clip-path">
      <rect id="Rectángulo_34227" data-name="Rectángulo 34227" width="77" height="82" fill="#fff"/>
    </clipPath>
  </defs>
  <g id="Grupo_80947" data-name="Grupo 80947" clip-path="url(#clip-path)">
    <path id="Trazado_116341" data-name="Trazado 116341" d="M23,63.9c-1.038,2.385-3.277,2.556-5.112,2.556-2.282,0-4.317-2.249-5.163-5.613L10.172,48.059A2.554,2.554,0,0,0,7.667,46c-2.556,0-2.556,0-2.563-4.9.8-9.62,3.07-13.191,6.714-16.107a2.57,2.57,0,0,0,.45-.463c.056-.077.123-.158.184-.235A12.464,12.464,0,0,0,23,24.469V18.476a7.6,7.6,0,0,1-5.112,1.971,7.667,7.667,0,1,1,7.233-10.213l5.206-.01A13.01,13.01,0,0,0,17.891,0,12.725,12.725,0,0,0,8.363,21.221C3.169,25.494.818,30.992,0,40.893c0,4.3,0,9.114,5.538,10.06L7.744,61.958c1.459,5.835,5.441,9.6,10.147,9.6A8.687,8.687,0,0,0,23,69.871Z" fill="#fff"/>
    <path id="Trazado_116342" data-name="Trazado 116342" d="M25.465,69.878a8.719,8.719,0,0,0,5.109,1.684c4.705,0,8.69-3.77,10.175-9.722l2.178-10.89c5.538-.946,5.538-5.779,5.531-10.269C47.649,30.989,45.3,25.494,40.1,21.218A12.724,12.724,0,0,0,30.574,0,13.015,13.015,0,0,0,18.132,10.223h5.211a7.689,7.689,0,1,1,2.119,8.253l.01,6a12.467,12.467,0,0,0,10.54-.174c.061.079.128.158.184.235a2.57,2.57,0,0,0,.45.463c3.645,2.916,5.914,6.487,6.706,15.895C43.353,46,43.353,46,40.8,46a2.559,2.559,0,0,0-2.507,2.052L35.762,60.721c-.872,3.481-2.909,5.73-5.188,5.73-1.487,0-4.1-.953-5.112-2.556Z" transform="translate(28.21)" fill="#fff"/>
    <path id="Trazado_116343" data-name="Trazado 116343" d="M43.774,44.681c-.808-9.692-3.159-15.187-8.355-19.462a12.779,12.779,0,1,0-19.054,0C11.167,29.494,8.818,34.994,8,44.893c0,4.3,0,9.114,5.538,10.06l2.206,11.005c1.459,5.832,5.441,9.6,10.144,9.6h0c4.705,0,8.69-3.77,10.175-9.722l2.178-10.888c5.541-.946,5.541-5.781,5.531-10.272M25.891,9.112a7.667,7.667,0,1,1-7.667,7.667,7.677,7.677,0,0,1,7.667-7.667M36.114,50a2.554,2.554,0,0,0-2.5,2.055L31.081,64.718c-.872,3.484-2.909,5.733-5.191,5.733s-4.317-2.249-5.163-5.613L18.172,52.059A2.554,2.554,0,0,0,15.667,50c-2.556,0-2.556,0-2.563-4.9.8-9.618,3.07-13.188,6.717-16.107a2.738,2.738,0,0,0,.447-.463c.056-.077.123-.156.184-.235a12.567,12.567,0,0,0,1.595.6l2.139,3.21-3.407,8.519,5.112,6.816L31,40.632,27.6,32.114l2.139-3.21a12.752,12.752,0,0,0,1.6-.6c.061.077.125.158.184.235a2.738,2.738,0,0,0,.447.463c3.647,2.919,5.914,6.489,6.709,15.895,0,5.112,0,5.112-2.558,5.112" transform="translate(12.446 6.223)" fill="#fff"/>
  </g>
</svg>
