<svg xmlns="http://www.w3.org/2000/svg" xmlns:xlink="http://www.w3.org/1999/xlink" width="43" height="87" viewBox="0 0 43 87">
  <defs>
    <clipPath id="clip-path">
      <rect id="Rectángulo_34229" data-name="Rectángulo 34229" width="43" height="87" transform="translate(0.494)" fill="#fff"/>
    </clipPath>
  </defs>
  <g id="Grupo_80951" data-name="Grupo 80951" transform="translate(-0.494)" clip-path="url(#clip-path)">
    <path id="Trazado_116351" data-name="Trazado 116351" d="M33.333,25.8A15.511,15.511,0,1,0,6.214,15.536,15.424,15.424,0,0,0,10.167,25.8C3.853,30.994.994,37.677,0,49.714c0,5.229,0,11.08,6.733,12.23L9.415,75.323C11.189,82.417,16.03,87,21.75,87s10.564-4.583,12.37-11.82l2.647-13.236c6.736-1.15,6.733-7.028,6.724-12.488C42.509,37.674,39.65,30.994,33.333,25.8M21.75,6.214a9.321,9.321,0,1,1-9.321,9.321A9.333,9.333,0,0,1,21.75,6.214M34.179,55.929a3.1,3.1,0,0,0-3.045,2.5L28.057,73.819c-1.06,4.232-3.533,6.966-6.307,6.966s-5.248-2.734-6.276-6.823L12.366,58.427a3.1,3.1,0,0,0-3.045-2.5c-3.107,0-3.107,0-3.116-5.956.976-11.7,3.732-16.036,8.162-19.581a3.125,3.125,0,0,0,.547-.562c.068-.093.149-.193.224-.286a15.279,15.279,0,0,0,1.939.733l2.6,3.9L15.536,44.535l6.214,8.287,6.214-8.287L23.822,34.179l2.6-3.9a15.279,15.279,0,0,0,1.939-.733c.075.1.155.193.227.289a2.99,2.99,0,0,0,.544.559c4.434,3.545,7.19,7.886,8.156,19.323,0,6.214,0,6.214-3.11,6.214" fill="#fff"/>
  </g>
</svg>
