<svg id="Grupo_80950" data-name="Grupo 80950" xmlns="http://www.w3.org/2000/svg" xmlns:xlink="http://www.w3.org/1999/xlink" width="82.958" height="85.713" viewBox="0 0 82.958 85.713">
  <defs>
    <clipPath id="clip-path">
      <rect id="Rectángulo_34228" data-name="Rectángulo 34228" width="82.958" height="85.713" fill="#fff"/>
    </clipPath>
  </defs>
  <g id="Grupo_80949" data-name="Grupo 80949" transform="translate(0 0)" clip-path="url(#clip-path)">
    <path id="Trazado_116344" data-name="Trazado 116344" d="M22.638,6a2.68,2.68,0,1,0,2.68,2.68A2.681,2.681,0,0,0,22.638,6" transform="translate(33.523 10.077)" fill="#fff"/>
    <path id="Trazado_116345" data-name="Trazado 116345" d="M25.638,6a2.68,2.68,0,1,0,2.68,2.68A2.681,2.681,0,0,0,25.638,6" transform="translate(38.562 10.077)" fill="#fff"/>
    <path id="Trazado_116346" data-name="Trazado 116346" d="M25.958,8.68A2.68,2.68,0,1,0,28.638,6a2.681,2.681,0,0,0-2.68,2.68" transform="translate(43.602 10.077)" fill="#fff"/>
    <path id="Trazado_116347" data-name="Trazado 116347" d="M35.717,0A19.959,19.959,0,0,0,33.209.16,18.739,18.739,0,0,0,17.174,15.713a18.388,18.388,0,0,0,4.564,15.21c.694.766-.067,2.835-1.651,6.182-.949,2,0,3.092,2.232,3.092h.121c5.268,0,7.066-.013,10.151-3.35a19.089,19.089,0,0,0,3.127.257c.464,0,.93-.019,1.4-.051a18.86,18.86,0,0,0,17.348-17.9A18.648,18.648,0,0,0,35.717,0m1.016,31.709c-.34.024-.681.04-1.016.04a13.959,13.959,0,0,1-2.248-.185,5.146,5.146,0,0,0-.879-.075,5.355,5.355,0,0,0-3.934,1.72,4.008,4.008,0,0,1-1.755,1.38c.729-2.53.766-5.1-1.19-7.259a13.074,13.074,0,0,1-3.24-10.821A13.392,13.392,0,0,1,33.89,5.476a14.527,14.527,0,0,1,1.828-.118,13.383,13.383,0,0,1,9.7,4.092,13,13,0,0,1,3.693,9.537A13.555,13.555,0,0,1,36.733,31.708" transform="translate(28.486 -0.002)" fill="#fff"/>
    <path id="Trazado_116348" data-name="Trazado 116348" d="M37.079,39.516l-.2-.166a18.758,18.758,0,1,0-25.7.051l-.137.118C4.606,44.974,1.19,48.522,0,63.777c0,1.793.769,4.371,4.424,6.48C8.738,72.749,16.4,74,24.061,74s15.331-1.249,19.645-3.738c3.652-2.112,4.419-4.689,4.411-6.689-1.179-15.049-4.6-18.6-11.038-24.053M10.609,25.734a13.4,13.4,0,1,1,13.4,13.4,13.414,13.414,0,0,1-13.4-13.4M5.354,63.989c1.058-13.522,3.765-15.816,9.157-20.382l1.235-1.05c.378.185.758.37,1.15.531l4.432,6.094L15.968,61.465l5.89,7.2c-5.925-.2-11.579-1.214-14.754-3.044-.525-.3-1.744-1.088-1.75-1.629m35.669,1.627c-3.194,1.844-8.9,2.857-14.867,3.049l5.89-7.2L26.687,49.181l4.432-6.094c.415-.169.82-.367,1.219-.565L33.614,43.6c5.392,4.566,8.1,6.86,9.151,20.173,0,.753-1.219,1.535-1.742,1.838" transform="translate(0 11.717)" fill="#fff"/>
    <path id="Trazado_116349" data-name="Trazado 116349" d="M9.819,13.157A6.65,6.65,0,0,1,16.462,19.8a1.34,1.34,0,0,0,2.68,0,9.334,9.334,0,0,0-9.323-9.323,1.34,1.34,0,0,0,0,2.68" transform="translate(14.242 17.597)" fill="#fff"/>
    <path id="Trazado_116350" data-name="Trazado 116350" d="M13.4,22.619a1.34,1.34,0,0,0-1.2,2.4c4.617,2.307,4.617,9.751,4.617,12.2a1.34,1.34,0,1,0,2.68,0c0-2.854,0-11.544-6.1-14.6" transform="translate(19.247 37.751)" fill="#fff"/>
  </g>
</svg>
