<svg xmlns="http://www.w3.org/2000/svg" xmlns:xlink="http://www.w3.org/1999/xlink" width="53.848" height="74.999" viewBox="0 0 53.848 74.999">
  <defs>
    <clipPath id="clip-path">
      <rect id="Rectángulo_34226" data-name="Rectángulo 34226" width="53.848" height="74.999" fill="#fff"/>
    </clipPath>
  </defs>
  <g id="Grupo_80946" data-name="Grupo 80946" transform="translate(0 -0.001)">
    <g id="Grupo_80945" data-name="Grupo 80945" transform="translate(0 0.001)" clip-path="url(#clip-path)">
      <path id="Trazado_116338" data-name="Trazado 116338" d="M41.5,36.416l-.219-.186a20.992,20.992,0,1,0-28.759.057l-.153.132C5.155,42.524,1.332,46.495,0,63.568c0,2.006.861,4.891,4.951,7.251C9.779,73.608,18.353,75,26.927,75s17.157-1.4,21.985-4.183c4.088-2.363,4.945-5.248,4.936-7.485C52.529,46.492,48.705,42.521,41.5,36.416M11.873,20.992A14.994,14.994,0,1,1,26.867,35.987,15.012,15.012,0,0,1,11.873,20.992M5.992,63.8c1.185-15.132,4.213-17.7,10.247-22.81l1.382-1.176c.423.207.849.414,1.287.594l4.96,6.819-6,13.747,6.592,8.055C17.831,68.807,11.5,67.676,7.95,65.628,7.362,65.289,6,64.41,5.992,63.8m39.918,1.82c-3.575,2.063-9.962,3.2-16.638,3.413l6.592-8.058-6-13.747,4.96-6.819c.465-.189.918-.411,1.364-.633l1.427,1.212c6.034,5.11,9.063,7.677,10.241,22.576,0,.843-1.364,1.718-1.949,2.057" transform="translate(0 -0.002)" fill="#fff"/>
      <path id="Trazado_116339" data-name="Trazado 116339" d="M9.978,6.5a7.442,7.442,0,0,1,7.434,7.434,1.5,1.5,0,1,0,3,0A10.446,10.446,0,0,0,9.978,3.5a1.5,1.5,0,0,0,0,3" transform="translate(16.949 6.995)" fill="#fff"/>
      <path id="Trazado_116340" data-name="Trazado 116340" d="M13.628,15.66a1.5,1.5,0,1,0-1.341,2.684c5.167,2.582,5.167,10.913,5.167,13.651a1.5,1.5,0,1,0,3,0c0-3.194,0-12.919-6.825-16.335" transform="translate(22.904 30.98)" fill="#fff"/>
    </g>
  </g>
</svg>
