<svg xmlns="http://www.w3.org/2000/svg" xmlns:xlink="http://www.w3.org/1999/xlink" width="63.321" height="112.91" viewBox="0 0 63.321 112.91"><defs><clipPath id="a"><rect width="63.321" height="112.91" fill="none"/></clipPath></defs><g clip-path="url(#a)"><path d="M62.937,44.962V24.712a4.915,4.915,0,1,0-9.83,0v20.25h-.624V14.981a6.562,6.562,0,0,0-13.124,0V44.962h-.874V8.662a6.562,6.562,0,1,0-13.123,0v36.3H24.47c.006-.117.018-.231.018-.35V30.882a6.562,6.562,0,1,0-13.123,0V44.427c0,.18.011.358.025.535h-.025v4.107a5.009,5.009,0,0,0-5.22,3.295l0,0-.027.093c-.021.064-.047.127-.067.193L2.373,65.225A6.792,6.792,0,0,0,4.09,71.931L16.659,84.5A11.963,11.963,0,0,0,20.4,87.04a16.326,16.326,0,0,0,7.359,1.745H46.54a16.4,16.4,0,0,0,16.4-16.4V44.962Z" transform="translate(-0.858 -0.858)" fill="#f0c6bf"/><path d="M30.887,78.821V73.852a6.562,6.562,0,0,1-6.879,6.554,6.684,6.684,0,0,1-6.245-6.739v4.969a6.684,6.684,0,0,0,6.245,6.739,6.562,6.562,0,0,0,6.879-6.554" transform="translate(-7.257 -30.098)" fill="#e99f96"/><path d="M58.848,141.559H46.578c.1-.112.193-.223.287-.339a12,12,0,0,0,2.333-9.951,11.818,11.818,0,0,1-2.333,4.983,12.015,12.015,0,0,1-14.119,3.576c-.174-.088-.35-.171-.52-.264V165.3H66.693V139.564a16.321,16.321,0,0,1-7.845,2" transform="translate(-13.167 -53.633)" fill="#e99f96"/><path d="M32.042,110.993l-.328,1.122.652.652a12.013,12.013,0,0,1,14.2,3.388,11.847,11.847,0,0,1,2.424,5.1A11.993,11.993,0,0,0,32.5,107.748a11.3,11.3,0,0,1-.454,3.246" transform="translate(-12.957 -43.622)" fill="#f2e1de"/><path d="M6.046,90.043c.019-.066.045-.128.067-.193l.027-.092,0,0a5.007,5.007,0,0,1,6.116-3.122A11.3,11.3,0,0,1,20.119,95a11.3,11.3,0,0,0-7.858-13.33,5.007,5.007,0,0,0-6.116,3.122l0,0-.027.093c-.022.064-.048.127-.067.192L2.373,97.651a6.785,6.785,0,0,0,.183,4.342Z" transform="translate(-0.859 -33.285)" fill="#f2e1de"/><path d="M24.326,39.67h0a6.562,6.562,0,0,0-6.562,6.562V51.2a6.562,6.562,0,1,1,13.124,0V46.232a6.562,6.562,0,0,0-6.562-6.562" transform="translate(-7.258 -16.208)" fill="#f2e1de"/><path d="M93.258,32.022a4.915,4.915,0,0,0-4.915,4.915v4.969a4.915,4.915,0,0,1,9.83,0V36.937a4.915,4.915,0,0,0-4.915-4.915" transform="translate(-36.094 -13.083)" fill="#f2e1de"/><path d="M47.993,2.1h0a6.562,6.562,0,0,0-6.562,6.562v4.969a6.562,6.562,0,0,1,13.124,0V8.662A6.562,6.562,0,0,0,47.993,2.1" transform="translate(-16.927 -0.858)" fill="#f2e1de"/><path d="M71.66,12.784h0A6.562,6.562,0,0,0,65.1,19.346v4.969a6.562,6.562,0,0,1,13.124,0V19.346a6.562,6.562,0,0,0-6.562-6.562" transform="translate(-26.597 -5.223)" fill="#f2e1de"/><path d="M63.321,23.853a6.154,6.154,0,0,0-10.454-4.4V14.122a7.8,7.8,0,0,0-14-4.743V7.8a7.8,7.8,0,0,0-15.608,0V25.294a7.794,7.794,0,0,0-14,4.729V43.568A8.134,8.134,0,0,0,10,46.941a6.262,6.262,0,0,0-5.839,4.033,1.2,1.2,0,0,0-.068.18l-.027.086c-.024.067-.048.134-.067.2L.322,64.019A8.032,8.032,0,0,0,2.353,71.95L14.923,84.519a1.223,1.223,0,0,0,.283.205,17.726,17.726,0,0,0,2.612,1.926v25.017a1.242,1.242,0,0,0,1.242,1.243H53.526a1.242,1.242,0,0,0,1.242-1.243V86.65a17.643,17.643,0,0,0,8.553-15.122Zm-51.573,6.17a5.32,5.32,0,0,1,10.64,0v13.73a5.32,5.32,0,0,1-5.579,5.314,5.031,5.031,0,0,1-2.064-.559c-.144-.087-.29-.171-.437-.252a5.6,5.6,0,0,1-2.56-4.688ZM52.931,84.841a1.242,1.242,0,0,0-.647,1.09v24.495H20.3V85.931a1.243,1.243,0,0,0-.646-1.091A15.189,15.189,0,0,1,16.662,82.7a1.27,1.27,0,0,0-.182-.135L4.111,70.194a5.549,5.549,0,0,1-1.4-5.479L6.395,52.1l.037-.1c0-.012.008-.025.012-.037s.009-.022.013-.034a3.769,3.769,0,0,1,4.6-2.348,10.183,10.183,0,0,1,1.81.724,7.6,7.6,0,0,0,.767.444,10.058,10.058,0,0,1,4.261,11.31l-.328,1.122-1.683,5.466a1.242,1.242,0,1,0,2.374.731l1.22-3.959a1.225,1.225,0,0,0,.439-.1A10.768,10.768,0,0,1,32.73,81.842,1.242,1.242,0,1,0,34.669,83.4,13.252,13.252,0,0,0,20.348,62.5a12.458,12.458,0,0,0-1.111-9.294A12.723,12.723,0,0,0,18.1,51.483a7.794,7.794,0,0,0,6.617-6.159,1.239,1.239,0,0,0,1.03-1.221V7.8a5.32,5.32,0,0,1,10.64,0V44.1a1.242,1.242,0,0,0,1.242,1.243H38.5A1.242,1.242,0,0,0,39.744,44.1V14.122a5.32,5.32,0,0,1,10.639,0V44.1a1.242,1.242,0,0,0,1.242,1.243h.625A1.242,1.242,0,0,0,53.491,44.1V23.853a3.672,3.672,0,0,1,7.345,0V71.529a15.162,15.162,0,0,1-7.906,13.312" transform="translate(0)" fill="#540836"/></g></svg>