<svg id="Grupo_80944" data-name="Grupo 80944" xmlns="http://www.w3.org/2000/svg" xmlns:xlink="http://www.w3.org/1999/xlink" width="88" height="63" viewBox="0 0 88 63">
  <defs>
    <clipPath id="clip-path">
      <rect id="Rectángulo_34225" data-name="Rectángulo 34225" width="88" height="63" transform="translate(0 0)" fill="#fff"/>
    </clipPath>
  </defs>
  <g id="Grupo_80943" data-name="Grupo 80943" transform="translate(0 0)" clip-path="url(#clip-path)">
    <path id="Trazado_116335" data-name="Trazado 116335" d="M87.187,22.407,65.594.814a2.775,2.775,0,0,0-3.927,0l-9.815,9.815a2.775,2.775,0,0,0,0,3.924l2.786,2.786L50.6,21.381a11.106,11.106,0,0,0-12.24-.657l-4.188-4.188,1.98-1.983a2.77,2.77,0,0,0,0-3.924L26.332.814a2.772,2.772,0,0,0-3.924,0L.812,22.407a2.775,2.775,0,0,0,0,3.924l9.817,9.818a2.778,2.778,0,0,0,3.924,0l1.983-1.983L21,38.632c-1.185,4.524,3.165,11.017,8.291,16.142a38.368,38.368,0,0,0,9.1,6.947,12.054,12.054,0,0,0,5.42,1.551,5.586,5.586,0,0,0,4.1-1.623l3.924-3.927h0l7.428-7.431c.146.008.294.044.44.044A8.273,8.273,0,0,0,66.427,37.2l4.037-4.037,2.981,2.984a2.782,2.782,0,0,0,3.927,0l9.815-9.818a2.775,2.775,0,0,0,0-3.924M6.628,24.371,24.369,6.628l5.965,5.965-1.906,1.9c-.033.033-.08.041-.113.077s-.047.08-.077.116L14.683,28.24c-.033.03-.077.041-.11.074s-.044.077-.074.11L12.59,30.332ZM61.686,44.019a2.8,2.8,0,0,1-3.855.072l-.071-.072-.014.014-.022-.014-5.89-5.89a2.75,2.75,0,1,0-3.889,3.889l5.89,5.89.019.017L49.889,51.89l-5.907-5.907a2.75,2.75,0,0,0-3.889,3.889L46,55.778l-.019.019,0,0-1.928,1.933c-.825.369-5.123-1.1-10.868-6.842s-7.2-10.046-6.872-10.838a2.749,2.749,0,0,0,0-3.889l-5.891-5.888,9.853-9.853,5.888,5.888c.011.011.025.014.033.025L35.531,27a4.124,4.124,0,1,0,5.833,5.833l5.552-5.552a4.091,4.091,0,0,0,.781-1.174c.08.072.171.124.248.2L61.683,40.054a2.805,2.805,0,0,1,0,3.965M75.409,30.332l-17.74-17.74L63.63,6.628l17.74,17.743Z" transform="translate(-0.001 0.001)" fill="#fff"/>
    <path id="Trazado_116336" data-name="Trazado 116336" d="M9.5,10.75A2.75,2.75,0,1,0,6.75,13.5,2.751,2.751,0,0,0,9.5,10.75" transform="translate(7 14.001)" fill="#fff"/>
    <path id="Trazado_116337" data-name="Trazado 116337" d="M28.75,13.5A2.75,2.75,0,1,0,26,10.75a2.751,2.751,0,0,0,2.75,2.75" transform="translate(45.5 14.001)" fill="#fff"/>
  </g>
</svg>
