<svg xmlns="http://www.w3.org/2000/svg" xmlns:xlink="http://www.w3.org/1999/xlink" width="295" height="261" viewBox="0 0 295 261"><defs><clipPath id="a"><rect width="82.958" height="85.713" fill="#fff"/></clipPath></defs><g transform="translate(-178.125 -14153)"><g transform="translate(-1.875 -541)"><rect width="295" height="261" rx="10" transform="translate(180 14694)" fill="#387db8"/><path d="M4.052-4.342V0H.967V-12.8H6.073a5.948,5.948,0,0,1,2.6.541,4.074,4.074,0,0,1,1.749,1.538,4.2,4.2,0,0,1,.62,2.263A3.7,3.7,0,0,1,9.7-5.462,5.561,5.561,0,0,1,6.021-4.342Zm0-2.382H6.073A1.906,1.906,0,0,0,7.44-7.172a1.665,1.665,0,0,0,.47-1.266A2.059,2.059,0,0,0,7.427-9.87a1.712,1.712,0,0,0-1.318-.545H4.052Zm14.159,5.7a3.054,3.054,0,0,1-2.54,1.2A3,3,0,0,1,13.3-.734a3.826,3.826,0,0,1-.8-2.615V-9.51H15.46v6.179a1.065,1.065,0,0,0,1.187,1.222,1.548,1.548,0,0,0,1.45-.729V-9.51h2.979V0H18.3ZM17.156-13.5h3.129l-2.443,2.76-2.417,0Zm14.37,8.824a5.8,5.8,0,0,1-.967,3.595A3.238,3.238,0,0,1,27.835.176,2.81,2.81,0,0,1,25.5-.976L25.374,0H22.72V-13.5h2.962v4.755a2.711,2.711,0,0,1,2.136-.94A3.239,3.239,0,0,1,30.56-8.411a5.826,5.826,0,0,1,.967,3.586Zm-2.971-.189a3.866,3.866,0,0,0-.365-1.952A1.229,1.229,0,0,0,27.07-7.4a1.418,1.418,0,0,0-1.389.763v3.773a1.426,1.426,0,0,0,1.406.755,1.258,1.258,0,0,0,1.327-1.018A7.309,7.309,0,0,0,28.556-4.865ZM35.956,0H32.985V-13.5h2.971ZM40.9,0H37.934V-9.51H40.9ZM37.758-11.962A1.322,1.322,0,0,1,38.215-13a1.724,1.724,0,0,1,1.187-.4,1.724,1.724,0,0,1,1.187.4,1.322,1.322,0,0,1,.457,1.037,1.322,1.322,0,0,1-.457,1.037,1.724,1.724,0,0,1-1.187.4,1.724,1.724,0,0,1-1.187-.4A1.322,1.322,0,0,1,37.758-11.962Zm8.991,9.853a1.317,1.317,0,0,0,.967-.338,1.241,1.241,0,0,0,.334-.945h2.777A3.288,3.288,0,0,1,49.707-.826a4.168,4.168,0,0,1-2.887,1,4.22,4.22,0,0,1-3.27-1.3,5.125,5.125,0,0,1-1.2-3.6v-.123A5.792,5.792,0,0,1,42.886-7.4a3.872,3.872,0,0,1,1.534-1.7,4.573,4.573,0,0,1,2.373-.593,4.116,4.116,0,0,1,2.944,1.028,3.647,3.647,0,0,1,1.09,2.786H48.05A1.626,1.626,0,0,0,47.689-7a1.244,1.244,0,0,0-.967-.4q-1.151,0-1.345,1.468a10.357,10.357,0,0,0-.062,1.283,4.068,4.068,0,0,0,.343,1.986A1.187,1.187,0,0,0,46.749-2.109ZM57.437,0a3.344,3.344,0,0,1-.281-.853A2.754,2.754,0,0,1,54.87.176a3.374,3.374,0,0,1-2.285-.813,2.588,2.588,0,0,1-.94-2.043,2.66,2.66,0,0,1,1.143-2.338,5.821,5.821,0,0,1,3.322-.791h.914v-.5q0-1.316-1.134-1.316a.927.927,0,0,0-1.055,1.042H51.873a2.655,2.655,0,0,1,1.173-2.239,4.931,4.931,0,0,1,2.993-.86,4.323,4.323,0,0,1,2.874.888,3.086,3.086,0,0,1,1.081,2.435v4.21a4.311,4.311,0,0,0,.4,2V0ZM55.582-1.934a1.652,1.652,0,0,0,.918-.237,1.487,1.487,0,0,0,.523-.536V-4.228h-.861q-1.547,0-1.547,1.389a.848.848,0,0,0,.272.655A.986.986,0,0,0,55.582-1.934Zm11.03-.738a.684.684,0,0,0-.4-.606,6.016,6.016,0,0,0-1.5-.475A6.853,6.853,0,0,1,62.886-4.4a3.062,3.062,0,0,1-1.1-.971,2.319,2.319,0,0,1-.378-1.31A2.628,2.628,0,0,1,62.49-8.837a4.453,4.453,0,0,1,2.83-.848,4.934,4.934,0,0,1,3.023.853,2.666,2.666,0,0,1,1.143,2.241H66.516q0-1.143-1.2-1.143a1.194,1.194,0,0,0-.782.259.8.8,0,0,0-.316.646.737.737,0,0,0,.387.642,3.654,3.654,0,0,0,1.235.4,10.671,10.671,0,0,1,1.49.378A2.706,2.706,0,0,1,69.469-2.76,2.491,2.491,0,0,1,68.313-.642,5.068,5.068,0,0,1,65.32.176a5.172,5.172,0,0,1-2.18-.439,3.645,3.645,0,0,1-1.494-1.2A2.707,2.707,0,0,1,61.11-3.05h2.769a1.145,1.145,0,0,0,.439.962,1.808,1.808,0,0,0,1.081.3,1.422,1.422,0,0,0,.91-.246A.787.787,0,0,0,66.612-2.672Z" transform="translate(293 14867)" fill="#fff"/><g transform="translate(287.042 14750)"><g transform="translate(0 0)" clip-path="url(#a)"><path d="M22.638,6a2.68,2.68,0,1,0,2.68,2.68A2.681,2.681,0,0,0,22.638,6" transform="translate(33.523 10.077)" fill="#fff"/><path d="M25.638,6a2.68,2.68,0,1,0,2.68,2.68A2.681,2.681,0,0,0,25.638,6" transform="translate(38.562 10.077)" fill="#fff"/><path d="M25.958,8.68A2.68,2.68,0,1,0,28.638,6a2.681,2.681,0,0,0-2.68,2.68" transform="translate(43.602 10.077)" fill="#fff"/><path d="M35.717,0A19.959,19.959,0,0,0,33.209.16,18.739,18.739,0,0,0,17.174,15.713a18.388,18.388,0,0,0,4.564,15.21c.694.766-.067,2.835-1.651,6.182-.949,2,0,3.092,2.232,3.092h.121c5.268,0,7.066-.013,10.151-3.35a19.089,19.089,0,0,0,3.127.257c.464,0,.93-.019,1.4-.051a18.86,18.86,0,0,0,17.348-17.9A18.648,18.648,0,0,0,35.717,0m1.016,31.709c-.34.024-.681.04-1.016.04a13.959,13.959,0,0,1-2.248-.185,5.146,5.146,0,0,0-.879-.075,5.355,5.355,0,0,0-3.934,1.72,4.008,4.008,0,0,1-1.755,1.38c.729-2.53.766-5.1-1.19-7.259a13.074,13.074,0,0,1-3.24-10.821A13.392,13.392,0,0,1,33.89,5.476a14.527,14.527,0,0,1,1.828-.118,13.383,13.383,0,0,1,9.7,4.092,13,13,0,0,1,3.693,9.537A13.555,13.555,0,0,1,36.733,31.708" transform="translate(28.486 -0.002)" fill="#fff"/><path d="M37.079,39.516l-.2-.166a18.758,18.758,0,1,0-25.7.051l-.137.118C4.606,44.974,1.19,48.522,0,63.777c0,1.793.769,4.371,4.424,6.48C8.738,72.749,16.4,74,24.061,74s15.331-1.249,19.645-3.738c3.652-2.112,4.419-4.689,4.411-6.689-1.179-15.049-4.6-18.6-11.038-24.053M10.609,25.734a13.4,13.4,0,1,1,13.4,13.4,13.414,13.414,0,0,1-13.4-13.4M5.354,63.989c1.058-13.522,3.765-15.816,9.157-20.382l1.235-1.05c.378.185.758.37,1.15.531l4.432,6.094L15.968,61.465l5.89,7.2c-5.925-.2-11.579-1.214-14.754-3.044-.525-.3-1.744-1.088-1.75-1.629m35.669,1.627c-3.194,1.844-8.9,2.857-14.867,3.049l5.89-7.2L26.687,49.181l4.432-6.094c.415-.169.82-.367,1.219-.565L33.614,43.6c5.392,4.566,8.1,6.86,9.151,20.173,0,.753-1.219,1.535-1.742,1.838" transform="translate(0 11.717)" fill="#fff"/><path d="M9.819,13.157A6.65,6.65,0,0,1,16.462,19.8a1.34,1.34,0,0,0,2.68,0,9.334,9.334,0,0,0-9.323-9.323,1.34,1.34,0,0,0,0,2.68" transform="translate(14.242 17.597)" fill="#fff"/><path d="M13.4,22.619a1.34,1.34,0,0,0-1.2,2.4c4.617,2.307,4.617,9.751,4.617,12.2a1.34,1.34,0,1,0,2.68,0c0-2.854,0-11.544-6.1-14.6" transform="translate(19.247 37.751)" fill="#fff"/></g></g></g></g></svg>