<svg xmlns="http://www.w3.org/2000/svg" xmlns:xlink="http://www.w3.org/1999/xlink" width="292" height="261" viewBox="0 0 292 261"><defs><clipPath id="a"><rect width="43" height="87" transform="translate(0.494)" fill="#fff"/></clipPath></defs><g transform="translate(-496.125 -14153)"><g transform="translate(-1.875 -541)"><rect width="292" height="261" rx="10" transform="translate(498 14694)" fill="#387db8"/><path d="M4.052-4.342V0H.967V-12.8H6.073a5.948,5.948,0,0,1,2.6.541,4.074,4.074,0,0,1,1.749,1.538,4.2,4.2,0,0,1,.62,2.263A3.7,3.7,0,0,1,9.7-5.462,5.561,5.561,0,0,1,6.021-4.342Zm0-2.382H6.073A1.906,1.906,0,0,0,7.44-7.172a1.665,1.665,0,0,0,.47-1.266A2.059,2.059,0,0,0,7.427-9.87a1.712,1.712,0,0,0-1.318-.545H4.052ZM18.3-6.829l-.976-.07a1.752,1.752,0,0,0-1.793.879V0H12.568V-9.51h2.777l.1,1.222a2.294,2.294,0,0,1,2.083-1.4,2.888,2.888,0,0,1,.826.105ZM22.491,0H19.521V-9.51h2.971ZM19.345-11.962A1.322,1.322,0,0,1,19.8-13a1.724,1.724,0,0,1,1.187-.4,1.724,1.724,0,0,1,1.187.4,1.322,1.322,0,0,1,.457,1.037,1.322,1.322,0,0,1-.457,1.037,1.724,1.724,0,0,1-1.187.4,1.724,1.724,0,0,1-1.187-.4A1.322,1.322,0,0,1,19.345-11.962Zm8.763,8.438,1.5-5.985h3.12L29.628,0H26.6L23.5-9.51h3.129ZM38.839,0a3.344,3.344,0,0,1-.281-.853A2.754,2.754,0,0,1,36.272.176a3.374,3.374,0,0,1-2.285-.813,2.588,2.588,0,0,1-.94-2.043,2.66,2.66,0,0,1,1.143-2.338,5.821,5.821,0,0,1,3.322-.791h.914v-.5q0-1.316-1.134-1.316a.927.927,0,0,0-1.055,1.042H33.275a2.655,2.655,0,0,1,1.173-2.239,4.931,4.931,0,0,1,2.993-.86,4.323,4.323,0,0,1,2.874.888A3.086,3.086,0,0,1,41.4-6.363v4.21a4.311,4.311,0,0,0,.4,2V0ZM36.984-1.934a1.652,1.652,0,0,0,.918-.237,1.487,1.487,0,0,0,.523-.536V-4.228h-.861q-1.547,0-1.547,1.389a.848.848,0,0,0,.272.655A.986.986,0,0,0,36.984-1.934Zm5.678-2.892a5.809,5.809,0,0,1,.976-3.56,3.211,3.211,0,0,1,2.725-1.3,2.731,2.731,0,0,1,2.145,1V-13.5h2.971V0H48.814l-.149-1.02a2.8,2.8,0,0,1-2.32,1.2,3.205,3.205,0,0,1-2.689-1.3A5.993,5.993,0,0,1,42.662-4.825Zm2.962.185q0,2.531,1.477,2.531a1.458,1.458,0,0,0,1.406-.826V-6.557A1.419,1.419,0,0,0,47.118-7.4q-1.371,0-1.485,2.215ZM58.518,0a3.344,3.344,0,0,1-.281-.853A2.754,2.754,0,0,1,55.951.176a3.374,3.374,0,0,1-2.285-.813,2.588,2.588,0,0,1-.94-2.043,2.66,2.66,0,0,1,1.143-2.338A5.821,5.821,0,0,1,57.19-5.81H58.1v-.5q0-1.316-1.134-1.316a.927.927,0,0,0-1.055,1.042H52.954a2.655,2.655,0,0,1,1.173-2.239,4.931,4.931,0,0,1,2.993-.86,4.323,4.323,0,0,1,2.874.888,3.086,3.086,0,0,1,1.081,2.435v4.21a4.311,4.311,0,0,0,.4,2V0ZM56.663-1.934a1.652,1.652,0,0,0,.918-.237,1.487,1.487,0,0,0,.523-.536V-4.228h-.861q-1.547,0-1.547,1.389a.848.848,0,0,0,.272.655A.986.986,0,0,0,56.663-1.934Zm11.03-.738a.684.684,0,0,0-.4-.606,6.016,6.016,0,0,0-1.5-.475A6.853,6.853,0,0,1,63.967-4.4a3.062,3.062,0,0,1-1.1-.971,2.319,2.319,0,0,1-.378-1.31,2.628,2.628,0,0,1,1.081-2.158,4.453,4.453,0,0,1,2.83-.848,4.934,4.934,0,0,1,3.023.853,2.666,2.666,0,0,1,1.143,2.241H67.6q0-1.143-1.2-1.143a1.194,1.194,0,0,0-.782.259.8.8,0,0,0-.316.646.737.737,0,0,0,.387.642,3.654,3.654,0,0,0,1.235.4,10.671,10.671,0,0,1,1.49.378A2.706,2.706,0,0,1,70.55-2.76,2.491,2.491,0,0,1,69.394-.642,5.068,5.068,0,0,1,66.4.176a5.172,5.172,0,0,1-2.18-.439,3.645,3.645,0,0,1-1.494-1.2,2.707,2.707,0,0,1-.536-1.591H64.96a1.145,1.145,0,0,0,.439.962,1.808,1.808,0,0,0,1.081.3,1.422,1.422,0,0,0,.91-.246A.787.787,0,0,0,67.693-2.672Z" transform="translate(609 14867)" fill="#fff"/><g transform="translate(622.506 14750)"><g clip-path="url(#a)"><path d="M33.333,25.8A15.511,15.511,0,1,0,6.214,15.536,15.424,15.424,0,0,0,10.167,25.8C3.853,30.994.994,37.677,0,49.714c0,5.229,0,11.08,6.733,12.23L9.415,75.323C11.189,82.417,16.03,87,21.75,87s10.564-4.583,12.37-11.82l2.647-13.236c6.736-1.15,6.733-7.028,6.724-12.488C42.509,37.674,39.65,30.994,33.333,25.8M21.75,6.214a9.321,9.321,0,1,1-9.321,9.321A9.333,9.333,0,0,1,21.75,6.214M34.179,55.929a3.1,3.1,0,0,0-3.045,2.5L28.057,73.819c-1.06,4.232-3.533,6.966-6.307,6.966s-5.248-2.734-6.276-6.823L12.366,58.427a3.1,3.1,0,0,0-3.045-2.5c-3.107,0-3.107,0-3.116-5.956.976-11.7,3.732-16.036,8.162-19.581a3.125,3.125,0,0,0,.547-.562c.068-.093.149-.193.224-.286a15.279,15.279,0,0,0,1.939.733l2.6,3.9L15.536,44.535l6.214,8.287,6.214-8.287L23.822,34.179l2.6-3.9a15.279,15.279,0,0,0,1.939-.733c.075.1.155.193.227.289a2.99,2.99,0,0,0,.544.559c4.434,3.545,7.19,7.886,8.156,19.323,0,6.214,0,6.214-3.11,6.214" fill="#fff"/></g></g></g></g></svg>