<svg xmlns="http://www.w3.org/2000/svg" xmlns:xlink="http://www.w3.org/1999/xlink" width="295" height="261" viewBox="0 0 295 261"><defs><clipPath id="a"><rect width="53.848" height="74.999" fill="#fff"/></clipPath></defs><g transform="translate(-808.125 -14153)"><g transform="translate(-1.875 -541)"><rect width="295" height="261" rx="10" transform="translate(810 14694)" fill="#387db8"/><path d="M4.254,0H1.178V-12.8H4.254ZM3.085-16.225H6.214l-2.443,2.76-2.417,0Zm5.9,6.715.1,1.116a3.225,3.225,0,0,1,2.716-1.292,2.713,2.713,0,0,1,2.219.888,4.226,4.226,0,0,1,.76,2.672V0H11.8V-6a1.6,1.6,0,0,0-.29-1.059A1.342,1.342,0,0,0,10.459-7.4a1.413,1.413,0,0,0-1.292.686V0H6.205V-9.51Zm10.881-2.364V-9.51h1.564v2.057H19.863V-3.1a1.111,1.111,0,0,0,.193.747,1.037,1.037,0,0,0,.765.211A4.345,4.345,0,0,0,21.56-2.2V-.079a5.466,5.466,0,0,1-1.67.255,3.1,3.1,0,0,1-2.259-.721A2.954,2.954,0,0,1,16.9-2.733v-4.72H15.688V-9.51H16.9v-2.364ZM25.717,0H22.746V-9.51h2.971ZM22.57-11.962A1.322,1.322,0,0,1,23.027-13a1.724,1.724,0,0,1,1.187-.4A1.724,1.724,0,0,1,25.4-13a1.322,1.322,0,0,1,.457,1.037,1.322,1.322,0,0,1-.457,1.037,1.724,1.724,0,0,1-1.187.4,1.724,1.724,0,0,1-1.187-.4A1.322,1.322,0,0,1,22.57-11.962ZM30.34-9.51l.1,1.116a3.27,3.27,0,0,1,2.716-1.292,2.407,2.407,0,0,1,2.435,1.433,3.165,3.165,0,0,1,2.795-1.433q2.892,0,2.971,3.5V0H38.382V-6a1.813,1.813,0,0,0-.246-1.063,1.048,1.048,0,0,0-.9-.334,1.4,1.4,0,0,0-1.31.782l.009.123V0H32.968V-5.985a1.906,1.906,0,0,0-.237-1.081,1.045,1.045,0,0,0-.905-.334,1.42,1.42,0,0,0-1.3.782V0H27.563V-9.51ZM48.4,0a3.344,3.344,0,0,1-.281-.853A2.754,2.754,0,0,1,45.835.176,3.374,3.374,0,0,1,43.55-.637a2.588,2.588,0,0,1-.94-2.043,2.66,2.66,0,0,1,1.143-2.338,5.821,5.821,0,0,1,3.322-.791h.914v-.5q0-1.316-1.134-1.316A.927.927,0,0,0,45.8-6.587H42.838a2.655,2.655,0,0,1,1.173-2.239A4.931,4.931,0,0,1,47-9.686a4.323,4.323,0,0,1,2.874.888,3.086,3.086,0,0,1,1.081,2.435v4.21a4.311,4.311,0,0,0,.4,2V0ZM46.547-1.934a1.652,1.652,0,0,0,.918-.237,1.487,1.487,0,0,0,.523-.536V-4.228h-.861q-1.547,0-1.547,1.389a.848.848,0,0,0,.272.655A.986.986,0,0,0,46.547-1.934Zm11.03-.738a.684.684,0,0,0-.4-.606,6.016,6.016,0,0,0-1.5-.475A6.853,6.853,0,0,1,53.851-4.4a3.062,3.062,0,0,1-1.1-.971,2.319,2.319,0,0,1-.378-1.31,2.628,2.628,0,0,1,1.081-2.158,4.453,4.453,0,0,1,2.83-.848,4.934,4.934,0,0,1,3.023.853,2.666,2.666,0,0,1,1.143,2.241H57.48q0-1.143-1.2-1.143a1.194,1.194,0,0,0-.782.259.8.8,0,0,0-.316.646.737.737,0,0,0,.387.642,3.654,3.654,0,0,0,1.235.4,10.671,10.671,0,0,1,1.49.378A2.706,2.706,0,0,1,60.434-2.76,2.491,2.491,0,0,1,59.278-.642a5.068,5.068,0,0,1-2.993.817,5.172,5.172,0,0,1-2.18-.439,3.645,3.645,0,0,1-1.494-1.2,2.707,2.707,0,0,1-.536-1.591h2.769a1.145,1.145,0,0,0,.439.962,1.808,1.808,0,0,0,1.081.3,1.422,1.422,0,0,0,.91-.246A.787.787,0,0,0,57.577-2.672Z" transform="translate(927 14867)" fill="#fff"/><g transform="translate(931 14749.5)"><g transform="translate(0 0.001)" clip-path="url(#a)"><path d="M41.5,36.416l-.219-.186a20.992,20.992,0,1,0-28.759.057l-.153.132C5.155,42.524,1.332,46.495,0,63.568c0,2.006.861,4.891,4.951,7.251C9.779,73.608,18.353,75,26.927,75s17.157-1.4,21.985-4.183c4.088-2.363,4.945-5.248,4.936-7.485C52.529,46.492,48.705,42.521,41.5,36.416M11.873,20.992A14.994,14.994,0,1,1,26.867,35.987,15.012,15.012,0,0,1,11.873,20.992M5.992,63.8c1.185-15.132,4.213-17.7,10.247-22.81l1.382-1.176c.423.207.849.414,1.287.594l4.96,6.819-6,13.747,6.592,8.055C17.831,68.807,11.5,67.676,7.95,65.628,7.362,65.289,6,64.41,5.992,63.8m39.918,1.82c-3.575,2.063-9.962,3.2-16.638,3.413l6.592-8.058-6-13.747,4.96-6.819c.465-.189.918-.411,1.364-.633l1.427,1.212c6.034,5.11,9.063,7.677,10.241,22.576,0,.843-1.364,1.718-1.949,2.057" transform="translate(0 -0.002)" fill="#fff"/><path d="M9.978,6.5a7.442,7.442,0,0,1,7.434,7.434,1.5,1.5,0,1,0,3,0A10.446,10.446,0,0,0,9.978,3.5a1.5,1.5,0,0,0,0,3" transform="translate(16.949 6.995)" fill="#fff"/><path d="M13.628,15.66a1.5,1.5,0,1,0-1.341,2.684c5.167,2.582,5.167,10.913,5.167,13.651a1.5,1.5,0,1,0,3,0c0-3.194,0-12.919-6.825-16.335" transform="translate(22.904 30.98)" fill="#fff"/></g></g></g></g></svg>