<svg xmlns="http://www.w3.org/2000/svg" xmlns:xlink="http://www.w3.org/1999/xlink" width="295" height="261" viewBox="0 0 295 261"><defs><clipPath id="a"><rect width="77" height="82" fill="#fff"/></clipPath></defs><g transform="translate(-1123.125 -14153)"><g transform="translate(-1.875 -541)"><rect width="295" height="261" rx="10" transform="translate(1125 14694)" fill="#387db8"/><path d="M7.567-3.4a1.268,1.268,0,0,0-.479-1.055,5.954,5.954,0,0,0-1.683-.782,16.147,16.147,0,0,1-1.969-.782Q.949-7.242.949-9.378a3.011,3.011,0,0,1,.62-1.876A4.008,4.008,0,0,1,3.322-12.52a6.823,6.823,0,0,1,2.549-.453,5.969,5.969,0,0,1,2.474.492,3.917,3.917,0,0,1,1.7,1.4A3.661,3.661,0,0,1,10.652-9H7.576A1.547,1.547,0,0,0,7.1-10.213a1.867,1.867,0,0,0-1.3-.431,2.106,2.106,0,0,0-1.305.365,1.119,1.119,0,0,0-.479.927,1.127,1.127,0,0,0,.527.892A6.65,6.65,0,0,0,6.4-7.633a11.36,11.36,0,0,1,2.18.918,3.663,3.663,0,0,1,2.074,3.3A3.125,3.125,0,0,1,9.387-.782,5.629,5.629,0,0,1,5.915.176,6.888,6.888,0,0,1,3.1-.382,4.247,4.247,0,0,1,1.2-1.912,3.985,3.985,0,0,1,.563-4.148H3.656a1.963,1.963,0,0,0,.532,1.516,2.513,2.513,0,0,0,1.727.488,1.985,1.985,0,0,0,1.208-.33A1.088,1.088,0,0,0,7.567-3.4Zm4.157-1.441a5.613,5.613,0,0,1,.554-2.536,3.96,3.96,0,0,1,1.591-1.709,4.791,4.791,0,0,1,2.435-.6A4.373,4.373,0,0,1,19.67-8.363a5.076,5.076,0,0,1,1.23,3.6v.105a4.925,4.925,0,0,1-1.235,3.529A4.384,4.384,0,0,1,16.321.176a4.434,4.434,0,0,1-3.261-1.217,4.761,4.761,0,0,1-1.327-3.3Zm2.962.185A3.538,3.538,0,0,0,15.1-2.725a1.376,1.376,0,0,0,1.222.615q1.582,0,1.617-2.435v-.3Q17.938-7.4,16.3-7.4q-1.485,0-1.608,2.206Zm11.54,2.549a1.317,1.317,0,0,0,.967-.338,1.241,1.241,0,0,0,.334-.945H30.3A3.288,3.288,0,0,1,29.184-.826a4.168,4.168,0,0,1-2.887,1,4.22,4.22,0,0,1-3.27-1.3,5.125,5.125,0,0,1-1.2-3.6v-.123A5.792,5.792,0,0,1,22.364-7.4a3.872,3.872,0,0,1,1.534-1.7,4.573,4.573,0,0,1,2.373-.593,4.116,4.116,0,0,1,2.944,1.028A3.647,3.647,0,0,1,30.3-5.871H27.527A1.626,1.626,0,0,0,27.167-7a1.244,1.244,0,0,0-.967-.4q-1.151,0-1.345,1.468a10.357,10.357,0,0,0-.062,1.283,4.068,4.068,0,0,0,.343,1.986A1.187,1.187,0,0,0,26.227-2.109ZM34.682,0H31.711V-9.51h2.971ZM31.535-11.962A1.322,1.322,0,0,1,31.992-13a1.724,1.724,0,0,1,1.187-.4,1.724,1.724,0,0,1,1.187.4,1.322,1.322,0,0,1,.457,1.037,1.322,1.322,0,0,1-.457,1.037,1.724,1.724,0,0,1-1.187.4,1.724,1.724,0,0,1-1.187-.4A1.322,1.322,0,0,1,31.535-11.962ZM41.862,0a3.344,3.344,0,0,1-.281-.853A2.754,2.754,0,0,1,39.3.176a3.374,3.374,0,0,1-2.285-.813,2.588,2.588,0,0,1-.94-2.043,2.66,2.66,0,0,1,1.143-2.338,5.821,5.821,0,0,1,3.322-.791h.914v-.5q0-1.316-1.134-1.316a.927.927,0,0,0-1.055,1.042H36.3a2.655,2.655,0,0,1,1.173-2.239,4.931,4.931,0,0,1,2.993-.86,4.323,4.323,0,0,1,2.874.888A3.086,3.086,0,0,1,44.42-6.363v4.21a4.311,4.311,0,0,0,.4,2V0ZM40.008-1.934a1.652,1.652,0,0,0,.918-.237,1.487,1.487,0,0,0,.523-.536V-4.228h-.861q-1.547,0-1.547,1.389a.848.848,0,0,0,.272.655A.986.986,0,0,0,40.008-1.934ZM49.184,0H46.213V-13.5h2.971Zm6.425.176a4.889,4.889,0,0,1-3.542-1.305,4.507,4.507,0,0,1-1.354-3.4v-.246a5.84,5.84,0,0,1,.541-2.575,3.955,3.955,0,0,1,1.578-1.727,4.763,4.763,0,0,1,2.461-.611,4.117,4.117,0,0,1,3.164,1.244,4.887,4.887,0,0,1,1.16,3.467v1.151H53.728a2.135,2.135,0,0,0,.694,1.257,2.066,2.066,0,0,0,1.389.457,2.662,2.662,0,0,0,2.2-.984l1.354,1.6A3.784,3.784,0,0,1,57.792-.277,5.3,5.3,0,0,1,55.608.176ZM55.274-7.4q-1.3,0-1.547,1.723h2.988v-.229a1.467,1.467,0,0,0-.36-1.1A1.434,1.434,0,0,0,55.274-7.4ZM65.786-2.672a.684.684,0,0,0-.4-.606,6.016,6.016,0,0,0-1.5-.475A6.853,6.853,0,0,1,62.06-4.4a3.062,3.062,0,0,1-1.1-.971,2.319,2.319,0,0,1-.378-1.31,2.628,2.628,0,0,1,1.081-2.158,4.453,4.453,0,0,1,2.83-.848,4.934,4.934,0,0,1,3.023.853A2.666,2.666,0,0,1,68.66-6.592H65.689q0-1.143-1.2-1.143a1.194,1.194,0,0,0-.782.259.8.8,0,0,0-.316.646.737.737,0,0,0,.387.642,3.654,3.654,0,0,0,1.235.4,10.671,10.671,0,0,1,1.49.378A2.706,2.706,0,0,1,68.643-2.76,2.491,2.491,0,0,1,67.487-.642a5.068,5.068,0,0,1-2.993.817,5.172,5.172,0,0,1-2.18-.439,3.645,3.645,0,0,1-1.494-1.2,2.707,2.707,0,0,1-.536-1.591h2.769a1.145,1.145,0,0,0,.439.962,1.808,1.808,0,0,0,1.081.3,1.422,1.422,0,0,0,.91-.246A.787.787,0,0,0,65.786-2.672Z" transform="translate(1238 14867)" fill="#fff"/><g transform="translate(1234 14750)"><g clip-path="url(#a)"><path d="M23,63.9c-1.038,2.385-3.277,2.556-5.112,2.556-2.282,0-4.317-2.249-5.163-5.613L10.172,48.059A2.554,2.554,0,0,0,7.667,46c-2.556,0-2.556,0-2.563-4.9.8-9.62,3.07-13.191,6.714-16.107a2.57,2.57,0,0,0,.45-.463c.056-.077.123-.158.184-.235A12.464,12.464,0,0,0,23,24.469V18.476a7.6,7.6,0,0,1-5.112,1.971,7.667,7.667,0,1,1,7.233-10.213l5.206-.01A13.01,13.01,0,0,0,17.891,0,12.725,12.725,0,0,0,8.363,21.221C3.169,25.494.818,30.992,0,40.893c0,4.3,0,9.114,5.538,10.06L7.744,61.958c1.459,5.835,5.441,9.6,10.147,9.6A8.687,8.687,0,0,0,23,69.871Z" fill="#fff"/><path d="M25.465,69.878a8.719,8.719,0,0,0,5.109,1.684c4.705,0,8.69-3.77,10.175-9.722l2.178-10.89c5.538-.946,5.538-5.779,5.531-10.269C47.649,30.989,45.3,25.494,40.1,21.218A12.724,12.724,0,0,0,30.574,0,13.015,13.015,0,0,0,18.132,10.223h5.211a7.689,7.689,0,1,1,2.119,8.253l.01,6a12.467,12.467,0,0,0,10.54-.174c.061.079.128.158.184.235a2.57,2.57,0,0,0,.45.463c3.645,2.916,5.914,6.487,6.706,15.895C43.353,46,43.353,46,40.8,46a2.559,2.559,0,0,0-2.507,2.052L35.762,60.721c-.872,3.481-2.909,5.73-5.188,5.73-1.487,0-4.1-.953-5.112-2.556Z" transform="translate(28.21)" fill="#fff"/><path d="M43.774,44.681c-.808-9.692-3.159-15.187-8.355-19.462a12.779,12.779,0,1,0-19.054,0C11.167,29.494,8.818,34.994,8,44.893c0,4.3,0,9.114,5.538,10.06l2.206,11.005c1.459,5.832,5.441,9.6,10.144,9.6h0c4.705,0,8.69-3.77,10.175-9.722l2.178-10.888c5.541-.946,5.541-5.781,5.531-10.272M25.891,9.112a7.667,7.667,0,1,1-7.667,7.667,7.677,7.677,0,0,1,7.667-7.667M36.114,50a2.554,2.554,0,0,0-2.5,2.055L31.081,64.718c-.872,3.484-2.909,5.733-5.191,5.733s-4.317-2.249-5.163-5.613L18.172,52.059A2.554,2.554,0,0,0,15.667,50c-2.556,0-2.556,0-2.563-4.9.8-9.618,3.07-13.188,6.717-16.107a2.738,2.738,0,0,0,.447-.463c.056-.077.123-.156.184-.235a12.567,12.567,0,0,0,1.595.6l2.139,3.21-3.407,8.519,5.112,6.816L31,40.632,27.6,32.114l2.139-3.21a12.752,12.752,0,0,0,1.6-.6c.061.077.125.158.184.235a2.738,2.738,0,0,0,.447.463c3.647,2.919,5.914,6.489,6.709,15.895,0,5.112,0,5.112-2.558,5.112" transform="translate(12.446 6.223)" fill="#fff"/></g></g></g></g></svg>