<svg xmlns="http://www.w3.org/2000/svg" xmlns:xlink="http://www.w3.org/1999/xlink" width="292" height="261" viewBox="0 0 292 261"><defs><clipPath id="a"><rect width="76" height="74" fill="#fff"/></clipPath></defs><g transform="translate(-388.125 -14443)"><g transform="translate(-1.875 -541)"><rect width="292" height="261" rx="10" transform="translate(390 14984)" fill="#387db8"/><path d="M4.254,0H1.178V-12.8H4.254ZM8.982-9.51l.1,1.116a3.225,3.225,0,0,1,2.716-1.292,2.713,2.713,0,0,1,2.219.888,4.226,4.226,0,0,1,.76,2.672V0H11.8V-6a1.6,1.6,0,0,0-.29-1.059A1.342,1.342,0,0,0,10.459-7.4a1.413,1.413,0,0,0-1.292.686V0H6.205V-9.51Zm12.41,6.838a.684.684,0,0,0-.4-.606,6.016,6.016,0,0,0-1.5-.475A6.853,6.853,0,0,1,17.666-4.4a3.062,3.062,0,0,1-1.1-.971,2.319,2.319,0,0,1-.378-1.31,2.628,2.628,0,0,1,1.081-2.158,4.453,4.453,0,0,1,2.83-.848,4.934,4.934,0,0,1,3.023.853,2.666,2.666,0,0,1,1.143,2.241H21.3q0-1.143-1.2-1.143a1.194,1.194,0,0,0-.782.259.8.8,0,0,0-.316.646.737.737,0,0,0,.387.642,3.654,3.654,0,0,0,1.235.4,10.671,10.671,0,0,1,1.49.378A2.706,2.706,0,0,1,24.249-2.76,2.491,2.491,0,0,1,23.093-.642,5.068,5.068,0,0,1,20.1.176a5.172,5.172,0,0,1-2.18-.439,3.645,3.645,0,0,1-1.494-1.2,2.707,2.707,0,0,1-.536-1.591h2.769a1.145,1.145,0,0,0,.439.962,1.808,1.808,0,0,0,1.081.3,1.422,1.422,0,0,0,.91-.246A.787.787,0,0,0,21.393-2.672Zm7.69-9.2V-9.51h1.564v2.057H29.083V-3.1a1.111,1.111,0,0,0,.193.747,1.037,1.037,0,0,0,.765.211,4.345,4.345,0,0,0,.738-.053V-.079a5.466,5.466,0,0,1-1.67.255,3.1,3.1,0,0,1-2.259-.721,2.954,2.954,0,0,1-.729-2.188v-4.72H24.908V-9.51h1.213v-2.364ZM34.937,0H31.966V-9.51h2.971ZM31.79-11.962A1.322,1.322,0,0,1,32.247-13a1.724,1.724,0,0,1,1.187-.4,1.724,1.724,0,0,1,1.187.4,1.322,1.322,0,0,1,.457,1.037,1.322,1.322,0,0,1-.457,1.037,1.724,1.724,0,0,1-1.187.4,1.724,1.724,0,0,1-1.187-.4A1.322,1.322,0,0,1,31.79-11.962Zm8.42.088V-9.51h1.564v2.057H40.21V-3.1a1.111,1.111,0,0,0,.193.747,1.037,1.037,0,0,0,.765.211,4.345,4.345,0,0,0,.738-.053V-.079a5.466,5.466,0,0,1-1.67.255,3.1,3.1,0,0,1-2.259-.721,2.954,2.954,0,0,1-.729-2.188v-4.72H36.035V-9.51h1.213v-2.364ZM48.6-1.028a3.054,3.054,0,0,1-2.54,1.2,3,3,0,0,1-2.369-.91,3.826,3.826,0,0,1-.8-2.615V-9.51h2.962v6.179a1.065,1.065,0,0,0,1.187,1.222,1.548,1.548,0,0,0,1.45-.729V-9.51h2.979V0H48.691Zm8.508-1.081a1.317,1.317,0,0,0,.967-.338,1.241,1.241,0,0,0,.334-.945h2.777A3.288,3.288,0,0,1,60.069-.826a4.168,4.168,0,0,1-2.887,1,4.22,4.22,0,0,1-3.27-1.3,5.125,5.125,0,0,1-1.2-3.6v-.123A5.792,5.792,0,0,1,53.249-7.4a3.872,3.872,0,0,1,1.534-1.7,4.573,4.573,0,0,1,2.373-.593A4.116,4.116,0,0,1,60.1-8.657a3.647,3.647,0,0,1,1.09,2.786H58.412A1.626,1.626,0,0,0,58.052-7a1.244,1.244,0,0,0-.967-.4q-1.151,0-1.345,1.468a10.357,10.357,0,0,0-.062,1.283,4.068,4.068,0,0,0,.343,1.986A1.187,1.187,0,0,0,57.111-2.109ZM65.566,0H62.6V-9.51h2.971ZM62.42-11.962A1.322,1.322,0,0,1,62.877-13a1.724,1.724,0,0,1,1.187-.4,1.724,1.724,0,0,1,1.187.4,1.322,1.322,0,0,1,.457,1.037,1.322,1.322,0,0,1-.457,1.037,1.724,1.724,0,0,1-1.187.4,1.724,1.724,0,0,1-1.187-.4A1.322,1.322,0,0,1,62.42-11.962Zm4.6,7.119a5.613,5.613,0,0,1,.554-2.536,3.96,3.96,0,0,1,1.591-1.709,4.791,4.791,0,0,1,2.435-.6,4.373,4.373,0,0,1,3.366,1.323,5.076,5.076,0,0,1,1.23,3.6v.105a4.925,4.925,0,0,1-1.235,3.529A4.384,4.384,0,0,1,71.613.176a4.434,4.434,0,0,1-3.261-1.217,4.761,4.761,0,0,1-1.327-3.3Zm2.962.185a3.538,3.538,0,0,0,.413,1.934,1.376,1.376,0,0,0,1.222.615q1.582,0,1.617-2.435v-.3Q73.23-7.4,71.6-7.4q-1.485,0-1.608,2.206ZM80.218-9.51l.1,1.116A3.225,3.225,0,0,1,83.03-9.686,2.713,2.713,0,0,1,85.25-8.8a4.226,4.226,0,0,1,.76,2.672V0H83.039V-6a1.6,1.6,0,0,0-.29-1.059A1.342,1.342,0,0,0,81.694-7.4a1.413,1.413,0,0,0-1.292.686V0H77.44V-9.51ZM93.006,0a3.344,3.344,0,0,1-.281-.853A2.754,2.754,0,0,1,90.439.176a3.374,3.374,0,0,1-2.285-.813,2.588,2.588,0,0,1-.94-2.043,2.66,2.66,0,0,1,1.143-2.338,5.821,5.821,0,0,1,3.322-.791h.914v-.5q0-1.316-1.134-1.316A.927.927,0,0,0,90.4-6.587H87.442a2.655,2.655,0,0,1,1.173-2.239,4.931,4.931,0,0,1,2.993-.86,4.323,4.323,0,0,1,2.874.888,3.086,3.086,0,0,1,1.081,2.435v4.21a4.311,4.311,0,0,0,.4,2V0ZM91.151-1.934a1.652,1.652,0,0,0,.918-.237,1.487,1.487,0,0,0,.523-.536V-4.228h-.861q-1.547,0-1.547,1.389a.848.848,0,0,0,.272.655A.986.986,0,0,0,91.151-1.934ZM100.327,0H97.356V-13.5h2.971Zm6.425.176a4.889,4.889,0,0,1-3.542-1.305,4.507,4.507,0,0,1-1.354-3.4v-.246a5.84,5.84,0,0,1,.541-2.575,3.955,3.955,0,0,1,1.578-1.727,4.763,4.763,0,0,1,2.461-.611A4.117,4.117,0,0,1,109.6-8.442a4.887,4.887,0,0,1,1.16,3.467v1.151h-5.889a2.135,2.135,0,0,0,.694,1.257,2.066,2.066,0,0,0,1.389.457,2.662,2.662,0,0,0,2.2-.984l1.354,1.6a3.784,3.784,0,0,1-1.569,1.217A5.3,5.3,0,0,1,106.752.176ZM106.418-7.4q-1.3,0-1.547,1.723h2.988v-.229a1.467,1.467,0,0,0-.36-1.1A1.434,1.434,0,0,0,106.418-7.4ZM116.93-2.672a.684.684,0,0,0-.4-.606,6.016,6.016,0,0,0-1.5-.475A6.853,6.853,0,0,1,113.2-4.4a3.062,3.062,0,0,1-1.1-.971,2.319,2.319,0,0,1-.378-1.31,2.628,2.628,0,0,1,1.081-2.158,4.453,4.453,0,0,1,2.83-.848,4.934,4.934,0,0,1,3.023.853A2.666,2.666,0,0,1,119.8-6.592h-2.971q0-1.143-1.2-1.143a1.194,1.194,0,0,0-.782.259.8.8,0,0,0-.316.646.737.737,0,0,0,.387.642,3.654,3.654,0,0,0,1.235.4,10.671,10.671,0,0,1,1.49.378,2.706,2.706,0,0,1,2.145,2.646A2.491,2.491,0,0,1,118.63-.642a5.068,5.068,0,0,1-2.993.817,5.172,5.172,0,0,1-2.18-.439,3.645,3.645,0,0,1-1.494-1.2,2.707,2.707,0,0,1-.536-1.591H114.2a1.145,1.145,0,0,0,.439.962,1.808,1.808,0,0,0,1.081.3,1.422,1.422,0,0,0,.91-.246A.787.787,0,0,0,116.93-2.672Z" transform="translate(476 15158)" fill="#fff"/><g transform="translate(498 15053)"><g clip-path="url(#a)"><path d="M40.382,45.125H4.75V4.75h57V2.375A2.374,2.374,0,0,0,59.375,0h-57A2.376,2.376,0,0,0,0,2.375V47.5a2.374,2.374,0,0,0,2.375,2.375h38Z" fill="#fff"/><path d="M43.482,22.717a11.874,11.874,0,1,0-17.708,0C20.946,26.691,18.763,31.8,18,41c0,4,0,8.469,5.147,9.348L25.2,60.575c1.356,5.42,5.056,8.925,9.426,8.925h0C39,69.5,42.7,66,44.083,60.465l2.024-10.117c5.149-.881,5.149-5.372,5.139-9.545C50.5,31.8,48.31,26.691,43.482,22.717M34.628,7.75A7.125,7.125,0,1,1,27.5,14.875,7.134,7.134,0,0,1,34.628,7.75m9.5,38a2.378,2.378,0,0,0-2.33,1.91L39.452,59.423c-.81,3.237-2.7,5.327-4.824,5.327s-4.014-2.09-4.8-5.215L27.455,47.66a2.375,2.375,0,0,0-2.327-1.91c-2.375,0-2.375,0-2.382-4.553.743-8.937,2.852-12.255,6.242-14.967a2.543,2.543,0,0,0,.416-.43c.052-.071.114-.145.171-.219a11.678,11.678,0,0,0,1.482.56l1.988,2.983-3.166,7.916,4.75,6.334,4.75-6.334-3.166-7.916L38.2,26.142a11.849,11.849,0,0,0,1.484-.56c.057.071.116.147.171.219a2.455,2.455,0,0,0,.416.43c3.389,2.712,5.5,6.03,6.234,14.77,0,4.75,0,4.75-2.377,4.75" transform="translate(24.754 4.125)" fill="#fff"/><path d="M43.375,5.375V3H3V38.625H5.375V5.375Z" transform="translate(4.125 4.125)" fill="#fff"/><rect width="38" height="3" transform="translate(2 52)" fill="#fff"/><path d="M35.719,4.625a1.192,1.192,0,0,0-1.594.532L28.062,17.281,24.376,9.907a1.212,1.212,0,0,0-1.126-.656,1.187,1.187,0,0,0-1.05.767L15.89,26.85l-3.465-5.2a1.163,1.163,0,0,0-1.109-.522,1.186,1.186,0,0,0-.981.741L5.585,33.747a1.187,1.187,0,0,0,.663,1.541,1.139,1.139,0,0,0,.439.085,1.189,1.189,0,0,0,1.1-.746L11.7,24.85,15.2,30.1a1.19,1.19,0,0,0,2.1-.242L23.469,13.4,27,20.468a1.237,1.237,0,0,0,2.126,0l7.125-14.25a1.189,1.189,0,0,0-.532-1.594" transform="translate(7.563 6.189)" fill="#fff"/></g></g></g></g></svg>