<svg xmlns="http://www.w3.org/2000/svg" xmlns:xlink="http://www.w3.org/1999/xlink" width="295" height="261" viewBox="0 0 295 261"><defs><clipPath id="a"><rect width="88" height="63" transform="translate(0 0)" fill="#fff"/></clipPath></defs><g transform="translate(-701.125 -14443)"><g transform="translate(-1.875 -541)"><rect width="295" height="261" rx="10" transform="translate(703 14984)" fill="#387db8"/><path d="M4.052-2.373h5.37V0H.967V-12.8H4.052ZM15.943,0a3.344,3.344,0,0,1-.281-.853A2.754,2.754,0,0,1,13.377.176a3.374,3.374,0,0,1-2.285-.813,2.588,2.588,0,0,1-.94-2.043,2.66,2.66,0,0,1,1.143-2.338,5.821,5.821,0,0,1,3.322-.791h.914v-.5q0-1.316-1.134-1.316a.927.927,0,0,0-1.055,1.042H10.38a2.655,2.655,0,0,1,1.173-2.239,4.931,4.931,0,0,1,2.993-.86A4.323,4.323,0,0,1,17.42-8.8,3.086,3.086,0,0,1,18.5-6.363v4.21a4.311,4.311,0,0,0,.4,2V0ZM14.089-1.934a1.652,1.652,0,0,0,.918-.237,1.487,1.487,0,0,0,.523-.536V-4.228h-.861q-1.547,0-1.547,1.389a.848.848,0,0,0,.272.655A.986.986,0,0,0,14.089-1.934Zm14.88-2.742A5.8,5.8,0,0,1,28-1.081,3.238,3.238,0,0,1,25.277.176,2.81,2.81,0,0,1,22.939-.976L22.816,0H20.162V-13.5h2.962v4.755a2.711,2.711,0,0,1,2.136-.94A3.239,3.239,0,0,1,28-8.411a5.826,5.826,0,0,1,.967,3.586ZM26-4.865a3.866,3.866,0,0,0-.365-1.952A1.229,1.229,0,0,0,24.513-7.4a1.418,1.418,0,0,0-1.389.763v3.773a1.426,1.426,0,0,0,1.406.755,1.258,1.258,0,0,0,1.327-1.018A7.309,7.309,0,0,0,26-4.865Zm3.9.022a5.613,5.613,0,0,1,.554-2.536,3.96,3.96,0,0,1,1.591-1.709,4.791,4.791,0,0,1,2.435-.6,4.373,4.373,0,0,1,3.366,1.323,5.076,5.076,0,0,1,1.23,3.6v.105a4.925,4.925,0,0,1-1.235,3.529A4.384,4.384,0,0,1,34.5.176a4.434,4.434,0,0,1-3.261-1.217,4.761,4.761,0,0,1-1.327-3.3Zm2.962.185a3.538,3.538,0,0,0,.413,1.934,1.376,1.376,0,0,0,1.222.615q1.582,0,1.617-2.435v-.3q0-2.558-1.635-2.558-1.485,0-1.608,2.206ZM46.134-6.829l-.976-.07a1.752,1.752,0,0,0-1.793.879V0H40.4V-9.51h2.777l.1,1.222a2.294,2.294,0,0,1,2.083-1.4,2.888,2.888,0,0,1,.826.105ZM52.295,0a3.344,3.344,0,0,1-.281-.853A2.754,2.754,0,0,1,49.729.176a3.374,3.374,0,0,1-2.285-.813,2.588,2.588,0,0,1-.94-2.043,2.66,2.66,0,0,1,1.143-2.338,5.821,5.821,0,0,1,3.322-.791h.914v-.5q0-1.316-1.134-1.316a.927.927,0,0,0-1.055,1.042H46.731A2.655,2.655,0,0,1,47.9-8.825a4.931,4.931,0,0,1,2.993-.86,4.323,4.323,0,0,1,2.874.888,3.086,3.086,0,0,1,1.081,2.435v4.21a4.311,4.311,0,0,0,.4,2V0ZM50.44-1.934a1.652,1.652,0,0,0,.918-.237,1.487,1.487,0,0,0,.523-.536V-4.228h-.861q-1.547,0-1.547,1.389a.848.848,0,0,0,.272.655A.986.986,0,0,0,50.44-1.934ZM59.616,0H56.646V-13.5h2.971Zm6.425.176A4.889,4.889,0,0,1,62.5-1.129a4.507,4.507,0,0,1-1.354-3.4v-.246a5.84,5.84,0,0,1,.541-2.575,3.955,3.955,0,0,1,1.578-1.727,4.763,4.763,0,0,1,2.461-.611,4.117,4.117,0,0,1,3.164,1.244,4.887,4.887,0,0,1,1.16,3.467v1.151H64.16a2.135,2.135,0,0,0,.694,1.257,2.066,2.066,0,0,0,1.389.457,2.662,2.662,0,0,0,2.2-.984l1.354,1.6A3.784,3.784,0,0,1,68.225-.277,5.3,5.3,0,0,1,66.041.176ZM65.707-7.4q-1.3,0-1.547,1.723h2.988v-.229a1.467,1.467,0,0,0-.36-1.1A1.434,1.434,0,0,0,65.707-7.4ZM76.219-2.672a.684.684,0,0,0-.4-.606,6.016,6.016,0,0,0-1.5-.475A6.853,6.853,0,0,1,72.492-4.4a3.062,3.062,0,0,1-1.1-.971,2.319,2.319,0,0,1-.378-1.31A2.628,2.628,0,0,1,72.1-8.837a4.453,4.453,0,0,1,2.83-.848,4.934,4.934,0,0,1,3.023.853,2.666,2.666,0,0,1,1.143,2.241H76.122q0-1.143-1.2-1.143a1.194,1.194,0,0,0-.782.259.8.8,0,0,0-.316.646.737.737,0,0,0,.387.642,3.654,3.654,0,0,0,1.235.4,10.671,10.671,0,0,1,1.49.378A2.706,2.706,0,0,1,79.075-2.76,2.491,2.491,0,0,1,77.919-.642a5.068,5.068,0,0,1-2.993.817,5.172,5.172,0,0,1-2.18-.439,3.645,3.645,0,0,1-1.494-1.2,2.707,2.707,0,0,1-.536-1.591h2.769a1.145,1.145,0,0,0,.439.962,1.808,1.808,0,0,0,1.081.3,1.422,1.422,0,0,0,.91-.246A.787.787,0,0,0,76.219-2.672Z" transform="translate(811 15158)" fill="#fff"/><g transform="translate(807 15059)"><g transform="translate(0 0)" clip-path="url(#a)"><path d="M87.187,22.407,65.594.814a2.775,2.775,0,0,0-3.927,0l-9.815,9.815a2.775,2.775,0,0,0,0,3.924l2.786,2.786L50.6,21.381a11.106,11.106,0,0,0-12.24-.657l-4.188-4.188,1.98-1.983a2.77,2.77,0,0,0,0-3.924L26.332.814a2.772,2.772,0,0,0-3.924,0L.812,22.407a2.775,2.775,0,0,0,0,3.924l9.817,9.818a2.778,2.778,0,0,0,3.924,0l1.983-1.983L21,38.632c-1.185,4.524,3.165,11.017,8.291,16.142a38.368,38.368,0,0,0,9.1,6.947,12.054,12.054,0,0,0,5.42,1.551,5.586,5.586,0,0,0,4.1-1.623l3.924-3.927h0l7.428-7.431c.146.008.294.044.44.044A8.273,8.273,0,0,0,66.427,37.2l4.037-4.037,2.981,2.984a2.782,2.782,0,0,0,3.927,0l9.815-9.818a2.775,2.775,0,0,0,0-3.924M6.628,24.371,24.369,6.628l5.965,5.965-1.906,1.9c-.033.033-.08.041-.113.077s-.047.08-.077.116L14.683,28.24c-.033.03-.077.041-.11.074s-.044.077-.074.11L12.59,30.332ZM61.686,44.019a2.8,2.8,0,0,1-3.855.072l-.071-.072-.014.014-.022-.014-5.89-5.89a2.75,2.75,0,1,0-3.889,3.889l5.89,5.89.019.017L49.889,51.89l-5.907-5.907a2.75,2.75,0,0,0-3.889,3.889L46,55.778l-.019.019,0,0-1.928,1.933c-.825.369-5.123-1.1-10.868-6.842s-7.2-10.046-6.872-10.838a2.749,2.749,0,0,0,0-3.889l-5.891-5.888,9.853-9.853,5.888,5.888c.011.011.025.014.033.025L35.531,27a4.124,4.124,0,1,0,5.833,5.833l5.552-5.552a4.091,4.091,0,0,0,.781-1.174c.08.072.171.124.248.2L61.683,40.054a2.805,2.805,0,0,1,0,3.965M75.409,30.332l-17.74-17.74L63.63,6.628l17.74,17.743Z" transform="translate(-0.001 0.001)" fill="#fff"/><path d="M9.5,10.75A2.75,2.75,0,1,0,6.75,13.5,2.751,2.751,0,0,0,9.5,10.75" transform="translate(7 14.001)" fill="#fff"/><path d="M28.75,13.5A2.75,2.75,0,1,0,26,10.75a2.751,2.751,0,0,0,2.75,2.75" transform="translate(45.5 14.001)" fill="#fff"/></g></g></g></g></svg>