<svg xmlns="http://www.w3.org/2000/svg" xmlns:xlink="http://www.w3.org/1999/xlink" width="295" height="261" viewBox="0 0 295 261"><defs><clipPath id="a"><rect width="81" height="71" transform="translate(0 0)" fill="#fff"/></clipPath></defs><g transform="translate(-1018.125 -14443)"><g transform="translate(-1.875 -541)"><rect width="295" height="261" rx="10" transform="translate(1020 14984)" fill="#387db8"/><path d="M11.32-4.333a4.673,4.673,0,0,1-.721,2.36A4.35,4.35,0,0,1,8.75-.387a6.3,6.3,0,0,1-2.72.563A5.025,5.025,0,0,1,2.057-1.468,6.786,6.786,0,0,1,.606-6.108v-.633a7.746,7.746,0,0,1,.655-3.292,4.961,4.961,0,0,1,1.885-2.18,5.26,5.26,0,0,1,2.848-.769,5.516,5.516,0,0,1,3.744,1.226,4.844,4.844,0,0,1,1.608,3.379H8.271a2.292,2.292,0,0,0-.589-1.679,2.422,2.422,0,0,0-1.687-.51A1.843,1.843,0,0,0,4.307-9.7a5.536,5.536,0,0,0-.562,2.751v.905A6.125,6.125,0,0,0,4.258-3.12a1.882,1.882,0,0,0,1.771.879,2.369,2.369,0,0,0,1.626-.5,2.126,2.126,0,0,0,.6-1.591Zm.949-.51a5.613,5.613,0,0,1,.554-2.536,3.96,3.96,0,0,1,1.591-1.709,4.791,4.791,0,0,1,2.435-.6,4.373,4.373,0,0,1,3.366,1.323,5.076,5.076,0,0,1,1.23,3.6v.105A4.925,4.925,0,0,1,20.21-1.129,4.384,4.384,0,0,1,16.866.176a4.434,4.434,0,0,1-3.261-1.217,4.761,4.761,0,0,1-1.327-3.3Zm2.962.185a3.538,3.538,0,0,0,.413,1.934,1.376,1.376,0,0,0,1.222.615q1.582,0,1.617-2.435v-.3q0-2.558-1.635-2.558-1.485,0-1.608,2.206ZM26.2-11.874V-9.51h1.564v2.057H26.2V-3.1a1.111,1.111,0,0,0,.193.747,1.037,1.037,0,0,0,.765.211A4.345,4.345,0,0,0,27.9-2.2V-.079a5.466,5.466,0,0,1-1.67.255,3.1,3.1,0,0,1-2.259-.721,2.954,2.954,0,0,1-.729-2.188v-4.72H22.025V-9.51h1.213v-2.364ZM32.054,0H29.083V-9.51h2.971ZM28.907-11.962A1.322,1.322,0,0,1,29.364-13a1.724,1.724,0,0,1,1.187-.4,1.724,1.724,0,0,1,1.187.4,1.322,1.322,0,0,1,.457,1.037,1.322,1.322,0,0,1-.457,1.037,1.724,1.724,0,0,1-1.187.4,1.724,1.724,0,0,1-1.187-.4A1.322,1.322,0,0,1,28.907-11.962Zm4.6,7.137a5.809,5.809,0,0,1,.976-3.56,3.211,3.211,0,0,1,2.725-1.3,2.731,2.731,0,0,1,2.145,1V-13.5h2.971V0H39.656l-.149-1.02a2.8,2.8,0,0,1-2.32,1.2,3.205,3.205,0,0,1-2.689-1.3A5.993,5.993,0,0,1,33.5-4.825Zm2.962.185q0,2.531,1.477,2.531a1.458,1.458,0,0,0,1.406-.826V-6.557A1.419,1.419,0,0,0,37.96-7.4q-1.371,0-1.485,2.215ZM47.127,0H44.156V-9.51h2.971ZM43.98-11.962A1.322,1.322,0,0,1,44.438-13a1.724,1.724,0,0,1,1.187-.4,1.724,1.724,0,0,1,1.187.4,1.322,1.322,0,0,1,.457,1.037,1.322,1.322,0,0,1-.457,1.037,1.724,1.724,0,0,1-1.187.4,1.724,1.724,0,0,1-1.187-.4A1.322,1.322,0,0,1,43.98-11.962ZM54.308,0a3.344,3.344,0,0,1-.281-.853A2.754,2.754,0,0,1,51.741.176a3.374,3.374,0,0,1-2.285-.813,2.588,2.588,0,0,1-.94-2.043,2.66,2.66,0,0,1,1.143-2.338A5.821,5.821,0,0,1,52.98-5.81h.914v-.5q0-1.316-1.134-1.316a.927.927,0,0,0-1.055,1.042H48.744a2.655,2.655,0,0,1,1.173-2.239,4.931,4.931,0,0,1,2.993-.86,4.323,4.323,0,0,1,2.874.888,3.086,3.086,0,0,1,1.081,2.435v4.21a4.311,4.311,0,0,0,.4,2V0ZM52.453-1.934a1.652,1.652,0,0,0,.918-.237,1.487,1.487,0,0,0,.523-.536V-4.228h-.861q-1.547,0-1.547,1.389a.848.848,0,0,0,.272.655A.986.986,0,0,0,52.453-1.934ZM61.225-9.51l.1,1.116a3.225,3.225,0,0,1,2.716-1.292,2.713,2.713,0,0,1,2.219.888,4.226,4.226,0,0,1,.76,2.672V0H64.046V-6a1.6,1.6,0,0,0-.29-1.059A1.342,1.342,0,0,0,62.7-7.4a1.413,1.413,0,0,0-1.292.686V0H58.447V-9.51ZM74.013,0a3.344,3.344,0,0,1-.281-.853A2.754,2.754,0,0,1,71.446.176a3.374,3.374,0,0,1-2.285-.813,2.588,2.588,0,0,1-.94-2.043,2.66,2.66,0,0,1,1.143-2.338,5.821,5.821,0,0,1,3.322-.791H73.6v-.5q0-1.316-1.134-1.316a.927.927,0,0,0-1.055,1.042H68.449a2.655,2.655,0,0,1,1.173-2.239,4.931,4.931,0,0,1,2.993-.86,4.323,4.323,0,0,1,2.874.888A3.086,3.086,0,0,1,76.57-6.363v4.21a4.311,4.311,0,0,0,.4,2V0ZM72.158-1.934a1.652,1.652,0,0,0,.918-.237,1.487,1.487,0,0,0,.523-.536V-4.228h-.861q-1.547,0-1.547,1.389a.848.848,0,0,0,.272.655A.986.986,0,0,0,72.158-1.934Zm11.03-.738a.684.684,0,0,0-.4-.606,6.016,6.016,0,0,0-1.5-.475A6.853,6.853,0,0,1,79.462-4.4a3.062,3.062,0,0,1-1.1-.971,2.319,2.319,0,0,1-.378-1.31,2.628,2.628,0,0,1,1.081-2.158,4.453,4.453,0,0,1,2.83-.848,4.934,4.934,0,0,1,3.023.853,2.666,2.666,0,0,1,1.143,2.241H83.092q0-1.143-1.2-1.143a1.194,1.194,0,0,0-.782.259.8.8,0,0,0-.316.646.737.737,0,0,0,.387.642,3.654,3.654,0,0,0,1.235.4,10.671,10.671,0,0,1,1.49.378A2.706,2.706,0,0,1,86.045-2.76,2.491,2.491,0,0,1,84.889-.642,5.068,5.068,0,0,1,81.9.176a5.172,5.172,0,0,1-2.18-.439,3.645,3.645,0,0,1-1.494-1.2,2.707,2.707,0,0,1-.536-1.591h2.769a1.145,1.145,0,0,0,.439.962,1.808,1.808,0,0,0,1.081.3,1.422,1.422,0,0,0,.91-.246A.787.787,0,0,0,83.188-2.672Z" transform="translate(1124 15158)" fill="#fff"/><g transform="translate(1127 15053)"><g transform="translate(0 0)" clip-path="url(#a)"><path d="M27.2,31.053l-.154-.124A12.585,12.585,0,1,0,5.042,22.605,12.5,12.5,0,0,0,8.249,30.93l-.156.124C3.507,34.709.87,37.283,0,47.816c0,1.354.565,3.3,3.257,4.851C6.419,54.492,12.033,55.4,17.65,55.4s11.231-.91,14.393-2.738c2.69-1.553,3.255-3.494,3.245-5.057-.86-10.324-3.5-12.9-8.085-16.553M17.647,15.042a7.563,7.563,0,1,1-7.563,7.563,7.572,7.572,0,0,1,7.563-7.563m0,35.295c-7.677,0-11.962-1.669-12.588-2.579.734-8.42,2.456-9.794,6.179-12.764l1.185-.945a12.478,12.478,0,0,0,4.326,1.071l1.742,2.612-3.361,8.405,3.139,4.185c-.214,0-.4.015-.618.015Zm4.588-.229,2.98-3.971L21.85,37.732l1.959-2.937.252.2c3.724,2.97,5.443,4.344,6.179,12.764-.489.708-3.217,1.866-8.007,2.35" transform="translate(0 15.211)" fill="#fff"/><path d="M45.2,31.053l-.154-.124a12.608,12.608,0,1,0-18.8,0l-.156.126C21.507,34.709,18.87,37.28,18,47.816c0,1.354.565,3.3,3.255,4.848,3.161,1.828,8.776,2.738,14.393,2.738s11.231-.91,14.39-2.735c2.692-1.556,3.257-3.5,3.25-5.06-.86-10.326-3.5-12.9-8.085-16.553M35.647,15.042a7.563,7.563,0,1,1-7.563,7.563,7.571,7.571,0,0,1,7.563-7.563M29.236,34.994l.25-.2,1.959,2.937-3.361,8.4,2.977,3.973c-4.788-.484-7.518-1.641-8-2.35.734-8.42,2.456-9.794,6.179-12.764M35.65,50.337c-.219,0-.406-.015-.62-.018l3.139-4.185-3.361-8.4,1.74-2.612a12.466,12.466,0,0,0,4.326-1.074l1.185.948c3.726,2.97,5.446,4.344,6.182,12.764-.628.91-4.911,2.579-12.59,2.579" transform="translate(27.379 15.211)" fill="#fff"/><path d="M14.521,4a2.521,2.521,0,1,0,2.521,2.521A2.522,2.522,0,0,0,14.521,4" transform="translate(18.253 6.085)" fill="#fff"/><path d="M17.521,4a2.521,2.521,0,1,0,2.521,2.521A2.522,2.522,0,0,0,17.521,4" transform="translate(22.816 6.085)" fill="#fff"/><path d="M20.521,4a2.521,2.521,0,1,0,2.521,2.521A2.522,2.522,0,0,0,20.521,4" transform="translate(27.379 6.085)" fill="#fff"/><path d="M48.337,12.605C48.337,5.645,39.307,0,28.169,0S8,5.645,8,12.605c0,5.289,5.214,9.82,12.605,11.69v5.957l7.563-5.042c11.138,0,20.169-5.645,20.169-12.605M28.169,20.169a5.035,5.035,0,0,0-2.8.847l-.62.411a5.03,5.03,0,0,0-2.909-2.019c-5.1-1.291-8.8-4.152-8.8-6.8,0-3.57,6.469-7.563,15.126-7.563s15.126,3.993,15.126,7.563-6.469,7.563-15.126,7.563" transform="translate(12.169 0)" fill="#fff"/></g></g></g></g></svg>