<svg xmlns="http://www.w3.org/2000/svg" xmlns:xlink="http://www.w3.org/1999/xlink" width="94" height="95" viewBox="0 0 94 95"><defs><clipPath id="a"><rect width="29" height="62.807" fill="none"/></clipPath><clipPath id="c"><rect width="13.244" height="18.88" fill="none"/></clipPath></defs><g transform="translate(-753 -3334.863)"><g transform="translate(753 3334.863)" fill="#fff" stroke="#387db8" stroke-width="6"><ellipse cx="47" cy="47.5" rx="47" ry="47.5" stroke="none"/><ellipse cx="47" cy="47.5" rx="44" ry="44.5" fill="none"/></g><g transform="translate(786 3350.863)"><g clip-path="url(#a)"><g clip-path="url(#a)"><path d="M3.386,28.743c-.871,3.594.33,7.237,2.161,10.136.987,1.562,1.51,2.82,2.881,3.8V60.423A2.082,2.082,0,0,0,10.51,62.5h9.079a2.082,2.082,0,0,0,2.082-2.082V45.12a7.478,7.478,0,0,0,5.255-3.45,22.561,22.561,0,0,0,3.548-9.561,5.416,5.416,0,0,0-2.276-5.5c-.112-.439-.23-20.972-.559-22.281-.275-1.093-.874-2.384-2.1-2.634-1.926-.394-3.177,1.792-3.566,3.338a22.179,22.179,0,0,0-.322,6.256,59.716,59.716,0,0,0,.69,6.6c.049.33.174.723-.1.99a1.1,1.1,0,0,1-.836.241c-.756-.054-.9-1.061-1.053-1.646a25.767,25.767,0,0,1-.613-3.467c-.371-2.956-.526-5.933-.727-8.9-.139-2.047-1.083-5.24-3.777-4.968C13.448.32,12.956,2.75,12.883,4.279a23.4,23.4,0,0,0,.554,4.734q.395,2.49.789,4.981c.207,1.319.585,3.882.755,5.206" transform="translate(-1.927 -0.076)" fill="#fad3bc"/><path d="M8.439,69.71c1.993-.922,1.391-3.484.878-5.126-.082-.264-.157-.532-.235-.8-.531-1.833-1.068-3.665-1.7-5.465a2.762,2.762,0,0,0-2.7-1.84,3.647,3.647,0,0,0-3.481,4.8,32.74,32.74,0,0,0,2.336,5.191,10.3,10.3,0,0,0,2.3,2.843,2.4,2.4,0,0,0,2.61.389" transform="translate(-0.623 -35.151)" fill="#fad3bc"/><path d="M17.919,55.469A23.166,23.166,0,0,0,20.713,59.7a3.11,3.11,0,0,0,3.363.267c2.225-1.029,1.553-3.888.98-5.721-.092-.295-.176-.594-.262-.891-.594-2.045-1.192-4.091-1.9-6.1A3.083,3.083,0,0,0,19.875,45.2a4.229,4.229,0,0,0-4.011,4.935" transform="translate(-9.838 -28.132)" fill="#fad3bc"/><path d="M51,70.766a5.544,5.544,0,0,0-2.33-5.633,5.251,5.251,0,0,0-1.018-.512c-2.673-.993-5.485-1.611-8.239-2.384a3.424,3.424,0,0,0-.717-.082,2.292,2.292,0,0,0-2.34,1.226c-.775,1.769.183,3.453,1.7,4.426,1.8,1.156,4.178,1.3,6.233,1.678.278.051.556.1.833.156" transform="translate(-22.455 -38.678)" fill="#fad3bc"/><path d="M36.981,90.637c-.031-4.178,3.3-7.607,8.747-8.471" transform="translate(-23.015 -51.135)" fill="#fad3bc"/><g transform="translate(6.501 43.299)" opacity="0.5"><g clip-path="url(#c)"><path d="M26.239,116.2a14.783,14.783,0,0,0,4.128.45l.09,14.8a2.082,2.082,0,0,1-2.082,2.082H19.3a2.082,2.082,0,0,1-2.082-2.082l.108-16.8c1.634,1.17,3.45.528,5.71.573,1.738.035,1.6.355,3.207.976" transform="translate(-17.214 -114.652)" fill="#eeaf8d"/></g></g><path d="M6.625,68.223a40.261,40.261,0,0,1-2.9-5.595,3.647,3.647,0,0,1,2.914-4.762c-.412-1.088-.829-1.361-2.111-1.377a3.647,3.647,0,0,0-3.481,4.8,32.74,32.74,0,0,0,2.336,5.191,10.3,10.3,0,0,0,2.3,2.843,2.434,2.434,0,0,0,2.084.559,10.645,10.645,0,0,1-1.139-1.664" transform="translate(-0.53 -35.156)" fill="#efb090"/><path d="M21.267,57.051l-2.352-4.975a4.353,4.353,0,0,1,.832-4.57,3.915,3.915,0,0,1,2.318-1.2c-.529-1-.91-1.083-2.19-1.1a4.229,4.229,0,0,0-4.011,4.935l2.055,5.33A23.181,23.181,0,0,0,20.713,59.7a2.752,2.752,0,0,0,2.5.546,34.213,34.213,0,0,1-1.952-3.2" transform="translate(-9.838 -28.132)" fill="#efb090"/><path d="M52.02,20.042c.121.453.322,1.473.872,1.63a4.522,4.522,0,0,0,.527.005.673.673,0,0,0,.654-.778c-.357-2.338-.577-8.774-.064-10.815.372-1.479,1.534-3.538,3.32-3.37a3.039,3.039,0,0,0-2.02-2.361c-1.926-.394-3.177,1.792-3.566,3.338a22.179,22.179,0,0,0-.322,6.256" transform="translate(-31.959 -2.681)" fill="#efb090"/><path d="M30.824,19.715c-.169-1.325-.547-3.887-.755-5.206q-.391-2.491-.789-4.982a23.427,23.427,0,0,1-.554-4.734c.073-1.529.565-3.96,2.359-4.141,1.7-.171,2.7,1.033,3.243,2.458a2.818,2.818,0,0,0-.977-.066c-1.794.182-2.286,2.612-2.359,4.141a23.427,23.427,0,0,0,.554,4.734q.4,2.49.789,4.981c.207,1.319,1.034,5.959,1.2,7.284l-.939.5Z" transform="translate(-17.872 -0.396)" fill="#efb090"/><path d="M26.4,109.3a4.129,4.129,0,0,0,.1-.442c.011-.062.016-.1.016-.1v0c.017-.115.021-.183.021-.183l-.4.428c-4.219,3.7-8.509.913-8.123.918a13.67,13.67,0,0,0,.011,1.887v8.307C24.366,115.034,26,110.76,26.4,109.3" transform="translate(-11.182 -67.57)" fill="#efb090"/><path d="M45.175,118.84a7.226,7.226,0,0,1-4.164-.106s1.9,2.119,4.164,1.562Z" transform="translate(-25.523 -73.893)" fill="#efb090"/><path d="M8.439,69.71c1.993-.922,1.391-3.484.878-5.126-.082-.264-.157-.532-.235-.8-.531-1.833-1.068-3.665-1.7-5.465a2.762,2.762,0,0,0-2.7-1.84,3.647,3.647,0,0,0-3.481,4.8,32.74,32.74,0,0,0,2.336,5.191,10.3,10.3,0,0,0,2.3,2.843A2.4,2.4,0,0,0,8.439,69.71Z" transform="translate(-0.623 -35.151)" fill="none" stroke="#68100c" stroke-linecap="round" stroke-linejoin="round" stroke-width="2"/><path d="M24.4,52.021c-.47-1.6-.957-3.192-1.513-4.763A3.083,3.083,0,0,0,19.875,45.2a4.229,4.229,0,0,0-4.011,4.935m2.055,5.33A23.166,23.166,0,0,0,20.713,59.7a3.11,3.11,0,0,0,3.363.267,2.688,2.688,0,0,0,1.539-2.559" transform="translate(-9.838 -28.132)" fill="none" stroke="#68100c" stroke-linecap="round" stroke-linejoin="round" stroke-width="2"/><path d="M51.235,70.145c.019-.181-.333-.391-.33-.575a5.355,5.355,0,0,0-.54-2.518v0a4.761,4.761,0,0,0-1.69-1.906,4.885,4.885,0,0,0-.945-.476c-1.875-.7-3.86-1.218-5.78-1.722-.812-.213-1.623-.426-2.43-.653a2.5,2.5,0,0,0-.526-.063l-.11-.006a2.218,2.218,0,0,0-1.52.426l-.118-.039-.806,1.2.2,2.687,2.17,1.66c-1.115-1.359-.906-2.338-.475-2.954a1.888,1.888,0,0,1,1.683-.586c1.542.413,3.1.856,4.607,1.415a5.643,5.643,0,0,1,1.09.549,5.517,5.517,0,0,1,1.96,2.208,6.117,6.117,0,0,1,.619,2.871,6.9,6.9,0,0,1-.08.929l-.058.375-.009,0c-.62,3.7-1.374,7.209-3.135,9.76l-.063.09a7.448,7.448,0,0,0,2.724-2.5,23.539,23.539,0,0,0,3.672-9.652Z" transform="translate(-22.677 -38.722)" fill="#efb090"/><path d="M36.405,78.18c-.031-4.178,3.3-7.607,8.747-8.471L45.1,69.64c-1.856-.36-3.739-.622-5.556-1.122a6.952,6.952,0,0,1-2.465-1.442,3.2,3.2,0,0,1-.742-3.695,2.293,2.293,0,0,1,2.34-1.227,10.753,10.753,0,0,1,2.1.459c.769.2,1.539.4,2.307.609,1.532.41,3.06.846,4.547,1.4a5.25,5.25,0,0,1,1.017.513,5.544,5.544,0,0,1,2.33,5.633" transform="translate(-22.439 -38.678)" fill="none" stroke="#68100c" stroke-linecap="round" stroke-linejoin="round" stroke-width="2"/><path d="M30.457,115.252v15.3a2.083,2.083,0,0,1-2.082,2.082H19.3a2.083,2.083,0,0,1-2.082-2.082V112.812" transform="translate(-10.712 -70.208)" fill="none" stroke="#68100c" stroke-linecap="round" stroke-linejoin="round" stroke-width="2"/><path d="M8.858,89.846c-1.371-.981-5.445-6.136-5.042-13.937" transform="translate(-2.357 -47.241)" fill="none" stroke="#68100c" stroke-linecap="round" stroke-linejoin="round" stroke-width="2"/><path d="M58.812,70.156A5.472,5.472,0,0,1,61.083,75.7a22.558,22.558,0,0,1-3.547,9.561A7.479,7.479,0,0,1,52.281,88.7" transform="translate(-32.537 -43.661)" fill="none" stroke="#68100c" stroke-linecap="round" stroke-linejoin="round" stroke-width="2"/><path d="M31.106,19.748c-.169-1.325-.547-3.887-.755-5.206q-.391-2.491-.789-4.982a31.659,31.659,0,0,1-.554-4.734c-.01-1.6-.01-3.584,2.424-3.81,2.695-.251,3.573,2.59,3.712,4.637.2,2.971.355,5.949.727,8.9a25.837,25.837,0,0,0,.613,3.467c.121.452.5,1.488,1.053,1.646a3.029,3.029,0,0,0,.346-.01c.41-.006.568-.343.506-.748a62.558,62.558,0,0,1-.609-7.078A28.494,28.494,0,0,1,38.1,5.578c.3-1.615,1.088-3.427,3.423-3.073a2.932,2.932,0,0,1,2.238,2.368c.33,1.309.15,19.877.5,22.2" transform="translate(-18.053 -0.622)" fill="none" stroke="#68100c" stroke-linecap="round" stroke-linejoin="round" stroke-width="2"/></g></g></g></g></svg>