<svg xmlns="http://www.w3.org/2000/svg" xmlns:xlink="http://www.w3.org/1999/xlink" width="94" height="95" viewBox="0 0 94 95"><defs><clipPath id="a"><rect width="26.667" height="62.104" fill="none"/></clipPath><clipPath id="c"><rect width="12.953" height="18.466" fill="none"/></clipPath></defs><g transform="translate(-1173 -3333.863)"><g transform="translate(1173 3333.863)" fill="#fff" stroke="#387db8" stroke-width="6"><ellipse cx="47" cy="47.5" rx="47" ry="47.5" stroke="none"/><ellipse cx="47" cy="47.5" rx="44" ry="44.5" fill="none"/></g><g transform="translate(1208.333 3350.863)"><g clip-path="url(#a)"><g clip-path="url(#a)"><path d="M4.213,27.369c-1.157,4.772-.99,9.891,1.848,14.067,1.073,1.579.833,3.071.833,4.919V59.775A2.037,2.037,0,0,0,8.93,61.812h8.88a2.037,2.037,0,0,0,2.037-2.037V44.808a7.314,7.314,0,0,0,5.139-3.374,22.064,22.064,0,0,0,3.47-9.351,5.525,5.525,0,0,0-2.3-5.5c-.06-.235-.1-.431-.155-.624a4.809,4.809,0,0,0-.16-.5c-.346-2.277.169-18.169-.153-19.449-.269-1.069-.855-2.331-2.049-2.576-1.883-.386-3.108,1.753-3.488,3.265a14.6,14.6,0,0,0-.315,5.011,67.137,67.137,0,0,0,.416,7.264c.061.4.085.385-.316.391a4.415,4.415,0,0,1-.515-.005c-.538-.154,0-1.152-.114-1.595a25.222,25.222,0,0,1-.6-3.391C18.339,11.489,17.775,7.9,17.578,5c-.136-2-1.06-5.125-3.694-4.859-1.755.177-2.236,2.555-2.308,4.05a30.629,30.629,0,0,0,.541,5.369c.258,1.624.708,3.447.963,5.072.2,1.29.794,3.532.96,4.828" transform="translate(-2.233 -0.077)" fill="#fad3bc"/><path d="M43.27,81.637A23.033,23.033,0,0,0,46.862,72.2l-.11-.508c.018-.178-.326-.383-.323-.563a5.236,5.236,0,0,0-.529-2.463v0A4.657,4.657,0,0,0,44.245,66.8a4.788,4.788,0,0,0-.924-.466c-1.834-.681-3.776-1.191-5.654-1.684-.793-.208-1.587-.417-2.376-.638a2.475,2.475,0,0,0-.515-.061l-.108-.006a1.875,1.875,0,0,0-1.928.979,2.861,2.861,0,0,0-.168.512c.661.182,1.326.356,1.99.531,1.9.5,3.858,1.013,5.727,1.707a5.552,5.552,0,0,1,1.066.537,5.392,5.392,0,0,1,1.916,2.16,5.981,5.981,0,0,1,.606,2.807,6.815,6.815,0,0,1-.078.909l-.057.366h-.01c-.606,3.616-1.344,7.051-3.066,9.546l-.061.088a7.287,7.287,0,0,0,2.664-2.444" transform="translate(-20.54 -40.319)" fill="#efb090"/><path d="M14.4,28.379c-.945-4.281-1.3-6.768-2.3-11.431a6.973,6.973,0,0,0-1.22-2.587,3,3,0,0,0-3.47-1,2.782,2.782,0,0,0-1.728,2.892A5.2,5.2,0,0,0,5.9,17.762C6.523,19.863,10,32.7,10.489,35" transform="translate(-3.582 -8.302)" fill="#fad3bc"/><path d="M32.384,92.275c-.03-4.087,3.224-7.441,8.556-8.286" transform="translate(-20.421 -52.965)" fill="#fad3bc"/><g transform="translate(4.66 43.024)" opacity="0.5"><g clip-path="url(#c)"><path d="M21.462,117.962a16.118,16.118,0,0,0,4.02.468L25.57,132.9a2.037,2.037,0,0,1-2.037,2.037h-8.88a2.037,2.037,0,0,1-2.037-2.037l.106-16.43c1.6,1.144,3.374.516,5.585.56,1.7.034,1.555.412,3.155.926" transform="translate(-12.616 -116.475)" fill="#eeaf8d"/></g></g><path d="M27.107,19.923c-.165-1.3-.94-4-1.143-5.294C25.708,13,25.259,11.181,25,9.557a30.633,30.633,0,0,1-.541-5.369c.071-1.5.553-3.873,2.308-4.05,1.659-.168,2.639,1.01,3.172,2.4a2.757,2.757,0,0,0-.955-.065c-1.755.177-2.286,1.449-2.357,2.944-.074,1.552,1.774,11.869,2,13.558A.728.728,0,0,1,28,19.8Z" transform="translate(-15.419 -0.077)" fill="#efb090"/><path d="M21.1,111.106a4.04,4.04,0,0,0,.1-.433c.011-.06.016-.095.016-.095v0c.016-.112.02-.179.02-.179l-.393.418c-4.127,3.621-8.644,1.143-8.267,1.147-.115.733.365,1.135.332,1.6v8.125c6.2-4.969,7.8-9.149,8.191-10.578" transform="translate(-7.918 -69.618)" fill="#efb090"/><path d="M40.487,120.6a7.3,7.3,0,0,1-4.073-.141s1.857,2.11,4.073,1.565Z" transform="translate(-22.963 -75.961)" fill="#efb090"/><path d="M4.213,73.886c-1.157,4.772-.99,9.891,1.848,14.067,1.073,1.579.833,3.071.833,4.919v5.755" transform="translate(-2.233 -46.594)" fill="none" stroke="#68100c" stroke-linecap="round" stroke-linejoin="round" stroke-width="2"/><path d="M34.52,66.737a2.171,2.171,0,0,0-.274.169c-.577.408-1.737,1.56-.147,3.5l-2.122-1.624-.2-2.628.788-1.178,1.59.529Z" transform="translate(-20.038 -40.972)" fill="#efb090"/><path d="M45.995,72.295a5.423,5.423,0,0,0-2.279-5.51,5.159,5.159,0,0,0-1-.5c-2.614-.971-5.365-1.576-8.059-2.332a3.346,3.346,0,0,0-.7-.08,2.242,2.242,0,0,0-2.288,1.2,3.128,3.128,0,0,0,.725,3.614c2.195,1.834,5.139,1.983,7.846,2.508l.048.067" transform="translate(-19.798 -40.275)" fill="none" stroke="#68100c" stroke-linecap="round" stroke-linejoin="round" stroke-width="2"/><path d="M32.319,92.169c-.03-4.087,3.224-7.441,8.556-8.286" transform="translate(-20.38 -52.898)" fill="none" stroke="#68100c" stroke-linecap="round" stroke-linejoin="round" stroke-width="2"/><path d="M6.237,19.511c-.266-.863-.536-1.725-.8-2.589a3.463,3.463,0,0,1,.344-3.2A2.871,2.871,0,0,1,8.717,12.4a2.9,2.9,0,0,1,.58.161,3.4,3.4,0,0,0-1.164,1.055A4.038,4.038,0,0,0,7.405,16.8c.475,2.706,3.365,12.175,6.065,23.312a1.718,1.718,0,0,1-.939,1.964" transform="translate(-3.282 -7.791)" fill="#efb090"/><path d="M10.174,15.7c.53-.8,1.552-1.558,3.368-.4l-1.36-1.71-2.251-.551L9,14.228l-.107,1.609.333,1.927.611.041L9.8,17.552a2.6,2.6,0,0,1,.378-1.849" transform="translate(-5.609 -8.225)" fill="#efb090"/><path d="M10.6,34.165c-.2-.668-1.9-6.889-2.26-8.122L5.917,17.827a5.386,5.386,0,0,1-.238-1.544,2.787,2.787,0,0,1,1.729-2.907,3.1,3.1,0,0,1,3.47,1c.949,1.139,2.412,8.31,2.984,11.176q.152.765.3,1.529c.095.481.152,1.583.978,1.172.166-.082.287-.245.24-.6" transform="translate(-3.582 -8.316)" fill="none" stroke="#68100c" stroke-linecap="round" stroke-linejoin="round" stroke-width="2"/><path d="M36.56,68.7s.594-1.178,2.494-.467V67.45l-2.528-.761Z" transform="translate(-23.034 -42.055)" fill="#efb090"/><path d="M8.277,74.764c1.95-.9,1.361-3.408.859-5.013-.081-.258-.154-.52-.229-.781-.52-1.793-1.045-3.585-1.668-5.345a2.7,2.7,0,0,0-2.643-1.8,3.567,3.567,0,0,0-3.4,4.7A32.056,32.056,0,0,0,3.475,71.6a10.073,10.073,0,0,0,2.248,2.78,2.347,2.347,0,0,0,2.553.381" transform="translate(-0.631 -38.988)" fill="#fad3bc"/><path d="M6.648,73.3c-.889-1.625-2.083-3.784-2.838-5.472-1.256-2.811.745-4.348,2.85-4.658-.4-1.065-.811-1.331-2.065-1.347a3.567,3.567,0,0,0-3.4,4.7A32.023,32.023,0,0,0,3.475,71.6a10.078,10.078,0,0,0,2.248,2.78,2.381,2.381,0,0,0,2.039.546A10.437,10.437,0,0,1,6.648,73.3" transform="translate(-0.631 -38.988)" fill="#efb090"/><path d="M8.277,74.764c1.95-.9,1.361-3.408.859-5.013-.081-.258-.154-.52-.229-.781-.52-1.793-1.045-3.585-1.668-5.345a2.7,2.7,0,0,0-2.643-1.8,3.567,3.567,0,0,0-3.4,4.7A32.056,32.056,0,0,0,3.475,71.6a10.073,10.073,0,0,0,2.248,2.78A2.347,2.347,0,0,0,8.277,74.764Z" transform="translate(-0.631 -38.988)" fill="none" stroke="#68100c" stroke-linecap="round" stroke-linejoin="round" stroke-width="2"/><path d="M47.44,18.042a20.659,20.659,0,0,1,.315-5.97c.38-1.476,1.6-3.563,3.488-3.186a2.923,2.923,0,0,1,1.975,2.253c-1.746-.16-2.884,1.8-3.247,3.216-.5,1.948-.408,7.969-.059,10.2a.647.647,0,0,1-.64.742H49.2a2.185,2.185,0,0,1-.274-.015,1.345,1.345,0,0,1-.8-.4l.076-.369" transform="translate(-29.874 -5.575)" fill="#efb090"/><path d="M25.57,119.955v14.968a2.037,2.037,0,0,1-2.037,2.037h-8.88a2.037,2.037,0,0,1-2.037-2.037V119.287" transform="translate(-7.956 -75.224)" fill="none" stroke="#68100c" stroke-linecap="round" stroke-linejoin="round" stroke-width="2"/><path d="M54.072,71.917a5.388,5.388,0,0,1,2.221,5.441,22.06,22.06,0,0,1-3.47,9.351,7.314,7.314,0,0,1-5.14,3.374" transform="translate(-30.07 -45.352)" fill="none" stroke="#68100c" stroke-linecap="round" stroke-linejoin="round" stroke-width="2"/><path d="M27.737,20.01c-.165-1.3-.757-3.537-.96-4.828-.255-1.624-.705-3.448-.963-5.072a29.905,29.905,0,0,1-.525-6.425,2.522,2.522,0,0,1,2.355-2.671c2.636-.245,3.495,2.534,3.63,4.536.2,2.906.76,6.492,1.123,9.383.143,1.136.443,4.845.98,5,.044.013.722.046.624-.733-.289-2.3-.388-4.615-.475-6.929a18.747,18.747,0,0,1,.315-5.011c.291-1.58,1.064-3.352,3.348-3.005a3.082,3.082,0,0,1,2.247,2.661c.372,1.915.035,17.834.381,20.11" transform="translate(-15.928 -0.631)" fill="none" stroke="#68100c" stroke-linecap="round" stroke-linejoin="round" stroke-width="2"/></g></g></g></g></svg>