<svg xmlns="http://www.w3.org/2000/svg" xmlns:xlink="http://www.w3.org/1999/xlink" width="94" height="95" viewBox="0 0 94 95"><defs><clipPath id="a"><rect width="30" height="63.458" fill="none"/></clipPath><clipPath id="c"><rect width="13.699" height="19.53" fill="none"/></clipPath></defs><g transform="translate(-333 -3334.863)"><g transform="translate(333 3334.863)" fill="#fff" stroke="#387db8" stroke-width="6"><ellipse cx="47" cy="47.5" rx="47" ry="47.5" stroke="none"/><ellipse cx="47" cy="47.5" rx="44" ry="44.5" fill="none"/></g><g transform="translate(365 3350.863)"><g clip-path="url(#a)"><g clip-path="url(#a)"><path d="M3.611,28.321c-.9,3.718,2.118,12.761,5.216,14.416V61.091a2.154,2.154,0,0,0,2.154,2.154h9.391a2.154,2.154,0,0,0,2.154-2.154V45.261a7.736,7.736,0,0,0,5.436-3.568,23.332,23.332,0,0,0,3.669-9.89,5.6,5.6,0,0,0-2.354-5.692c-.116-.454-.8-17.541-.673-18.983A12.107,12.107,0,0,0,28.7,3.064C28.414,1.933,27.794.6,26.531.34c-1.992-.408-3.287,1.854-3.689,3.453a22.941,22.941,0,0,0-.333,6.471,64.422,64.422,0,0,0,.783,7.291.7.7,0,0,1-.677.8,4.5,4.5,0,0,1-.545-.005" transform="translate(-2.102 -0.177)" fill="#fad3bc"/><path d="M8.7,66.3c2.062-.954,1.44-3.6.909-5.3-.085-.273-.163-.55-.243-.825-.55-1.9-1.1-3.791-1.763-5.653a2.858,2.858,0,0,0-2.8-1.9,3.773,3.773,0,0,0-3.6,4.97,33.868,33.868,0,0,0,2.416,5.37A10.653,10.653,0,0,0,6,65.894a2.482,2.482,0,0,0,2.7.4" transform="translate(-0.61 -32.059)" fill="#fad3bc"/><path d="M17.992,51.954a23.964,23.964,0,0,0,2.89,4.378,3.217,3.217,0,0,0,3.479.276c2.3-1.065,1.606-4.022,1.014-5.918-.1-.3-.182-.615-.271-.922-.614-2.116-1.233-4.232-1.969-6.309a3.189,3.189,0,0,0-3.12-2.124,4.375,4.375,0,0,0-4.149,5.106" transform="translate(-9.632 -25.187)" fill="#fad3bc"/><path d="M51.5,67.2a5.735,5.735,0,0,0-2.41-5.827,5.456,5.456,0,0,0-1.053-.531c-2.765-1.027-5.674-1.667-8.523-2.466a3.515,3.515,0,0,0-.741-.085,2.371,2.371,0,0,0-2.42,1.268,3.308,3.308,0,0,0,.767,3.822,7.19,7.19,0,0,0,2.551,1.492c1.88.517,3.828.788,5.748,1.16l.05.071" transform="translate(-21.971 -35.514)" fill="#fad3bc"/><path d="M36.981,87.061c-.031-4.322,3.41-7.869,9.049-8.763" transform="translate(-22.534 -47.71)" fill="#fad3bc"/><path d="M39.709,48.5c2.272-.76,1.928-3.609,1.569-5.451-.058-.3-.107-.6-.159-.893-.356-2.051-.717-4.1-1.191-6.129a3.014,3.014,0,0,0-2.708-2.32c-2.646-.328-5.052,1.768-4.187,4.63.6,1.974,1.328,4,2.113,5.913a13.947,13.947,0,0,0,1.735,3.477,2.443,2.443,0,0,0,2.827.774" transform="translate(-20.019 -20.521)" fill="#fad3bc"/><path d="M37.776,45.94c-.733-1.948-1.461-3.9-2.081-5.887a3.013,3.013,0,0,1,1.159-3.373,3.913,3.913,0,0,1,2.919-.767,3.981,3.981,0,0,0-5.822-1.143,3.013,3.013,0,0,0-1.159,3.373c.619,1.988,1.348,3.939,2.08,5.887.107.283.216.566.316.85" transform="translate(-19.896 -20.695)" fill="#efb090"/><g transform="translate(6.725 43.279)" opacity="0.5"><g clip-path="url(#c)"><path d="M26.511,112.339a18.8,18.8,0,0,0,4.309.512l.093,15.309a2.154,2.154,0,0,1-2.154,2.154H19.368a2.154,2.154,0,0,1-2.154-2.154l.112-17.376c1.691,1.211,3.568.546,5.906.593,1.8.036,1.574.456,3.278.963" transform="translate(-17.214 -110.784)" fill="#eeaf8d"/></g></g><path d="M6.824,64.759a41.648,41.648,0,0,1-3-5.788,3.772,3.772,0,0,1,3.014-4.926c-.427-1.126-.858-1.408-2.184-1.424a3.773,3.773,0,0,0-3.6,4.97,33.867,33.867,0,0,0,2.416,5.37A10.653,10.653,0,0,0,5.846,65.9,2.519,2.519,0,0,0,8,66.48a11.021,11.021,0,0,1-1.178-1.721" transform="translate(-0.519 -32.064)" fill="#efb090"/><path d="M21.454,53.591l-2.433-5.146a4.5,4.5,0,0,1,.861-4.727,4.053,4.053,0,0,1,2.4-1.245c-.548-1.031-.941-1.12-2.265-1.137a4.375,4.375,0,0,0-4.149,5.105l2.126,5.513a23.992,23.992,0,0,0,2.89,4.378,2.846,2.846,0,0,0,2.591.565,35.391,35.391,0,0,1-2.019-3.306" transform="translate(-9.632 -25.187)" fill="#efb090"/><path d="M51.423,10.413a22.938,22.938,0,0,1,.333-6.471c.4-1.6,1.7-3.862,3.689-3.454a3.492,3.492,0,0,1,2.317,2.492c-1.847-.174-3.278,1.906-3.662,3.436a22.939,22.939,0,0,0-.333,6.471c.092,2.447.307,9.386.677,11.8.064.419-.336-.427-.76-.42a4.771,4.771,0,0,1-.545-.005l-1.312-5.507.558-.542" transform="translate(-31.291 -0.268)" fill="#efb090"/><path d="M26.628,105.456a4.272,4.272,0,0,0,.106-.457c.012-.064.017-.1.017-.1v0c.017-.119.021-.189.021-.189l-.416.442c-4.364,3.83-8.847.99-8.448,1a12.546,12.546,0,0,0,.057,1.907v8.593c6.562-5.255,8.253-9.676,8.662-11.187" transform="translate(-10.889 -63.802)" fill="#efb090"/><path d="M45.319,114.914a7.716,7.716,0,0,1-4.308-.149s1.964,2.231,4.308,1.655Z" transform="translate(-24.99 -69.931)" fill="#efb090"/><path d="M51.744,66.551c.02-.188-.345-.405-.341-.595a5.54,5.54,0,0,0-.56-2.607,4.926,4.926,0,0,0-1.749-1.972,5.075,5.075,0,0,0-.977-.493c-1.939-.72-3.993-1.259-5.979-1.781-.84-.22-1.679-.441-2.513-.675a2.589,2.589,0,0,0-.544-.065l-.114-.006a2.291,2.291,0,0,0-1.572.44l-.122-.041L36.438,60l.212,2.779L38.894,64.5a3.326,3.326,0,0,1-.846-1.822,1.935,1.935,0,0,1,.358-1.242,1.453,1.453,0,0,1,.938-.7,2.005,2.005,0,0,1,.661.064,42.464,42.464,0,0,1,4.211,1.3,19.982,19.982,0,0,1,2.608,1.2c.731.407,1.811.9,2.2,1.682a6.322,6.322,0,0,1,.641,2.969A19.1,19.1,0,0,1,48.5,73.313a23.539,23.539,0,0,1-2.106,4.563c-.341.575-.7,1.142-1.084,1.688l-.065.093a7.7,7.7,0,0,0,2.817-2.585,24.352,24.352,0,0,0,3.8-9.984Z" transform="translate(-22.203 -35.556)" fill="#efb090"/><path d="M30.913,111.469V127.3a2.154,2.154,0,0,1-2.154,2.154H19.367a2.154,2.154,0,0,1-2.154-2.154V108.945" transform="translate(-10.489 -66.385)" fill="none" stroke="#68100c" stroke-linecap="round" stroke-linejoin="round" stroke-width="2"/><path d="M9.074,86.457c-1.418-1.015-5.329-4.844-5.216-14.416" transform="translate(-2.349 -43.898)" fill="none" stroke="#68100c" stroke-linecap="round" stroke-linejoin="round" stroke-width="2"/><path d="M52.2,45.693a7.737,7.737,0,0,0,5.436-3.568,23.334,23.334,0,0,0,3.669-9.89,5.615,5.615,0,0,0-2.322-5.712c-.116-.455-.269-21.674-.61-23.028a3.034,3.034,0,0,0-2.315-2.45C53.637.679,52.82,2.554,52.512,4.225a29.474,29.474,0,0,0-.333,6.471,64.505,64.505,0,0,0,.782,7.29s.071,1.029-.786.475" transform="translate(-31.771 -0.609)" fill="none" stroke="#68100c" stroke-linecap="round" stroke-linejoin="round" stroke-width="2"/><path d="M8.7,66.3c2.062-.954,1.44-3.6.909-5.3-.085-.273-.163-.55-.243-.825-.55-1.9-1.1-3.791-1.763-5.653a2.858,2.858,0,0,0-2.8-1.9,3.773,3.773,0,0,0-3.6,4.97,33.868,33.868,0,0,0,2.416,5.37A10.653,10.653,0,0,0,6,65.894,2.482,2.482,0,0,0,8.7,66.3Z" transform="translate(-0.61 -32.059)" fill="none" stroke="#68100c" stroke-linecap="round" stroke-linejoin="round" stroke-width="2"/><path d="M24.7,48.387c-.486-1.654-.99-3.3-1.565-4.927a3.189,3.189,0,0,0-3.12-2.124,4.375,4.375,0,0,0-4.149,5.106m2.126,5.513a23.964,23.964,0,0,0,2.89,4.378,3.217,3.217,0,0,0,3.479.276,2.78,2.78,0,0,0,1.592-2.647" transform="translate(-9.632 -25.187)" fill="none" stroke="#68100c" stroke-linecap="round" stroke-linejoin="round" stroke-width="2"/><path d="M51.5,67.2a5.735,5.735,0,0,0-2.41-5.827,5.456,5.456,0,0,0-1.053-.531c-2.765-1.027-5.674-1.667-8.523-2.466a3.515,3.515,0,0,0-.741-.085,2.371,2.371,0,0,0-2.42,1.268,3.308,3.308,0,0,0,.767,3.822,7.19,7.19,0,0,0,2.551,1.492c1.88.517,3.828.788,5.748,1.16l.05.071" transform="translate(-21.971 -35.514)" fill="none" stroke="#68100c" stroke-linecap="round" stroke-linejoin="round" stroke-width="2"/><path d="M36.981,87.061c-.031-4.322,3.41-7.869,9.049-8.763" transform="translate(-22.534 -47.71)" fill="none" stroke="#68100c" stroke-linecap="round" stroke-linejoin="round" stroke-width="2"/><path d="M41.482,44.348a12.264,12.264,0,0,0-.2-1.295c-.058-.3-.107-.6-.159-.893-.356-2.051-.717-4.1-1.191-6.129a3.014,3.014,0,0,0-2.708-2.32c-2.421-.3-4.641,1.429-4.338,3.918" transform="translate(-20.02 -20.52)" fill="none" stroke="#68100c" stroke-linecap="round" stroke-linejoin="round" stroke-width="2"/></g></g></g></g></svg>