<svg xmlns="http://www.w3.org/2000/svg" xmlns:xlink="http://www.w3.org/1999/xlink" width="341.5" height="311.809" viewBox="0 0 341.5 311.809"><defs><filter id="a" x="-25.5" y="-3.5" width="366.88" height="315.309" filterUnits="userSpaceOnUse"><feOffset dy="22" input="SourceAlpha"/><feGaussianBlur stdDeviation="8.5" result="b"/><feFlood flood-opacity="0.161"/><feComposite operator="in" in2="b"/><feComposite in="SourceGraphic"/></filter><filter id="c" x="2.784" y="65.639" width="338.716" height="246.17" filterUnits="userSpaceOnUse"><feOffset dy="22" input="SourceAlpha"/><feGaussianBlur stdDeviation="8.5" result="d"/><feFlood flood-opacity="0.161"/><feComposite operator="in" in2="d"/><feComposite in="SourceGraphic"/></filter><clipPath id="e"><g transform="matrix(1, 0, 0, 1, 0, 0)" filter="url(#a)"><path d="M28.164,166.723a67.979,67.979,0,0,1,3.158-20.433L0,120.938,44.864,39.012l44.864,9.754,15.605,9.753L156.05,0h48.765l39.013,39.012V82.145c43.067,16.861,72.052,48.424,72.052,84.578,0,53.895-64.407,97.585-143.858,97.585S28.164,220.618,28.164,166.723Z" transform="translate(0 0)" fill="#387db8"/></g></clipPath><clipPath id="f"><rect width="261.623" height="258.457" fill="none"/></clipPath><clipPath id="h"><rect width="33.59" height="118.678" fill="none"/></clipPath></defs><g transform="translate(-474 -2116.863)"><g transform="matrix(1, 0, 0, 1, 474, 2116.86)" filter="url(#c)"><ellipse cx="143.858" cy="97.585" rx="143.858" ry="97.585" transform="translate(28.28 69.14)" fill="#387db8"/></g><g transform="translate(474 2116.863)" clip-path="url(#e)"><g transform="translate(28.164 13.654)"><g clip-path="url(#f)"><g clip-path="url(#f)"><path d="M102.353,68.7c34.1,13.455,82.424,61.787,86.1,69.625,3.732,7.966,2.211,12.825-3.388,13.943-7.312,1.461-67.609-48.511-75.576-50.463-8.143-2-7.132-33.105-7.132-33.105" transform="translate(67.373 45.24)" fill="#976eb7"/><path d="M181.169,144.165c-3.408-7.276-45.285-49.42-78.546-66.2.741,8.161,2.513,16.723,6.659,17.738,7.251,1.776,57.828,43.312,72.378,49.669-.168-.406-.292-.786-.491-1.209" transform="translate(67.577 51.342)" fill="#7f5aa3"/><path d="M138.378,137.292c-2.647-16.958,7.165-27.7,16.879-30.405,0,0,17.479-.547,15.354,15.817-1.7,13.114-32.233,14.588-32.233,14.588" transform="translate(90.833 70.383)" fill="#efedcb"/><path d="M162.733,114.367c-4.589,2.445-41.661,51.027-50.087,69.116l.952.493s68.917-58.459,68.833-64.806c-.086-6.326-15.066-7.273-19.7-4.8" transform="translate(74.177 74.481)" fill="#edb984"/><path d="M116.512,181.49a204.151,204.151,0,0,1,23.333-34.671C151.667,132.4,163.938,120.7,174.2,113.457c-4.314-.7-9.168-.318-11.47.909-4.586,2.445-41.66,51.027-50.085,69.116l.952.493s1.061-.9,2.914-2.484" transform="translate(74.177 74.482)" fill="#e79b69"/><path d="M49.907,97c31.176,30.292,89.549,27.639,120.948,6.634,0,0-1.77-65.449-22.554-84.021S108.462-.648,105.848.156C82.853,7.233,47.474,66.71,49.907,97" transform="translate(32.785 0)" fill="#7d4230"/><path d="M109.038,67.3C78.68,83.972,37.554,145.331,34.9,154.285s-3.98,13.93,3.317,13.93,58.372-60.694,65.006-63.348S109.038,67.3,109.038,67.3" transform="translate(21.591 44.318)" fill="#976eb7"/><path d="M38.408,157.078c-.448,1.481-.852,2.843-1.191,4.1,11.842-6.352,57.43-57.951,63.7-60.193,3.916-1.4,5.257-13.93,5.7-24.091C76.933,96.668,40.9,148.852,38.408,157.078" transform="translate(24.507 50.635)" fill="#7f5aa3"/><path d="M69.2,190.928h72.944l-10.923-88.444-50.319.443Z" transform="translate(45.567 67.485)" fill="#976eb7"/><path d="M105.3,139.059c18.855,0,34.158,23.124,34.561,51.869h2.28l-10.921-88.444-50.32.443-11.7,88h1.541c.4-28.745,15.706-51.869,34.561-51.869" transform="translate(45.567 67.485)" fill="#7f5aa3"/><path d="M85.188,68.571C74.78,97.39,65.509,141.538,67.277,145.96s79.6,2.211,81.369-1.327S130.294,75.646,127.64,71.224s-41.169-6.206-42.453-2.654" transform="translate(44.159 43.91)" fill="#976eb7"/><path d="M135.351,80.785c5.335,21.511,11.59,50.5,10.535,52.838-1.635,3.621-73.322,5.856-75.276,1.333-1.448-3.353,2.607-29.445,8.588-54.73-7.921,26.085-14.517,54.681-13.132,58.142,1.768,4.422,84.021,2.211,85.791-1.327,1.217-2.436-9.1-34.857-16.505-56.256" transform="translate(43.382 52.829)" fill="#7f5aa3"/><path d="M146.919,81.706a130.442,130.442,0,0,0-20.181-11.037c-5.259-3.934-39.311-5.438-41.763-2.284A101.641,101.641,0,0,0,67.583,81.794c9.487,4.417,23.682,7.228,39.567,7.228,15.993,0,30.282-2.846,39.769-7.316" transform="translate(44.503 43.911)" fill="#7f5aa3"/><path d="M79.522,67.389c4.835,27.3,18.686,43.413,18.686,43.413s12.362-20.613,16.61-41.723c-9.026-2.28-28.344-3.121-35.3-1.69" transform="translate(52.365 43.911)" fill="#dfccf2"/><path d="M37.206,108.883c15.92,6.412,20.121,20.343,17.467,30.072,0,0-8.482,15.291-21.448,5.085-10.392-8.181,3.98-35.157,3.98-35.157" transform="translate(19.395 71.699)" fill="#efedcb"/><g transform="translate(40.786 93.754)" opacity="0.8"><g clip-path="url(#h)"><path d="M34.243,57.219C47.9,60.758,53.1,62.937,52.622,64.07c-1.184,2.8-18.343-2.688-18.343-2.688-1.692.146-1.728-4.017-.036-4.163" transform="translate(-19.061 -56.075)" fill="#e79b69"/><path d="M51.971,154.858c.907-4.717-13.238-65.7-22.733-84.25l-2.649,2.634s5.075,87.866,9.936,91.766,14.538-5.433,15.446-10.15" transform="translate(-23.277 -47.259)" fill="#edb984"/><path d="M49.663,129.2a4.047,4.047,0,0,1-3.075,2.378c-5.405.388-12.815-13.943-18.215-33.963,1.9,23.153,4.465,47.6,6.977,49.614,4.856,3.9,14.538-5.433,15.446-10.15.171-.894-.26-3.74-1.133-7.88" transform="translate(-22.103 -29.477)" fill="#e79b69"/><path d="M28,86.379c-5.722-12.91-3.052-19.593-.531-24.143,1.635-2.952,8.181-5.762,11.785-5.053,1.949.383,3.468,2.383,1.911,4.606-3.329,4.752-2.98,7.71-1.463,10.638C43.325,79.412,29.1,88.859,28,86.379" transform="translate(-24.592 -56.172)" fill="#e79b69"/><path d="M33.924,73.3a8.925,8.925,0,0,0-9.331-6.818c0,3.614.894,8.08,3.4,13.747.355.8,2.081.347,4.13-.854,2.466-1.456,2.1-4.932,1.8-6.075" transform="translate(-24.592 -50.019)" fill="#edb984"/><path d="M33.759,57.143c3.3-.376,18.073,5.856,16.562,8.337-.647,1.06-17.718-4.417-17.718-4.417-1.864-1.746-.66-2.937,1.156-3.921" transform="translate(-19.933 -56.136)" fill="#edb984"/><path d="M29.452,82.747c5.717-3.441,11.482-9.774,12.669-12.318s9.472-4.012,10.55-5.529.711-3.312-1.959-3.675-9.82,3.536-16.131,5.533c-7.145,2.262-5.13,15.99-5.13,15.99" transform="translate(-21.565 -53.454)" fill="#edb984"/><path d="M33.471,60.967c1.6-1.342,2.289-3.125,1.544-3.984s-2.642-.466-4.239.876-2.04,2.566-1.3,3.423,2.393,1.027,3.99-.315" transform="translate(-21.605 -56.53)" fill="#e79b69"/><path d="M31.015,61.946c1.6-1.342,2.289-3.125,1.544-3.984s-2.642-.464-4.239.876-2.9,4.952-2.156,5.811,3.254-1.362,4.851-2.7" transform="translate(-23.698 -55.885)" fill="#e79b69"/><path d="M34.655,62.371c.5-3.025-.01-5.626-1.131-5.81s-2.433,2.12-2.929,5.145.191,4.9,1.31,5.088,2.254-1.4,2.75-4.423" transform="translate(-20.747 -56.515)" fill="#edb984"/><path d="M31.94,63.475c.5-3.025-.01-5.626-1.133-5.81s-2.431,2.12-2.927,5.143-.121,4.778,1,4.962,2.564-1.27,3.062-4.3" transform="translate(-22.569 -55.789)" fill="#edb984"/></g></g><path d="M60.832,146.168C59.9,141.455,23.912,90.239,8.148,76.6L6.682,80.039s37.673,79.541,43.642,81.333,11.437-10.492,10.508-15.2" transform="translate(4.4 50.443)" fill="#edb984"/><path d="M114.6,69.029q-.664-.164-1.4-.317c-.232-.05-.476-.095-.716-.143-.342-.066-.688-.131-1.047-.194-.255-.045-.511-.091-.775-.134-.542-.09-1.1-.176-1.668-.259-.25-.036-.511-.07-.768-.1-.435-.058-.874-.116-1.323-.171-.284-.035-.569-.07-.857-.1-.516-.06-1.04-.114-1.569-.169-.274-.028-.547-.055-.824-.081q-.881-.085-1.775-.158c-.275-.023-.551-.045-.828-.066q-.811-.062-1.629-.116l-.624-.041q-1.075-.067-2.148-.118c-.236-.012-.471-.02-.7-.032-.564-.023-1.126-.045-1.683-.063-.2-.007-.41-.015-.612-.02-.723-.022-1.441-.036-2.148-.045-.161,0-.318,0-.478,0q-.868-.007-1.712,0c-.191,0-.381,0-.571,0-.68.007-1.348.017-1.992.035l-.24.01q-.863.027-1.668.07l-.476.027c-.564.035-1.108.073-1.622.118l-.1.008c-.532.048-1.025.106-1.5.168-.133.017-.259.035-.386.053q-.555.082-1.038.174c-.068.013-.141.025-.206.04A105.588,105.588,0,0,0,85.492,88.26a127.715,127.715,0,0,0,13.8.761c3.282,0,6.468-.148,9.581-.376a118.189,118.189,0,0,0,5.947-19.559c-.071-.018-.138-.038-.212-.056" transform="translate(52.366 43.912)" fill="#cab5e2"/><path d="M101.451,44.49H82.657l1.6,36.782c.512,8.341,19.99,8.865,19.479.524Z" transform="translate(54.429 29.297)" fill="#d27558"/><path d="M73.991,33.422c0,31.84,6.964,49.781,25.98,59.81,17.91-7.377,25.869-26.7,24.587-64.24-.667-19.545-50.568-9.888-50.568,4.43" transform="translate(48.723 11.842)" fill="#edb984"/><path d="M110.3,17.309c2.6,13.835-30.6,24.506-35.168,53.858,0,0-16.965-27.208-2.874-45.333,15.855-20.395,35.8-20.469,38.043-8.525" transform="translate(43.897 6.076)" fill="#7d4230"/><path d="M75.507,42.894c-1.413-3.635-3.786-5.84-5.3-4.922s-1.6,4.607-.182,8.243,3.786,5.84,5.3,4.924,1.6-4.609.182-8.244" transform="translate(45.446 24.867)" fill="#edb984"/><path d="M111.531,45.523c1.433-3.629,1.189-6.858-.546-7.213s-4.3,2.3-5.733,5.924-1.189,6.858.546,7.214,4.3-2.3,5.733-5.926" transform="translate(68.693 25.206)" fill="#edb984"/><path d="M86.767,40.411c.041-2.937-1.408-5.433-3.242-5.584s-3.38,2.12-3.43,5.078,1.415,5.481,3.266,5.611,3.365-2.159,3.407-5.1" transform="translate(52.741 22.929)" fill="#5a4949"/><path d="M101.512,40.338c0-3.088-1.362-5.7-3.048-5.841s-3.076,2.256-3.085,5.364,1.368,5.748,3.068,5.869,3.065-2.3,3.065-5.392" transform="translate(62.807 22.712)" fill="#5a4949"/><path d="M91.808,33l-10.5-2.37a2.494,2.494,0,0,0-2.95,1.887l-.622,2.662a2.42,2.42,0,0,0,1.828,2.944l10.546,2.249a2.437,2.437,0,0,0,2.843-1.886l.6-2.6A2.379,2.379,0,0,0,91.808,33" transform="translate(51.147 20.128)" fill="#7d4230"/><path d="M101.6,30.761,93.95,33.745a1.9,1.9,0,0,0-.768,2.683l1.05,2.212a2.241,2.241,0,0,0,2.687,1.338l7.661-3.057a1.875,1.875,0,0,0,.718-2.665l-1.055-2.174a2.236,2.236,0,0,0-2.644-1.322" transform="translate(61.197 20.186)" fill="#7d4230"/><path d="M95.038,42.89s-.481-.09-1.192-.174c-.894,2.775-3.161,6.614-6.709,1.219-.07.083-.176.138-.234.231,5.11,9.7,7.876.823,8.135-1.275" transform="translate(57.225 28.128)" fill="#d27558"/><path d="M92.758,54.335c0-1.649-.94-2.985-2.1-2.985s-2.1,1.337-2.1,2.985.94,2.985,2.1,2.985,2.1-1.337,2.1-2.985" transform="translate(58.314 33.814)" fill="#5a4949"/><path d="M49.456,122.852a4.049,4.049,0,0,1-1.959,3.358c-4.863,2.387-17.111-8.115-29.626-24.647,10.445,20.749,22,42.446,25.081,43.371,5.964,1.791,11.439-10.492,10.51-15.2-.177-.894-1.644-3.37-4.007-6.879" transform="translate(11.769 66.88)" fill="#e79b69"/><path d="M13.072,91.7C1.784,83.931.515,77.453.225,72.736s11.251-13.3,10.9-6.332c-.262,5.229,1.541,7.43,4.281,9.1,6.536,3.974-.169,17.691-2.337,16.2" transform="translate(0.145 41.997)" fill="#e79b69"/><path d="M2.133,75.383A35.259,35.259,0,0,0,11.814,84.6c1.09.75,3.325-2.348,4.45-6.118a14.566,14.566,0,0,0-4.169-2.73,12.98,12.98,0,0,0-9.961-.368" transform="translate(1.405 49.097)" fill="#edb984"/><path d="M2.073,75.1c3.859-16,6-22.488,7.171-22.63s-3.2,21.551-3.2,21.551C4.5,76.332,3.126,77.177,2.073,75.1" transform="translate(1.365 34.553)" fill="#edb984"/><path d="M4.37,74.017c3.859-16,6.022-21.322,7.2-21.466S8.37,74.1,8.37,74.1c.083,2-3.917,1.914-4-.086" transform="translate(2.878 34.604)" fill="#edb984"/><path d="M12.433,90.787c2.877-5.229,4.305-12.78,3.964-15.321s5.636-7.322,5.732-9S21,63.523,18.646,64.4,12.481,71.5,8.381,75.835c-4.645,4.917,4.052,14.951,4.052,14.951" transform="translate(4.62 42.218)" fill="#edb984"/><rect width="2.654" height="31.065" transform="translate(27.194 54.495)" fill="#7f5aa3"/><path d="M20.443,58.009,12.1,49.665l1.877-1.876,6.468,6.468,6.8-6.8,1.876,1.876Z" transform="translate(7.966 31.251)" fill="#7f5aa3"/><path d="M13.974,41.845,12.1,39.969l8.676-8.676,8.347,8.344-1.877,1.876-6.47-6.468Z" transform="translate(7.967 20.607)" fill="#7f5aa3"/><path d="M6.181,68.4c-1.153-2.622-2.9-4.468-3.907-4.125s-.887,2.745.265,5.367,2.9,4.468,3.907,4.125.887-2.745-.265-5.367" transform="translate(1.047 42.298)" fill="#edb984"/><path d="M4.591,70.533c-1.153-2.62-2.9-4.468-3.907-4.125S-.2,69.153.948,71.775s2.9,4.468,3.907,4.125.887-2.745-.265-5.367" transform="translate(0 43.703)" fill="#edb984"/></g></g></g></g></g></svg>