<svg xmlns="http://www.w3.org/2000/svg" xmlns:xlink="http://www.w3.org/1999/xlink" width="146.5" height="146.501" viewBox="0 0 146.5 146.501"><defs><clipPath id="a"><rect width="146.5" height="146.501" fill="none"/></clipPath><clipPath id="b"><rect width="146.501" height="146.501" fill="none"/></clipPath><clipPath id="c"><rect width="136.898" height="128.804" fill="none"/></clipPath></defs><g transform="translate(-915 -3053)"><g transform="translate(915 3053)"><g clip-path="url(#a)"><g transform="translate(0 0)"><g clip-path="url(#b)"><path d="M146.5,73.249A73.25,73.25,0,1,1,73.25,0,73.252,73.252,0,0,1,146.5,73.249" transform="translate(0 0)" fill="#387db8"/><g transform="translate(8.845 17.697)" style="mix-blend-mode:multiply;isolation:isolate"><g clip-path="url(#c)"><path d="M115.249,122.063h.2a73.158,73.158,0,0,0,26.288-46.354c-6.91-6.954-17.108-17.115-17.4-17.274a2.909,2.909,0,0,0-1.076-1.076,2.605,2.605,0,0,0-1.961-1.341c-.035-.026-.075-.046-.11-.069a4,4,0,0,0-1.073-1.075,4.019,4.019,0,0,0-1.076-1.076,5.308,5.308,0,0,0-3.087-1.99c-.027-.031-.053-.08-.08-.108-.283-.285-38.2-38.174-38.487-38.417A2.721,2.721,0,0,0,77.174,13c-4.187-4.238-9.125-3.454-11.881-2.782a9.955,9.955,0,0,0-6.636,6.616,13.157,13.157,0,0,0-.077,6.058A.746.746,0,0,0,57.9,22.7c-.581.2-.654,1.51-.161,2.922a3.947,3.947,0,0,0,1.524,1.963,3.655,3.655,0,0,0,1.075,1.075c.062.1.133.166.2.254A17.015,17.015,0,0,0,62.6,32.394v2.018l-.415-.239a2.809,2.809,0,0,1-.98,1.983L58.887,38.1l-.419.227-1.69.428s-5.879.927-6.963,2.531c-1.943,1.243-2.083,16.678-1.7,16.737.049.009,3.143,2.964,3.184,3.109L48.424,62.7l1.173.327-4.07,5.117c-.122-.119-.245-.238-.371-.349-.349-.387-11.451-11.5-11.819-11.821a12.816,12.816,0,0,0-1.108-1.1,9.2,9.2,0,0,0-8.259-3.312c-4.454.612-6.979,2.246-7.745,4.812-2.072.541-3.363,2.4-3.359,6.428a9.321,9.321,0,0,0-1.442,6.336c.016.155.031.309.055.47s.02.309.053.47c.009-.011.018-.013.027-.024.02.111.035.221.058.333a10.488,10.488,0,0,0,.57,1.829c.093.9,1.142,11.7-1.935,15.759-2.383,1.65-4.49,3.286-5.075,6.515l-.34,4.368,34.119,33.07a73.206,73.206,0,0,0,76.423-9.808Zm-8.142-8.4-.457-.194h.473Zm1.076,1.075-.459-.194h.473Zm1.023,1.674-.424-.179.455-.19Zm.051-.6-.453-.192h.47Zm1.023,1.676-.426-.179.457-.194Zm.051-.6-.455-.19h.472Zm1.023,1.676-.422-.177.455-.192Zm.051-.6-.453-.19h.47Zm1.023,1.676-.424-.177.457-.194Zm.051-.6-.453-.19h.47Zm1.023,1.676-.422-.177.453-.192Zm.051-.6-.457-.192h.473Zm1.025,1.676-.424-.181.455-.19Zm.051-.6-.459-.192h.475Z" transform="translate(-4.84 -9.684)" fill="#ccc"/></g></g><path d="M68.195,57.146l-5.757-2.425.472,1.117H34.081l.477-1.117L28.8,57.146l5.762,2.429-.477-1.115H62.909l-.472,1.115Z" transform="translate(23.83 45.285)" fill="#fdbe00"/><path d="M34.649,40.376,25.167,52.3l-.581-1.069L22.9,57.25l5.485-3-1.17-.323L36.7,42.013l.578,1.064,1.683-6.022-5.485,2.994Z" transform="translate(18.954 30.665)" fill="#fdbe00"/><path d="M64.184,57.251,62.5,51.231,61.921,52.3,52.438,40.377l1.17-.327-5.486-3,1.685,6.022.578-1.064,9.483,11.919-1.171.322Z" transform="translate(39.823 30.665)" fill="#fdbe00"/><path d="M46.426,44.011,56.469,27.958l-5.254-3.92-13.049.927-4.953,4.662L44.4,45.177c.669-.419,1.347-.8,2.03-1.166" transform="translate(27.486 19.893)" fill="#dbd5d5"/><path d="M67.541,28.556c-1.078-1.6-6.956-2.531-6.956-2.531L56.8,25.067l-7.882,18.9-7.884-18.9-3.778.958s-5.879.927-6.961,2.531c-1.943,1.243-2.085,16.678-1.7,16.737.347.057,14.913.013,17.786,0,3.706.011,22.51.055,22.857,0,.387-.058.245-15.494-1.7-16.737" transform="translate(23.524 20.744)" fill="#161313"/><rect width="11.685" height="9.13" transform="translate(66.605 37.639)" fill="#d1ab86"/><path d="M53.4,22c-.722,7.062-6.051,12.3-9.438,12.3-3.624,0-8.593-5.388-9.439-12.3C33.7,15.26,38.753,11.83,43.967,11.83S54.1,15.244,53.4,22" transform="translate(28.5 9.79)" fill="#ffe2c2"/><path d="M34.468,16.833A9.948,9.948,0,0,1,41.1,10.218C43.859,9.545,48.8,8.761,52.984,13a5.358,5.358,0,0,1,1.2,3.293,4.707,4.707,0,0,1,.442,2.831,35.235,35.235,0,0,1-.886,5.722l-1.122.521a5.926,5.926,0,0,0-.181-3.651,8.571,8.571,0,0,0-.762-1.6c-4.794,2.648-12.188,3.164-15.483,3.255a5.353,5.353,0,0,0,.166,2l-1.12-.521a13.03,13.03,0,0,1-.311-1.46c-.267,0-.419,0-.419,0a13.425,13.425,0,0,1-.04-6.548" transform="translate(28.196 8.014)" fill="#0c0a0a"/><path d="M36.04,19c.49,1.413.872,2.774.287,2.977s-1.9-.83-2.392-2.241-.42-2.719.161-2.92S35.548,17.6,36.04,19" transform="translate(27.812 13.897)" fill="#ffe2c2"/><path d="M44.609,19c-.492,1.413-.872,2.774-.285,2.977s1.9-.83,2.392-2.241.42-2.719-.161-2.92S45.1,17.6,44.609,19" transform="translate(36.434 13.897)" fill="#ffe2c2"/><path d="M43.917,27.535,40.972,30,38.03,27.535l2.942-2.469Z" transform="translate(31.472 20.743)" fill="#0c0a0a"/><path d="M40.134,27.456,38.405,35.91l2.138,6.958L43.2,35.91l-1.972-8.454Z" transform="translate(31.783 22.721)" fill="#0c0a0a"/><path d="M36.957,23.083l6.252,3.633L41.153,31.1,36.27,26.568s-1.283-.329-.855-.908,1.464-1.095,1.542-2.577" transform="translate(29.235 19.102)" fill="#fff8f8"/><path d="M45.892,23.09l-6.241,3.62L41.7,31.075l4.878-4.509s1.283-.333.857-.906-1.462-1.089-1.544-2.57" transform="translate(32.814 19.108)" fill="#fff8f8"/><path d="M45.1,44.74,37.947,24.13l-2.4,2.014-2.5,1.347,3.068,5.123,1.411-.024-.9,2.962Z" transform="translate(27.346 19.969)" fill="#333030"/><path d="M39.642,44.74,46.795,24.13,49.192,26l2.729,1.495-3.293,5.123-1.411-.024.9,2.962Z" transform="translate(32.806 19.969)" fill="#333030"/><path d="M10.13,44.385s1.314,11.813-2,15.96,4.627,3.522,4.627,3.522l6.7-4.558,1.036-6.841L15.035,43.21Z" transform="translate(6.055 35.759)" fill="#161313"/><path d="M26.476,44.385s-1.312,11.813,2,15.96-4.627,3.522-4.627,3.522l-6.7-4.558-1.038-6.841,5.459-9.258Z" transform="translate(13.334 35.759)" fill="#161313"/><path d="M25.658,49.579l-12.937-.207-1.466.411-.512.28.128.387L14.888,62.7l1.173,3.31h6.658l.632-3.078,3.5-12.435.143-.508Z" transform="translate(8.891 40.858)" fill="#dbd5d5"/><path d="M15.756,49.962C12.106,54.71,6.222,55.4,5.18,61.158l-.34,4.37H20.946l-1.173-3.312Z" transform="translate(4.005 41.346)" fill="#161313"/><path d="M17.3,65.5H32.849l-.338-4.37c-.811-3.913-5.225-5.8-11.082-11.143l-3.5,12.433Z" transform="translate(14.313 41.37)" fill="#161313"/><path d="M22.344,46.235H14.256a2.4,2.4,0,0,0-2.528,2.23V54.2a2.393,2.393,0,0,0,2.528,2.228h8.089a2.469,2.469,0,0,0,2.467-1.762c.018-.007.04-.005.058-.015V48.465a2.392,2.392,0,0,0-2.526-2.23" transform="translate(9.706 38.262)" fill="#d1ab86"/><path d="M32.911,46.38c-.314-.1-.676.124-1.023.579.009-.225.016-.444.016-.663,0-7.186-4.863-13.009-10.859-13.009S10.184,39.11,10.184,46.3c0,.219,0,.439.015.663-.347-.455-.707-.678-1.022-.579-.764.236-1,2.241-.514,4.474s1.491,3.86,2.255,3.62c.27-.08.472-.393.6-.852C13.365,59,16.938,63.866,21.045,63.866S28.719,59,30.568,53.622c.128.459.331.771.6.852.769.239,1.775-1.382,2.257-3.62s.25-4.238-.512-4.474" transform="translate(6.961 27.547)" fill="#ffe2c2"/><path d="M11.748,49.661s.214,2.027,3.909,3.132,1.234,3.684,1.234,3.684l-2.891.6-1.7-3.315-.72-2.533Z" transform="translate(9.585 41.097)" fill="#fff8f8"/><path d="M21.666,49.863S21.452,51.89,17.755,53s-1.232,3.683-1.232,3.683l2.891.6,1.7-3.319.722-2.531Z" transform="translate(13.009 41.264)" fill="#fff8f8"/><path d="M12.953,49.485,8.941,51.87l7.438,10.741Z" transform="translate(7.399 40.952)" fill="#333030"/><path d="M21.14,49.46l4.192,3.156-7.69,10.247Z" transform="translate(14.6 40.931)" fill="#333030"/><path d="M15.929,54.217l-1.97,7.773h5.459l-2.246-7.773Z" transform="translate(11.552 44.867)" fill="#0c0a0a"/><path d="M14.769,51.716l3.248.046.6,2.394L17.946,56.6H14.884l-.735-2.281Z" transform="translate(11.71 42.798)" fill="#0c0a0a"/><path d="M32.627,44.6a10.117,10.117,0,0,0-.9-5.238c-2.643-4.724-6.091-7.279-10.684-6.727-4.454.612-6.979,2.246-7.743,4.812-2.074.541-3.365,2.4-3.361,6.426A9.4,9.4,0,0,0,8.6,51.149a1.483,1.483,0,0,1,2.281-.263l.662,3.341c-.344-5.379,1.4-8.058,2.272-10.974,1.374,2.979,4.485,4.521,8.606,5.227-1.433-1.234-2.171-2.571-1.382-4.147A5.737,5.737,0,0,0,25.189,48.2,6.4,6.4,0,0,1,23.343,43.6a10.067,10.067,0,0,0,4.976,5.157c-1-1.336-1.743-2.721-1.292-4.329,2.35,3.151,3.063,6.464,3.567,9.8l.663-3.344a1.474,1.474,0,0,1,2.268.267,9.372,9.372,0,0,0-.9-6.55" transform="translate(6.934 26.945)" fill="#161313"/><path d="M74.828,49.334l-14.021-.2-1.59.413-.556.276.137.387,4.355,12.256,1.276,3.31h7.217l.685-3.079,3.794-12.433.155-.51Z" transform="translate(48.546 40.657)" fill="#dbd5d5"/><path d="M64.365,49.719c-6.7,1.325-11.885,4.346-11.885,9.173l-.546,6.393H70l-1.274-3.312Z" transform="translate(42.978 41.145)" fill="#161313"/><path d="M65.767,65.259H83.229l-.548-6.393c0-4.66-5.464-7.736-12.435-9.12L66.454,62.178Z" transform="translate(54.426 41.168)" fill="#161313"/><path d="M71.236,46.208H62.47a2.494,2.494,0,0,0-2.74,2.142v5.521a2.494,2.494,0,0,0,2.74,2.14h8.767a2.67,2.67,0,0,0,2.677-1.69c.02-.007.044-.007.064-.016V48.35a2.5,2.5,0,0,0-2.741-2.142" transform="translate(49.43 38.24)" fill="#d1ab86"/><path d="M82.7,46.347c-.345-.1-.735.121-1.111.557.011-.216.016-.429.016-.64,0-6.9-5.271-12.5-11.771-12.5s-11.773,5.6-11.773,12.5c0,.21.005.424.013.64-.375-.437-.764-.654-1.107-.557-.83.227-1.076,2.153-.554,4.3s1.614,3.706,2.445,3.48a1.113,1.113,0,0,0,.649-.821c2,5.17,5.874,9.847,10.328,9.847s8.323-4.679,10.324-9.847a1.107,1.107,0,0,0,.651.821c.83.227,1.923-1.332,2.445-3.48s.274-4.075-.554-4.3" transform="translate(46.454 27.94)" fill="#ffe2c2"/><path d="M59.755,49.417s.23,2.027,4.236,3.134,1.336,3.684,1.336,3.684l-3.132.6-1.84-3.315-.786-2.535Z" transform="translate(49.297 40.895)" fill="#fff8f8"/><path d="M70.5,49.621s-.228,2.023-4.233,3.131-1.338,3.684-1.338,3.684l3.131.6L69.9,53.718l.782-2.535Z" transform="translate(53.011 41.064)" fill="#fff8f8"/><path d="M60.608,48.939,57.063,50.6l7.414,12.02Z" transform="translate(47.223 40.5)" fill="#333030"/><path d="M70.011,49.065l3.545,1.658-7.414,12.02Z" transform="translate(54.736 40.604)" fill="#333030"/><path d="M64.263,53.948l-1.972,7.773h5.461l-2.246-7.773Z" transform="translate(51.55 44.645)" fill="#0c0a0a"/><path d="M63.1,51.447l3.249.046.6,2.4-.669,2.44H63.218l-.737-2.281Z" transform="translate(51.707 42.576)" fill="#0c0a0a"/><path d="M76.268,37.358c1.566-7.813-21.8-7.407-18.966,10.572l1.433,6.4.815-5.258.276-4.006s7.933,4,14.546-4.3c2.456,1.106,3.854,3.211,4.339,8.261l.674,5.3,1.431-6.4s2.027-12.95-4.547-10.572" transform="translate(47.224 26.914)" fill="#0c0a0a"/></g></g></g></g></g></svg>