<svg xmlns="http://www.w3.org/2000/svg" xmlns:xlink="http://www.w3.org/1999/xlink" width="147" height="147.001" viewBox="0 0 147 147.001"><defs><clipPath id="a"><rect width="147" height="147.001" fill="none"/></clipPath><clipPath id="b"><rect width="147.001" height="147.001" fill="none"/></clipPath><clipPath id="c"><rect width="127.09" height="124.121" fill="none"/></clipPath></defs><g transform="translate(-285 -2785.838)"><g transform="translate(285 2785.838)"><g clip-path="url(#a)"><g transform="translate(0 0)"><g clip-path="url(#b)"><path d="M147,73.5A73.5,73.5,0,1,1,73.5,0,73.5,73.5,0,0,1,147,73.5" transform="translate(0 0)" fill="#387db8"/><g transform="translate(19.854 22.88)" style="mix-blend-mode:multiply;isolation:isolate"><g clip-path="url(#c)"><path d="M122.859,48.346c-.053-.528-.24-.933-.574-1.043l-.431-.145c-.051-.554-.24-.977-.587-1.093l-.42-.141c-.055-.554-.248-.979-.6-1.095l-.712-.24c-.622-.207-1.451.576-1.911,1.77a6.478,6.478,0,0,0-1.749.112,1.4,1.4,0,0,0-.158-.092A3.739,3.739,0,0,0,114.7,45.2a1.238,1.238,0,0,0-.275-.418s-7.491-13.323-7.772-13.6l-.279-.275a1.791,1.791,0,0,0-.5-1.086l-1.306-1.28c-1.141-1.122-3.794-.288-6.081,1.847a15.563,15.563,0,0,0-1.958-.955A39.423,39.423,0,0,0,93.5,25.143c-.568-1.221-1.37-2-2.263-2l-1.834.02c-1.6.011-2.883,2.479-2.989,5.61a15.759,15.759,0,0,0-4.137,1.748c-2.322-2.1-4.99-2.879-6.11-1.744l-1.284,1.307c-.011.013-.017.029-.028.04-.2-.2-10.53-10.541-10.634-10.645-.253-.257-.51-.475-.765-.712a4.39,4.39,0,0,0-.314-.367c-7.495-7.579-16.334-6.178-21.267-4.975C35.994,14.876,31.377,20.425,30,25.271a23.613,23.613,0,0,0-.141,10.841,1.35,1.35,0,0,0-1.21-.334c-1.042.363-1.174,2.7-.29,5.23a7.361,7.361,0,0,0,2.316,3.26,6.8,6.8,0,0,0,1.076,1.078,6.929,6.929,0,0,0,1.082,1.082c.158.194.319.372.484.543a29.92,29.92,0,0,0,3.741,6.154v3.611l-.743-.431a4.962,4.962,0,0,1-1.625,3.437l-4.278,3.594-.763.409-3.017.765s-10.519,1.656-12.459,4.531C10.7,71.259,10.442,98.891,11.137,99c.051.007,27.793,27.522,36.225,35.574a73.449,73.449,0,0,0,74.049-25.007c-.092-.084.814-1,1.335-2l.191.064a73.147,73.147,0,0,0,14.98-42.293L124.688,48.7c-.226-.453-.963-.567-1.828-.356" transform="translate(-10.827 -12.477)" fill="#ccc"/></g></g><path d="M43.016,73.831,60.989,45.1l-9.4-7.016L28.231,39.741l-8.865,8.344L39.382,75.912c1.2-.743,2.41-1.43,3.635-2.081" transform="translate(16.147 31.753)" fill="#dbd5d5"/><path d="M80.842,46.162c-1.936-2.875-12.455-4.531-12.455-4.531L61.62,39.918,47.509,73.742,33.4,39.918l-6.767,1.713s-10.519,1.656-12.459,4.531c-3.477,2.217-3.732,29.849-3.037,29.957.622.1,26.7.018,31.835,0,6.633.017,40.29.1,40.912,0,.693-.108.438-27.74-3.042-29.957" transform="translate(9.027 33.283)" fill="#969696"/><rect width="20.914" height="16.343" transform="translate(46.087 58.571)" fill="#d1ab86"/><path d="M55.5,34.515c-1.289,12.64-10.832,22.024-16.893,22.024-6.488,0-15.378-9.644-16.895-22.024C20.231,22.444,29.273,16.3,38.605,16.3S56.733,22.412,55.5,34.515" transform="translate(17.969 13.594)" fill="#ffe2c2"/><path d="M21.6,25.271c1.377-4.847,6-10.4,11.877-11.841,4.931-1.2,13.77-2.6,21.265,4.975a9.627,9.627,0,0,1,2.149,5.9,8.434,8.434,0,0,1,.792,5.059C56.832,37.351,56.1,39.612,56.1,39.612l-2.008.932a10.6,10.6,0,0,0-.326-6.536A15.493,15.493,0,0,0,52.4,31.136C43.82,35.88,30.587,36.8,24.691,36.966a9.449,9.449,0,0,0,.3,3.578l-2.008-.932A23.822,23.822,0,0,1,22.425,37c-.477,0-.75-.006-.75-.006a24.075,24.075,0,0,1-.07-11.723" transform="translate(17.422 10.403)" fill="#916826"/><path d="M24.424,29.119c.878,2.527,1.557,4.96.513,5.325s-3.4-1.484-4.284-4.009-.752-4.869.29-5.23,2.6,1.386,3.481,3.913" transform="translate(16.732 20.976)" fill="#ffe2c2"/><path d="M39.7,29.119c-.88,2.527-1.557,4.96-.51,5.325s3.405-1.484,4.284-4.009.752-4.869-.29-5.23-2.6,1.386-3.484,3.913" transform="translate(32.23 20.976)" fill="#ffe2c2"/><path d="M38.494,44.336l-5.27,4.416-5.267-4.416,5.267-4.418Z" transform="translate(23.31 33.283)" fill="#0c0a0a"/><path d="M31.723,44.179l-3.1,15.132,3.825,12.453,4.755-12.453L33.674,44.179Z" transform="translate(23.869 36.836)" fill="#0c0a0a"/><path d="M26.054,36.378l11.192,6.5-3.68,7.836-8.738-8.1s-2.3-.592-1.535-1.625,2.62-1.958,2.762-4.616" transform="translate(19.29 30.332)" fill="#fff8f8"/><path d="M42.023,36.392,30.846,42.874l3.673,7.808,8.736-8.069s2.292-.6,1.529-1.623-2.615-1.953-2.762-4.6" transform="translate(25.719 30.343)" fill="#fff8f8"/><path d="M40.641,75.138l-12.8-36.892-4.295,3.607-4.484,2.41,5.494,9.173,2.525-.048-1.6,5.305Z" transform="translate(15.895 31.889)" fill="#5c5c5c"/><path d="M30.833,75.138l12.8-36.892,4.289,3.341,4.885,2.676-5.894,9.173-2.525-.048L46,58.692Z" transform="translate(25.708 31.889)" fill="#5c5c5c"/><path d="M85.5,52.06a20.849,20.849,0,1,1-20.85-20.85A20.85,20.85,0,0,1,85.5,52.06" transform="translate(36.519 26.023)" fill="#fff"/><path d="M66.021,16.306S42.147,49.3,42.147,62.486a23.874,23.874,0,0,0,47.748,0c0-13.189-23.874-46.18-23.874-46.18M56.227,52.291a14.827,14.827,0,0,1,19.222-1.484c1.135-1.124,2.78-2.725,2.78-2.725a1.06,1.06,0,0,1,1.911.748V58.4a.669.669,0,0,1-.668.669H69.817c-.6.02-1.766-.7-.724-1.953,0,0,1.489-1.493,2.782-2.771a9.866,9.866,0,0,0-15.01,9.064H51.912a14.761,14.761,0,0,1,4.315-11.124M76.841,72.875a14.83,14.83,0,0,1-19.226,1.482c-1.135,1.122-2.776,2.725-2.776,2.725a1.062,1.062,0,0,1-1.914-.748V66.759a.672.672,0,0,1,.669-.669h2.025s.3,0,.669,0l6.963,0c.594-.018,1.764.7.723,1.953,0,0-1.491,1.493-2.78,2.771A9.864,9.864,0,0,0,76.2,61.751v0h4.955a14.781,14.781,0,0,1-4.315,11.124" transform="translate(35.142 13.596)" fill="#6fbc31"/></g></g></g></g></g></svg>