<svg xmlns="http://www.w3.org/2000/svg" xmlns:xlink="http://www.w3.org/1999/xlink" width="145" height="145" viewBox="0 0 145 145"><defs><clipPath id="a"><rect width="145" height="145" fill="none"/></clipPath><clipPath id="b"><rect width="145.001" height="145.001" fill="#387db8"/></clipPath><clipPath id="c"><rect width="134.738" height="145" fill="none"/></clipPath><clipPath id="d"><rect width="46.435" height="47.508" fill="none"/></clipPath></defs><g clip-path="url(#a)"><g transform="translate(0 -0.001)"><g clip-path="url(#b)"><path d="M145,72.5A72.5,72.5,0,1,1,72.5,0,72.5,72.5,0,0,1,145,72.5" transform="translate(0 0.001)" fill="#387db8"/><g transform="translate(10.262 0.001)" style="mix-blend-mode:multiply;isolation:isolate"><g transform="translate(0 0)"><g clip-path="url(#c)"><path d="M63.7.13C62.554.2,61.416.282,60.287.4L60.2.412A72.677,72.677,0,0,0,52.878,1.57h0L52.746,45.6l1.1.022-.025,1.241c-1.008,1.2-1.246,3.3-1.738,6.275l-.042.34-.968-.9a2.867,2.867,0,0,0-4.03,4.075l4.075,4.274-.145,1.167L49.7,64.471l-.778.948L45.084,62.76a2.968,2.968,0,0,0-3.5,4.79l.624.479a2.928,2.928,0,0,0,.794.939l.624.479a2.941,2.941,0,0,0,.8.941l.251.194-3.3,4.014C39.553,77,38.176,78.629,38,80.19l-.866.857-.774-.783L5.673,109.687l0,0q1.21,2.016,2.543,3.943c.031.043.063.085.092.13q1.294,1.861,2.7,3.638c.034.042.065.083.1.123a73.5,73.5,0,0,0,6.3,6.951c.092.092.184.183.275.277A72.482,72.482,0,0,0,140.412,72.5a73.317,73.317,0,0,0-.382-7.469L78.2,1.977c-.47-.058-.95-.083-1.424-.134l0-1.284h0Q74.71.307,72.613.168C72.5.161,72.4.15,72.286.143,70.838.052,69.381,0,67.912,0q-1.924,0-3.818.1c-.134.007-.264.024-.4.031" transform="translate(-5.674 0)" fill="#ccc"/></g></g></g><rect width="21.703" height="15.805" transform="translate(83.281 94.653) rotate(-45.314)" fill="#f2ce9e"/><path d="M76.023,53.374,67.7,43.252l-7.42-13.821a2.3,2.3,0,0,0-4.122,2.04l5.477,12.065a14.552,14.552,0,0,1-1.42.809l-13.071-17a2.84,2.84,0,0,0-4.569,3.372L54.429,47.476c-.289.221-.57.459-.845.711L35.536,31.355a2.867,2.867,0,0,0-4.03,4.075l17.267,18.11c.045.049.1.1.15.148s.081.058.121.094c-.2.289-.4.577-.6.868l-18.9-13.111a2.967,2.967,0,0,0-3.5,4.788L44.413,60.465c.043.033.1.072.143.1s.1.054.156.085a16.676,16.676,0,0,1,2.321,2.109c-.152.018-.3.036-.463.052L44.1,63.1l-4.283.541c-1.246.152-2.283.275-3.01.364s-1.154.123-1.154.123a3.04,3.04,0,0,0,.537,6.056l.049,0,1.1-.078c.707-.025,1.717-.062,2.93-.107,1.212-.007,2.628-.005,4.128.063.756.009,1.512.09,2.283.145.371.033.812.051,1.127.1l.955.148c.548.052,1.445.279,2.221.449l.074.016.038.007.016.005c-.577-.1-.152-.025-.28-.043l.011,0,.154.043.3.087.606.174q.6.168,1.19.336c1.563.461,3.03.928,4.294,1.353,1.2.4,2.191.734,2.883,1s1.087.43,1.087.43a6.392,6.392,0,0,0,8.744-4.222l7.83-7.917c2.932-2.963,1.105-4.806-1.914-8.8" transform="translate(20.128 21.221)" fill="#f2e0c9"/><path d="M63.442,44.374,46.634,61.368l33.01,32.17a72.879,72.879,0,0,0,16.09-17.7Z" transform="translate(37.72 35.892)" fill="#fdb100"/><rect width="15.805" height="21.703" transform="translate(32.334 90.338) rotate(-44.686)" fill="#f2ce9e"/><path d="M26.929,53.374l8.324-10.122,7.42-13.821a2.3,2.3,0,0,1,4.122,2.04L41.318,43.536a14.552,14.552,0,0,0,1.42.809l13.071-17a2.84,2.84,0,0,1,4.569,3.372L48.523,47.476c.289.221.57.459.845.711L67.416,31.355a2.867,2.867,0,0,1,4.03,4.075L54.179,53.541c-.045.049-.1.1-.15.148s-.081.058-.121.094c.2.289.4.577.6.868l18.9-13.111a2.967,2.967,0,0,1,3.5,4.788L58.538,60.465c-.043.033-.1.072-.143.1s-.1.054-.156.085a16.676,16.676,0,0,0-2.321,2.109c.152.018.3.036.463.052l2.465.286,4.283.541c1.246.152,2.283.275,3.01.364s1.154.123,1.154.123a3.04,3.04,0,0,1-.537,6.056l-.049,0-1.1-.078c-.707-.025-1.717-.062-2.93-.107-1.212-.007-2.628-.005-4.128.063-.756.009-1.512.09-2.283.145-.371.033-.812.051-1.127.1l-.955.148c-.548.052-1.445.279-2.221.449l-.074.016-.038.007-.016.005c.577-.1.152-.025.28-.043l-.011,0-.154.043-.3.087-.606.174q-.6.168-1.19.336c-1.563.461-3.03.928-4.294,1.353-1.2.4-2.191.734-2.883,1s-1.087.43-1.087.43a6.392,6.392,0,0,1-8.744-4.222l-7.83-7.917c-2.932-2.963-1.1-4.806,1.914-8.8" transform="translate(19.034 21.221)" fill="#d4b48a"/><path d="M76.023,53.374,67.7,43.252l-7.42-13.821a2.3,2.3,0,0,0-4.122,2.04l5.477,12.065a14.552,14.552,0,0,1-1.42.809l-13.071-17a2.84,2.84,0,0,0-4.569,3.372L54.429,47.476c-.289.221-.57.459-.845.711L35.536,31.355a2.867,2.867,0,0,0-4.03,4.075l17.267,18.11c.045.049.1.1.15.148s.081.058.121.094c-.2.289-.4.577-.6.868l-18.9-13.111a2.967,2.967,0,0,0-3.5,4.788L44.413,60.465c.043.033.1.072.143.1s.1.054.156.085a16.676,16.676,0,0,1,2.321,2.109c-.152.018-.3.036-.463.052L44.1,63.1l-4.283.541c-1.246.152-2.283.275-3.01.364s-1.154.123-1.154.123a3.04,3.04,0,0,0,.537,6.056l.049,0,1.1-.078c.707-.025,1.717-.062,2.93-.107,1.212-.007,2.628-.005,4.128.063.756.009,1.512.09,2.283.145.371.033.812.051,1.127.1l.955.148c.548.052,1.445.279,2.221.449l.074.016.038.007.016.005c-.577-.1-.152-.025-.28-.043l.011,0,.154.043.3.087.606.174q.6.168,1.19.336c1.563.461,3.03.928,4.294,1.353,1.2.4,2.191.734,2.883,1s1.087.43,1.087.43a6.392,6.392,0,0,0,8.744-4.222l7.83-7.917c2.932-2.963,1.105-4.806-1.914-8.8" transform="translate(20.128 21.221)" fill="#f2e0c9"/><path d="M26.929,53.374l8.324-10.122,7.42-13.821a2.3,2.3,0,0,1,4.122,2.04L41.318,43.536a14.552,14.552,0,0,0,1.42.809l13.071-17a2.84,2.84,0,0,1,4.569,3.372L48.523,47.476c.289.221.57.459.845.711L67.416,31.355a2.867,2.867,0,0,1,4.03,4.075L54.179,53.541c-.045.049-.1.1-.15.148s-.081.058-.121.094c.2.289.4.577.6.868l18.9-13.111a2.967,2.967,0,0,1,3.5,4.788L58.538,60.465c-.043.033-.1.072-.143.1s-.1.054-.156.085a16.676,16.676,0,0,0-2.321,2.109c.152.018.3.036.463.052l2.465.286,4.283.541c1.246.152,2.283.275,3.01.364s1.154.123,1.154.123a3.04,3.04,0,0,1-.537,6.056l-.049,0-1.1-.078c-.707-.025-1.717-.062-2.93-.107-1.212-.007-2.628-.005-4.128.063-.756.009-1.512.09-2.283.145-.371.033-.812.051-1.127.1l-.955.148c-.548.052-1.445.279-2.221.449l-.074.016-.038.007-.016.005c.577-.1.152-.025.28-.043l-.011,0-.154.043-.3.087-.606.174q-.6.168-1.19.336c-1.563.461-3.03.928-4.294,1.353-1.2.4-2.191.734-2.883,1s-1.087.43-1.087.43a6.392,6.392,0,0,1-8.744-4.222l-7.83-7.917c-2.932-2.963-1.1-4.806,1.914-8.8" transform="translate(19.034 21.221)" fill="#d4b48a"/><path d="M5.673,73.8A72.8,72.8,0,0,0,21.191,92.03l31.98-30.662L36.364,44.374Z" transform="translate(4.589 35.892)" fill="#4b4b55"/><rect width="15.804" height="21.702" transform="translate(58.383 48.216) rotate(-88.825)" fill="#f2ce9e"/><g transform="translate(52.309 48.561)" style="mix-blend-mode:multiply;isolation:isolate"><g clip-path="url(#d)"><path d="M72.761,52.88l-3.629-4.414,1.331-1.024c-.342-.376-.684-.749-1.033-1.152-.516-.554-.975-1.159-1.467-1.755-.232-.293-.523-.626-.705-.886l-.548-.794c-.027-.034-.06-.085-.089-.125l-1.405.975-.78-.948-1.731-3.225L64.071,38.1c-.564-1.127-1.094-2.216-1.539-3.176-.483-1.018-.859-1.847-1.14-2.511l-1.671,1.559-2.7-5.036a2.29,2.29,0,0,0-.5-.611,2.9,2.9,0,0,0-.508-1.369,6.418,6.418,0,0,0-4.254.666l-.885-.018-3.205,4.169-3.307-4.3L40.621,27.4a6.2,6.2,0,0,0-1.619.17,2.917,2.917,0,0,0-.188.762,2.29,2.29,0,0,0-.5.611l-2.579,4.806c-.058.36-.114.709-.177,1.1L33.947,47.848l-4.915,14.9A2.3,2.3,0,0,0,33.35,64.33l4.98-12.278a14.286,14.286,0,0,1,1.563.474l-3.33,21.183a2.991,2.991,0,0,0-.02.358,6.12,6.12,0,0,0,.689-.246s.394-.174,1.087-.432,1.679-.606,2.885-1c.467-.159.988-.326,1.5-.492l3.439-17.331c.358.058.724.1,1.1.123L47.384,70.5l.213-.062.067-.018.069.018.306.087.606.174q.6.168,1.19.336c1.344.4,2.588.792,3.721,1.169l.883-17.71c0-.065.005-.143,0-.21s-.013-.1-.014-.154c.347-.054.695-.1,1.04-.165l3.088,20.022a6.277,6.277,0,0,0,6-.968L62.463,52.884c-.007-.052-.014-.119-.025-.172s-.033-.114-.043-.174a16.486,16.486,0,0,1-.069-3.135c.118.1.235.2.356.3.649.541,1.288,1.074,1.9,1.592,1.225,1,2.364,1.932,3.341,2.733S69.7,55.5,70.265,55.962l.883.751a3.045,3.045,0,0,0,4.206-.257c-.611-1.02-1.525-2.162-2.592-3.576M41.647,39.6l-2.2-2.048,1.975-4.347,2.46,3.48Zm5.834,30.83.018,0,.036-.007.074-.018.007,0,.022.005c-.047.007-.072.013-.157.025m.154-.036.031-.005.033.005-.033.005-.031-.005m.06.011.022-.005.007,0,.074.018.038.007.016,0-.157-.025m-.029-25.19-1.357-1.266,1.357-1.919,1.358,1.919Zm6.02-5.615-2.239-2.914,2.462-3.48,1.973,4.347Z" transform="translate(-28.919 -26.846)" fill="#dec6a9"/></g></g><path d="M34.3,32.955,32.688,45.961l-4.913,14.9a2.3,2.3,0,0,0,4.318,1.585l4.978-12.278a14.294,14.294,0,0,1,1.565.472l-3.33,21.185a2.839,2.839,0,0,0,5.589.993l3.994-20.14c.36.06.725.1,1.1.125l.219,24.678a2.867,2.867,0,0,0,5.73.118L53.182,52.6c0-.065,0-.143,0-.21s-.014-.1-.016-.154c.349-.054.695-.107,1.042-.165l3.506,22.737a2.967,2.967,0,0,0,5.884-.758L61.2,51c-.005-.052-.014-.119-.024-.174s-.033-.114-.043-.172a16.487,16.487,0,0,1-.069-3.135c.118.1.235.2.356.3.649.541,1.288,1.074,1.9,1.592,1.225,1,2.366,1.932,3.343,2.733s1.771,1.467,2.335,1.934.885.751.885.751a3.04,3.04,0,0,0,4.021-4.56l-.036-.033-.812-.742-2.095-2.053c-.839-.874-1.812-1.9-2.8-3.035-.514-.555-.975-1.159-1.467-1.756-.232-.291-.521-.624-.7-.885l-.55-.794c-.34-.434-.794-1.239-1.2-1.919l-.04-.067-.02-.033-.007-.014c.327.483.087.127.161.233l-.005-.007-.074-.143-.147-.28-.293-.559q-.29-.554-.573-1.1c-.743-1.451-1.415-2.836-1.975-4.045-.543-1.149-.975-2.095-1.259-2.784s-.434-1.083-.434-1.083A6.394,6.394,0,0,0,50.5,25.736l-11.133-.228c-4.168-.087-4.247,2.509-5.065,7.447" transform="translate(22.373 20.182)" fill="#ffe2c2"/><path d="M55.729.559a71.96,71.96,0,0,0-23.9,1.011L31.7,45.6l23.9.488Z" transform="translate(25.638 0.001)" fill="#fff"/></g></g></g></svg>