<svg xmlns="http://www.w3.org/2000/svg" xmlns:xlink="http://www.w3.org/1999/xlink" width="145.503" height="145.5" viewBox="0 0 145.503 145.5"><defs><clipPath id="a"><rect width="145.503" height="145.5" fill="none"/></clipPath><clipPath id="b"><rect width="145.502" height="145.501" fill="none"/></clipPath><clipPath id="c"><rect width="137.032" height="115.67" fill="none"/></clipPath></defs><g transform="translate(-810 -2785.218)"><g transform="translate(810 2785.218)"><g clip-path="url(#a)"><g transform="translate(0 -0.001)"><g clip-path="url(#b)"><path d="M145.5,72.749A72.751,72.751,0,1,1,72.751,0,72.75,72.75,0,0,1,145.5,72.749" transform="translate(0 0.001)" fill="#387db8"/><g transform="translate(8.471 29.831)" style="mix-blend-mode:multiply;isolation:isolate"><g clip-path="url(#c)"><path d="M141.52,54.52c-7-7.052-33.166-33.209-33.529-33.5a6.547,6.547,0,0,0-1.064-1.064c-1.632-2.08-5.108-3.521-9.148-3.521-5.6,0-10.143,2.764-10.143,6.175A4.864,4.864,0,0,0,89.7,26.333c.3.381,10.266,10.346,10.678,10.676.062.08.122.162.191.241a12.767,12.767,0,0,0-3.559,4.614c-.152-.151-.309-.292-.463-.436-.089-.113-.178-.223-.265-.314-.265-.272-11.66-11.658-11.746-11.744-.265-.272-2.046-2.047-2.133-2.136-.269-.274-.541-.512-.811-.762-.085-.107-.172-.218-.258-.3-7.132-7.3-15.541-5.955-20.233-4.792a14.83,14.83,0,0,0-6.665,3.91c-.294-.376-4.919-5-5.331-5.333-1.632-2.078-5.108-3.518-9.146-3.518-5.6,0-10.143,2.764-10.143,6.175a4.875,4.875,0,0,0,2.1,3.75,6.631,6.631,0,0,0,1.076,1.076,6.65,6.65,0,0,0,1.06,1.06c.118.147.229.3.363.436a4.7,4.7,0,0,1-3.614,2.4S46.745,46.428,48.026,46.206c.031.254.074.515.129.782a1.845,1.845,0,0,0-.281.143c-1.942-1.476-11.571-9.488-11.907-9.783A10.518,10.518,0,0,0,26.626,33.7c-5.111.7-8.012,2.576-8.889,5.522-2.381.621-3.861,2.755-3.855,7.377A10.78,10.78,0,0,0,12.35,54.95l.031-.025c.022.127.038.25.067.379a11.7,11.7,0,0,0,.653,2.1c.105,1,1.32,13.43-2.227,18.095-2.73,1.895-5.148,3.772-5.819,7.476l-.388,5.013,41.617,40.5A72.753,72.753,0,0,0,141.7,59.353c0-1.625-.073-3.235-.178-4.834" transform="translate(-4.667 -16.434)" fill="#ccc"/></g></g><path d="M10.759,39.556s1.508,13.561-2.3,18.32,5.313,4.042,5.313,4.042l7.692-5.233,1.191-7.85L16.389,38.207Z" transform="translate(6.138 31.143)" fill="#0c0a0a"/><path d="M29.59,39.556s-1.5,13.561,2.3,18.32-5.313,4.042-5.313,4.042l-7.692-5.233-1.193-7.85L23.96,38.207Z" transform="translate(14.422 31.143)" fill="#0c0a0a"/><path d="M28.61,45.567l-14.851-.238-1.681.476-.588.318.145.443,4.61,14.069,1.349,3.8h7.643l.726-3.536L29.98,46.625l.165-.583Z" transform="translate(9.365 36.949)" fill="#dbd5d5"/><path d="M17.2,46.01C13.006,51.461,6.253,52.254,5.057,58.865l-.39,5.013H23.154l-1.347-3.8Z" transform="translate(3.804 37.504)" fill="#161313"/><path d="M19.063,63.851H36.916l-.388-5.015c-.933-4.494-6-6.661-12.722-12.793L19.789,60.315Z" transform="translate(15.538 37.531)" fill="#161313"/><path d="M24.813,41.7H15.529a2.745,2.745,0,0,0-2.9,2.557v6.591a2.746,2.746,0,0,0,2.9,2.557h9.284a2.838,2.838,0,0,0,2.833-2.018c.02-.011.047-.011.067-.022V44.261a2.744,2.744,0,0,0-2.9-2.557" transform="translate(10.293 33.994)" fill="#d1ab86"/><path d="M36.918,41.766c-.361-.109-.777.145-1.176.666.011-.258.018-.51.018-.762,0-8.248-5.581-14.931-12.464-14.931S10.83,33.422,10.83,41.67c0,.252.005.5.016.762-.4-.521-.813-.775-1.174-.666-.875.27-1.142,2.574-.588,5.137s1.712,4.429,2.59,4.158c.31-.1.541-.452.688-.98,2.12,6.173,6.22,11.758,10.934,11.758s8.812-5.587,10.931-11.758c.149.528.381.882.688.98.882.27,2.037-1.59,2.59-4.158s.289-4.866-.586-5.137" transform="translate(7.169 21.796)" fill="#ffe2c2"/><path d="M12.65,45.663s.247,2.327,4.489,3.6,1.414,4.227,1.414,4.227l-3.316.688L13.287,50.37l-.828-2.908Z" transform="translate(10.155 37.221)" fill="#fff8f8"/><path d="M24.066,45.9s-.245,2.327-4.489,3.594-1.414,4.231-1.414,4.231l3.318.686L23.431,50.6l.828-2.906Z" transform="translate(14.053 37.412)" fill="#fff8f8"/><path d="M14.012,45.46,9.407,48.2l8.536,12.332Z" transform="translate(7.668 37.055)" fill="#333030"/><path d="M23.477,45.431l4.814,3.621L19.464,60.816Z" transform="translate(15.865 37.032)" fill="#333030"/><path d="M17.467,50.929l-2.26,8.921h6.264l-2.577-8.921Z" transform="translate(12.395 41.513)" fill="#0c0a0a"/><path d="M16.139,48.038l3.728.053.688,2.75-.768,2.8H16.271l-.846-2.617Z" transform="translate(12.573 39.156)" fill="#0c0a0a"/><path d="M36.591,39.716A11.642,11.642,0,0,0,35.558,33.7c-3.035-5.42-6.992-8.351-12.265-7.718-5.113.7-8.012,2.574-8.89,5.522-2.38.619-3.861,2.755-3.855,7.375a10.793,10.793,0,0,0-1.53,8.357,1.694,1.694,0,0,1,2.616-.3l.759,3.832C12,44.6,14,41.519,15,38.17c1.579,3.42,5.146,5.191,9.88,6-1.644-1.416-2.492-2.953-1.586-4.759.659,2.316,2.39,3.667,4.759,4.442a7.336,7.336,0,0,1-2.116-5.287,11.55,11.55,0,0,0,5.71,5.921c-1.149-1.534-2-3.122-1.483-4.97,2.7,3.616,3.516,7.422,4.095,11.25l.762-3.841a1.692,1.692,0,0,1,2.6.31,10.759,10.759,0,0,0-1.033-7.52" transform="translate(7.139 21.11)" fill="#0c0a0a"/><path d="M28.665,16.434c-5.6,0-10.143,2.766-10.143,6.179,0,2.285,2.046,4.276,5.077,5.342a4.958,4.958,0,0,1-4.095,3.38s4.284.666,6.554-2.763a16.149,16.149,0,0,0,2.606.218c5.6,0,10.143-2.768,10.143-6.177s-4.541-6.179-10.143-6.179" transform="translate(15.097 13.396)" fill="#fff"/><path d="M26.259,20.433a1.177,1.177,0,1,0,1.176-1.176,1.177,1.177,0,0,0-1.176,1.176" transform="translate(21.404 15.697)" fill="#fdbe00"/><path d="M23.677,20.433a1.177,1.177,0,1,0,1.176-1.176,1.177,1.177,0,0,0-1.176,1.176" transform="translate(19.299 15.697)" fill="#fdbe00"/><path d="M21.095,20.433a1.177,1.177,0,1,0,1.176-1.176,1.177,1.177,0,0,0-1.176,1.176" transform="translate(17.195 15.697)" fill="#fdbe00"/><path d="M75.241,45.449l-16.1-.238-1.826.476L56.683,46l.156.443,5,14.071,1.463,3.8h8.286l.788-3.536L76.727,46.51l.18-.584Z" transform="translate(46.203 36.853)" fill="#dbd5d5"/><path d="M63.179,45.893c-7.7,1.521-13.646,4.99-13.646,10.529l-.626,7.338H69.639l-1.463-3.8Z" transform="translate(39.864 37.408)" fill="#161313"/><path d="M64.895,63.734H84.939L84.308,56.4c0-5.347-6.273-8.881-14.274-10.47L65.681,60.2Z" transform="translate(52.896 37.435)" fill="#161313"/><path d="M71.126,41.837H61.063c-1.739,0-3.146,1.1-3.146,2.458v6.337c0,1.356,1.407,2.458,3.146,2.458H71.126a3.066,3.066,0,0,0,3.073-1.94c.024-.011.053-.011.073-.02V44.295c0-1.358-1.409-2.458-3.146-2.458" transform="translate(47.208 34.102)" fill="#d1ab86"/><path d="M84.252,41.9c-.4-.109-.844.138-1.276.639.013-.245.02-.492.02-.731,0-7.928-6.05-14.354-13.515-14.354S55.969,33.877,55.969,41.806c0,.24.005.486.016.731-.432-.5-.879-.748-1.272-.639-.953.261-1.236,2.47-.637,4.939s1.853,4.255,2.806,3.993c.334-.091.586-.432.746-.94,2.3,5.932,6.743,11.3,11.853,11.3s9.557-5.371,11.854-11.3a1.259,1.259,0,0,0,.746.94c.951.261,2.207-1.527,2.806-3.993s.314-4.678-.635-4.939" transform="translate(43.822 22.377)" fill="#ffe2c2"/><path d="M57.945,45.546s.265,2.327,4.863,3.6,1.532,4.229,1.532,4.229l-3.594.688-2.113-3.806-.9-2.908Z" transform="translate(47.058 37.126)" fill="#fff8f8"/><path d="M70.315,45.78s-.265,2.327-4.863,3.594S63.92,53.6,63.92,53.6l3.594.686,2.113-3.806.9-2.906Z" transform="translate(51.285 37.316)" fill="#fff8f8"/><path d="M58.905,44.993l-4.071,1.9,8.511,13.8Z" transform="translate(44.696 36.675)" fill="#333030"/><path d="M69.768,45.139l4.071,1.9-8.511,13.8Z" transform="translate(53.25 36.794)" fill="#333030"/><path d="M63.14,50.782,60.878,59.7h6.266l-2.577-8.921Z" transform="translate(49.622 41.394)" fill="#0c0a0a"/><path d="M61.81,47.891l3.73.054.688,2.748-.768,2.8H61.944L61.1,50.879Z" transform="translate(49.8 39.037)" fill="#0c0a0a"/><path d="M76.879,31.57c1.8-8.968-25.021-8.5-21.77,12.136l1.643,7.353.938-6.037.316-4.6s9.106,4.592,16.7-4.933c2.819,1.269,4.423,3.686,4.979,9.48l.777,6.09L82.1,43.705s2.325-14.864-5.22-12.136" transform="translate(44.696 21.209)" fill="#0c0a0a"/><path d="M60.522,16.434c5.6,0,10.143,2.766,10.143,6.179,0,2.285-2.046,4.276-5.077,5.342a4.958,4.958,0,0,0,4.095,3.38S65.4,32,63.128,28.572a16.149,16.149,0,0,1-2.606.218c-5.6,0-10.143-2.768-10.143-6.177s4.541-6.179,10.143-6.179" transform="translate(41.064 13.396)" fill="#fff"/><path d="M54.875,20.433A1.177,1.177,0,1,1,53.7,19.257a1.177,1.177,0,0,1,1.176,1.176" transform="translate(42.81 15.697)" fill="#fdbe00"/><path d="M57.457,20.433a1.177,1.177,0,1,1-1.176-1.176,1.177,1.177,0,0,1,1.176,1.176" transform="translate(44.915 15.697)" fill="#fdbe00"/><path d="M60.039,20.433a1.177,1.177,0,1,1-1.176-1.176,1.177,1.177,0,0,1,1.176,1.176" transform="translate(47.019 15.697)" fill="#fdbe00"/><path d="M88.9,67.082c-2.423-3-10.533-4.485-12.862-4.845L70.3,60.785l-2.57-4.872h-.368v-.007a31.484,31.484,0,0,0,3.966-6.994A8.647,8.647,0,0,0,75.3,44.085c1.256-3.608.842-6.409-1.049-7.222.174-1.287.347-2.715.515-4.276a10.509,10.509,0,0,0-.557-4.966,11.121,11.121,0,0,1-2.158-.822,10.939,10.939,0,0,1-10.067,5.694,12.371,12.371,0,0,1-4.674-.871,12.048,12.048,0,0,1-5.565,1.265c-7.377,0-11.243-5.433-11.613-11.137a20.139,20.139,0,0,0-2.527,4.187,9.4,9.4,0,0,0-1.427,6.326,26.908,26.908,0,0,0,.2,5.061c-1.708,1.223-1.7,4.291-.855,7.006A7.8,7.8,0,0,0,39.6,49.2a30.288,30.288,0,0,0,3.91,6.716h-.372L40.65,60.791,35.094,62.2c-2.487.392-10.6,1.879-13.023,4.879-4.191,3.639-3.828,22.789-3.518,24.279a1.959,1.959,0,0,0,1.615,1.69c.663.1,10.145,1.508,10.145,1.508l25.172,5.247,25.132-5.24s9.515-1.412,10.186-1.516a1.955,1.955,0,0,0,1.61-1.688c.31-1.492.673-20.638-3.516-24.281" transform="translate(14.983 17.728)" fill="#387db8"/><path d="M47.454,34.829c-.851,2.434-1.517,4.772-.606,5.088s3.048-1.507,3.9-3.941.8-4.661-.109-4.977-2.332,1.4-3.18,3.83" transform="translate(37.829 25.237)" fill="#e5c093"/><rect width="20.144" height="15.742" transform="translate(60.39 68.23)" fill="#d1ab86"/><path d="M32.5,34.846c.755,2.441,1.329,4.8.361,5.173s-3.107-1.37-3.866-3.812-.586-4.727.381-5.1,2.367,1.3,3.124,3.741" transform="translate(23.247 25.311)" fill="#e5c093"/><path d="M86.8,50.131c-1.864-2.77-12-4.365-12-4.365l-6.516-1.65H41.1l-6.516,1.65s-10.132,1.6-12,4.365c-3.351,2.138-3.6,22.789-2.93,22.894s10.13,1.507,10.13,1.507l0,0,24.909-.583,24.91.581,0,.005s9.459-1.4,10.125-1.507.419-20.756-2.93-22.894" transform="translate(15.778 35.96)" fill="#0c0a0a"/><path d="M53.754,40.527c-3.193,4.148-7.1,6.7-10.377,6.7-3.019,0-6.937-2.423-10.188-6.445,8.179-2.541,17.757-.849,20.565-.256" transform="translate(27.053 32.136)" fill="#d1ab86"/><path d="M63.41,30.037a9.274,9.274,0,0,0-2.042-5.674c-7.132-7.3-15.541-5.955-20.231-4.792-5.6,1.389-9.99,6.734-11.3,11.4a23.5,23.5,0,0,0,.062,11.29s.163,0,.456.005c.016.231.011.448.036.682a28.267,28.267,0,0,0,6.081,14.766c8.179-2.541,17.755-.849,20.563-.256A30.067,30.067,0,0,0,62.64,44.79l.009,0s.7-2.178,1.528-9.869a8.138,8.138,0,0,0-.768-4.881" transform="translate(23.77 15.202)" fill="#0c0a0a"/><path d="M31.335,46.19H58.516L56.08,41.571H33.7Z" transform="translate(25.541 33.885)" fill="#d4dcdd"/></g></g></g></g></g></svg>