<svg xmlns="http://www.w3.org/2000/svg" xmlns:xlink="http://www.w3.org/1999/xlink" width="424" height="294.287" viewBox="0 0 424 294.287"><defs><filter id="a" x="158.792" y="-3.5" width="266.708" height="297.786" filterUnits="userSpaceOnUse"><feOffset dy="22" input="SourceAlpha"/><feGaussianBlur stdDeviation="8.5" result="b"/><feFlood flood-opacity="0.161"/><feComposite operator="in" in2="b"/><feComposite in="SourceGraphic"/></filter><filter id="c" x="157.292" y="96.963" width="266.708" height="197.324" filterUnits="userSpaceOnUse"><feOffset dy="22" input="SourceAlpha"/><feGaussianBlur stdDeviation="8.5" result="d"/><feFlood flood-opacity="0.161"/><feComposite operator="in" in2="d"/><feComposite in="SourceGraphic"/></filter><clipPath id="e"><g transform="matrix(1, 0, 0, 1, 0, 0)" filter="url(#a)"><path d="M0,173.625a52.3,52.3,0,0,1,5.775-23.68H5.446l.6-.531c7.647-14.8,22.107-27.422,40.826-36.142L66.423,95.965,42.432,63.976,57.427,6c3,1,79.97-6,79.97-6l24.991,42.984L137.4,95.965l49.982-10V107.96l-3.591,13.709c19.711,13.257,31.919,31.639,31.919,51.956,0,40.406-48.288,73.161-107.854,73.161S0,214.031,0,173.625Z" transform="translate(0)" fill="#387db8"/></g></clipPath><clipPath id="f"><rect width="192.82" height="242.161" fill="none"/></clipPath></defs><g transform="translate(-915 -1532.302)"><g transform="translate(1097.792 1532.302)"><g transform="matrix(1, 0, 0, 1, -182.79, 0)" filter="url(#c)"><ellipse cx="107.854" cy="73.162" rx="107.854" ry="73.162" transform="translate(182.79 100.46)" fill="#cce951"/></g><g transform="translate(1.499)" clip-path="url(#e)"><g transform="translate(11.444 10.496)"><g clip-path="url(#f)"><path d="M70.406,87.534C51.923,77.84,46.265,70.052,40.622,58.7,23.511,46.975,34.6,17.614,49.756,7.223c18.907-12.964,50.871-8.455,59.05,13.369,18.318,48.88-38.4,66.942-38.4,66.942" transform="translate(18.279 0)" fill="#7d4230"/><path d="M69.563,65.75c32.308,12.75,78.1,58.548,81.583,65.975,3.536,7.548,2.095,12.151-3.211,13.212C141.006,146.322,83.87,98.97,76.321,97.12c-7.716-1.891-6.758-31.37-6.758-31.37" transform="translate(39.737 37.58)" fill="#5e4047"/><path d="M144.264,137.743c-3.23-6.894-42.911-46.828-74.429-62.727.7,7.734,2.381,15.846,6.31,16.808,6.871,1.683,54.8,41.041,68.586,47.065-.16-.385-.278-.745-.467-1.146" transform="translate(39.915 42.876)" fill="#3f2a2f"/><path d="M127.318,111.348c-4.347,2.316-39.476,48.352-47.461,65.493l.9.467s65.306-55.394,65.224-61.409c-.08-5.994-14.276-6.891-18.665-4.551" transform="translate(45.643 62.96)" fill="#edb984"/><path d="M72.252,64.349C43.485,80.145,4.515,138.288,2,146.772s-3.772,13.2,3.143,13.2,55.312-57.513,61.6-60.027,5.51-35.6,5.51-35.6" transform="translate(0 36.779)" fill="#5e4047"/><path d="M5.556,149.924c-.424,1.4-.808,2.694-1.128,3.885,11.221-6.018,54.42-54.912,60.36-57.038,3.71-1.328,4.982-13.2,5.4-22.83C42.062,92.68,7.915,142.128,5.556,149.924" transform="translate(2.531 42.261)" fill="#3f2a2f"/><path d="M36.41,183.339h69.12L95.179,99.531l-47.681.42Z" transform="translate(20.81 56.888)" fill="#5e4047"/><path d="M70.619,134.189c17.867,0,32.368,21.912,32.75,49.15h2.161L95.18,99.531l-47.683.42L36.409,183.339h1.46c.382-27.238,14.883-49.15,32.75-49.15" transform="translate(20.81 56.888)" fill="#3f2a2f"/><path d="M51.449,65.519C41.588,92.828,32.8,134.661,34.478,138.851s75.427,2.095,77.1-1.257-17.391-65.37-19.905-69.56-39.011-5.881-40.227-2.515" transform="translate(19.588 36.425)" fill="#5e4047"/><path d="M98.92,77.8c5.056,20.383,6.176,44.258,5.178,46.469-1.55,3.429-61.522,5.133-63.373.845-1.372-3.178-.682-23.884,4.985-47.844C38.2,101.99,31.954,129.087,33.267,132.367c1.675,4.19,79.617,2.095,81.293-1.257,1.154-2.309-8.62-33.029-15.64-53.307" transform="translate(18.914 44.166)" fill="#3f2a2f"/><path d="M109.972,77.966A123.6,123.6,0,0,0,90.849,67.507C85.866,63.78,53.6,62.354,51.276,65.343A96.311,96.311,0,0,0,34.795,78.049c8.989,4.185,22.44,6.849,37.493,6.849,15.155,0,28.7-2.7,37.684-6.932" transform="translate(19.887 36.426)" fill="#3f2a2f"/><path d="M46.734,64.4c4.581,25.865,17.707,41.137,17.707,41.137S76.155,86,80.18,66c-8.554-2.161-26.858-2.958-33.446-1.6" transform="translate(26.711 36.426)" fill="#f9f1d9"/><path d="M79.976,65.954q-.629-.156-1.323-.3c-.22-.047-.451-.09-.679-.135-.324-.063-.652-.124-.992-.184-.242-.042-.484-.086-.734-.127-.514-.085-1.039-.167-1.581-.245-.237-.035-.484-.066-.728-.1-.412-.055-.828-.11-1.253-.162-.27-.033-.541-.066-.814-.1-.489-.055-.985-.108-1.487-.16-.259-.027-.519-.052-.781-.077-.555-.053-1.117-.1-1.682-.149-.261-.022-.522-.042-.784-.063q-.768-.059-1.543-.11L65,64q-1.018-.064-2.035-.112c-.223-.011-.445-.019-.668-.03-.534-.022-1.067-.042-1.6-.06-.193-.006-.387-.014-.58-.019-.685-.02-1.366-.035-2.035-.042-.152,0-.3,0-.453,0q-.823-.007-1.62,0c-.182,0-.363,0-.542,0-.644.006-1.278.016-1.887.033l-.228.009q-.818.026-1.581.066l-.451.025c-.533.033-1.05.069-1.535.112l-.1.008c-.5.046-.971.1-1.418.159-.126.016-.245.033-.366.05q-.526.078-.984.167c-.064.011-.134.022-.195.035A100.038,100.038,0,0,0,52.39,84.176a120.616,120.616,0,0,0,13.072.721c3.11,0,6.129-.14,9.079-.357a112.142,112.142,0,0,0,5.637-18.533c-.069-.017-.132-.036-.2-.053" transform="translate(26.711 36.427)" fill="#e0d1ad"/><path d="M59.892,106.076,56.1,100.289l1.147-30.758.456-1.63,1.048,1.762,4.1,30.322Z" transform="translate(32.067 38.809)" fill="#8a6793"/><path d="M67.677,41.537H49.868l1.517,34.854c.486,7.9,18.942,8.4,18.458.5Z" transform="translate(28.502 23.741)" fill="#d27558"/><path d="M41.2,30.465c0,30.171,6.6,44.638,24.618,54.142,16.971-6.989,24.513-22.766,23.3-58.338C88.487,7.746,41.2,16.9,41.2,30.465" transform="translate(23.549 9.052)" fill="#edb984"/><path d="M53.924,13.225c-7.039,13.067,29.4,27.134,26.468,56,0,0,27.925-24.353,16.336-43.455C83.686,4.275,60,1.944,53.924,13.225" transform="translate(30.303 3.752)" fill="#7d4230"/><path d="M42.378,39.673c-1.339-3.445-3.588-5.533-5.023-4.664s-1.512,4.366-.173,7.811,3.588,5.533,5.023,4.664,1.512-4.366.173-7.811" transform="translate(20.706 19.897)" fill="#edb984"/><path d="M78.364,42.191c1.358-3.439,1.127-6.5-.517-6.835s-4.075,2.177-5.433,5.614-1.127,6.5.517,6.836,4.075-2.177,5.433-5.615" transform="translate(40.883 20.191)" fill="#edb984"/><path d="M53.628,37.972c.039-2.783-1.334-5.148-3.072-5.291s-3.2,2.008-3.25,4.812,1.341,5.194,3.094,5.317,3.189-2.046,3.228-4.837" transform="translate(27.037 18.675)" fill="#5a4949"/><path d="M68.4,37.885c0-2.926-1.29-5.4-2.889-5.535s-2.915,2.137-2.923,5.082,1.3,5.447,2.907,5.562,2.9-2.175,2.9-5.109" transform="translate(35.774 18.487)" fill="#5a4949"/><path d="M55.2,25.949,45.192,28.007c-1.254.258-2.079,1.242-1.84,2.2l.476,1.9a2.2,2.2,0,0,0,2.706,1.248L56.54,31.2c1.207-.259,1.986-1.226,1.748-2.161l-.475-1.851A2.146,2.146,0,0,0,55.2,25.949" transform="translate(24.755 14.797)" fill="#7d4230"/><path d="M72.715,30.677l-7.3-2.816A1.978,1.978,0,0,0,63,28.684l-.853,1.6a1.475,1.475,0,0,0,.874,2.1l7.356,2.786a1.938,1.938,0,0,0,2.371-.839l.823-1.587a1.466,1.466,0,0,0-.856-2.063" transform="translate(35.419 15.849)" fill="#7d4230"/><path d="M61.823,40.735s-.456-.085-1.13-.165c-.847,2.629-3,6.267-6.357,1.155-.066.079-.167.13-.222.218,4.842,9.19,7.463.779,7.708-1.209" transform="translate(30.93 23.188)" fill="#d27558"/><path d="M59.53,49.539a20.93,20.93,0,0,1-7.083-.341c1.385,1.4,4.152,2.183,7.248,1.843s5.628-1.7,6.676-3.371a20.989,20.989,0,0,1-6.841,1.869" transform="translate(29.976 27.246)" fill="#d27558"/><path d="M61.071,51.4c-.108-.385-.924-.493-1.823-.242s-1.54.769-1.432,1.154.924.493,1.823.242,1.54-.768,1.432-1.154" transform="translate(33.038 29.16)" fill="#d27558"/><path d="M70.055,92.381c1.185-1.729-2.5-7.042-4.138-6.868-1.378.146-4.845-.244-10.987,9.476l1.372,2.6s12.58-3.5,13.753-5.21" transform="translate(31.396 48.873)" fill="#edb984"/><path d="M66.828,93.154a3.243,3.243,0,0,0,1.042-.773c1.185-1.729-2.5-7.042-4.138-6.868a7.531,7.531,0,0,0-4.979,2.106c3.811.262,7.07,2.437,8.075,5.535" transform="translate(33.581 48.873)" fill="#edb984"/><path d="M61.767,86.118a40.081,40.081,0,0,0-6.142,7.465l1.166,1.853a9.56,9.56,0,0,0,3.267-2.856,8.12,8.12,0,0,0,1.708-6.462" transform="translate(31.793 49.221)" fill="#edb984"/><path d="M2.868,136.673c12.4-18.83,86.987-46.724,86.987-46.724l1.634.963S34.447,134.16,20.658,142.172c-18.36,10.666-17.79-5.5-17.79-5.5" transform="translate(1.638 51.411)" fill="#edb984"/><path d="M65.33,83.771c4.411,5.577-.547,3.346-.547,3.346l-1.391.614s.643,5.383-5.12,8.975l-3.836-.541c1.872-10.281,9.687-13.921,10.894-12.395" transform="translate(31.113 47.689)" fill="#edb984"/><path d="M68.148,82.565a20.36,20.36,0,0,0-8.238,1.821l.475,3.8s12.2-5.625,7.763-5.625" transform="translate(34.242 47.19)" fill="#edb984"/><path d="M60.779,87.683c7.713-5.2,12.42-5.687,13.064-5.438s-9.885,6.572-9.885,6.572Z" transform="translate(34.739 46.979)" fill="#edb984"/><path d="M64.905,90.4c2.5-1.821,9.436-6.239,10.034-5.632s-8.974,7.856-10.616,8.655.581-3.022.581-3.022" transform="translate(36.421 48.415)" fill="#edb984"/><path d="M62.849,88.948c4.73-2.676,12.565-6.654,13.526-6.19s-10.159,7.9-11.343,8.42-2.183-2.23-2.183-2.23" transform="translate(35.922 47.279)" fill="#edb984"/><path d="M52.256,92.327l-7.182,3.38,1.161,13.519,7.5-4.647Z" transform="translate(25.762 52.77)" fill="#f9f1d9"/><path d="M72.4,93.738l1.479,15s-61.4,47.074-72.342,33.746C-11.246,126.9,72.4,93.738,72.4,93.738" transform="translate(0.121 53.576)" fill="#5e4047"/><path d="M73.246,99.185c-5.412,4.1-61.508,46.106-71.919,33.422-.071-.086-.123-.176-.187-.262-1.284,2.571-1.3,4.952.4,7.022,10.941,13.33,72.342-33.744,72.342-33.744Z" transform="translate(0.124 56.69)" fill="#3f2a2f"/><path d="M82.037,168.954,88.8,179.939s57.036-58.083,56.831-63.582S131.044,106,124.918,110.863s-42.881,58.091-42.881,58.091" transform="translate(46.889 62.222)" fill="#5e4047"/><path d="M49.17,65.212l2.461-3.737Q62.053,74.8,70.4,62.325l2.112,3.486-4.647,9.4-5.915-3.591-7.6,4.437Z" transform="translate(28.103 35.136)" fill="#e5d7b7"/><path d="M58.5,72.627l-3.1-3.159,3.189-3.41,2.549,3.319Z" transform="translate(31.668 37.756)" fill="#8a6793"/><path d="M79.718,165.754c-8.7-16.08-13.74-35.456-13.74-35.456s-3.648,13.039-19.043,35.456Z" transform="translate(26.826 74.473)" fill="#e0d1ad"/><path d="M49.868,163.218h24.7A194.22,194.22,0,0,1,64.3,134.734S61.4,145.1,49.868,163.218" transform="translate(28.502 77.008)" fill="#f9f1d9"/><path d="M61.664,107.391c0-2.158-1.276-3.908-2.852-3.908s-2.851,1.751-2.851,3.908,1.276,3.908,2.851,3.908,2.852-1.751,2.852-3.908" transform="translate(31.985 59.146)" fill="#3f2a2f"/><path d="M62.37,123.924c0-2.158-1.276-3.908-2.852-3.908s-2.851,1.751-2.851,3.908,1.276,3.908,2.851,3.908,2.852-1.751,2.852-3.908" transform="translate(32.388 68.596)" fill="#3f2a2f"/><path d="M61.084,99.181c0-1.837-1.086-3.325-2.426-3.325s-2.426,1.488-2.426,3.325,1.089,3.325,2.426,3.325,2.426-1.49,2.426-3.325" transform="translate(32.139 54.787)" fill="#3f2a2f"/><path d="M92.888,78.246a10.993,10.993,0,1,1,11.3.737l1.564,2.332a13.769,13.769,0,1,0-15.386-1.479Z" transform="translate(48.799 31.696)" fill="#8a6793"/><path d="M95.734,65.767l3.332-.135.376,8.5,9.178-.157.072,3.321-12.434.214Z" transform="translate(54.717 37.512)" fill="#8a6793"/><g transform="translate(2418.232 690.496)"><path d="M50.234,35.129c.018-1.29-.618-2.385-1.424-2.452s-1.484.931-1.506,2.23.621,2.407,1.434,2.463,1.477-.948,1.5-2.241" transform="translate(-44.396 -27.734)" fill="#5a4949"/><path d="M65.284,34.912c0-1.356-.6-2.5-1.338-2.565s-1.351.99-1.354,2.355.6,2.524,1.347,2.577,1.346-1.008,1.346-2.367" transform="translate(-48.552 -27.644)" fill="#5a4949"/><path d="M48.819,25.917l-4.637.954c-.581.119-.963.575-.853,1.018l.221.88a1.017,1.017,0,0,0,1.254.578l4.636-1c.559-.12.92-.568.81-1l-.22-.858a1,1,0,0,0-1.211-.574" transform="translate(-43.311 -25.889)" fill="#7d4230"/><path d="M66.948,29.1l-3.381-1.3a.917.917,0,0,0-1.121.382l-.4.741a.684.684,0,0,0,.4.971l3.408,1.291a.9.9,0,0,0,1.1-.389l.382-.735a.679.679,0,0,0-.4-.956" transform="translate(-48.383 -26.389)" fill="#7d4230"/><path d="M57.687,40.646s-.211-.039-.524-.076c-.392,1.218-1.388,2.9-2.945.535-.031.036-.077.06-.1.1,2.243,4.258,3.458.361,3.572-.56" transform="translate(-46.248 -29.881)" fill="#d27558"/><path d="M55.729,48.536a9.7,9.7,0,0,1-3.282-.158A4.94,4.94,0,0,0,58.9,47.67a9.725,9.725,0,0,1-3.17.866" transform="translate(-45.794 -31.811)" fill="#d27558"/><path d="M59.318,51.194c-.05-.178-.428-.229-.845-.112s-.714.356-.663.534.428.229.845.112.714-.356.663-.534" transform="translate(-47.251 -32.72)" fill="#d27558"/></g></g></g></g></g><g transform="translate(915 1577)"><rect width="217.597" height="72.271" rx="10" fill="#387db8"/></g><path d="M11.214,16.627h5.37V19H8.129V6.2h3.085ZM23.106,19a3.344,3.344,0,0,1-.281-.853,2.754,2.754,0,0,1-2.285,1.028,3.374,3.374,0,0,1-2.285-.813,2.588,2.588,0,0,1-.94-2.043,2.66,2.66,0,0,1,1.143-2.338,5.821,5.821,0,0,1,3.322-.791h.914v-.5q0-1.316-1.134-1.316A.927.927,0,0,0,20.5,12.413H17.542a2.655,2.655,0,0,1,1.173-2.239,4.931,4.931,0,0,1,2.993-.86,4.323,4.323,0,0,1,2.874.888,3.086,3.086,0,0,1,1.081,2.435v4.21a4.311,4.311,0,0,0,.4,2V19Zm-1.854-1.934a1.652,1.652,0,0,0,.918-.237,1.487,1.487,0,0,0,.523-.536V14.772h-.861q-1.547,0-1.547,1.389a.848.848,0,0,0,.272.655A.986.986,0,0,0,21.251,17.066Zm13.983-9.94V9.49H36.8v2.057H35.235V15.9a1.111,1.111,0,0,0,.193.747,1.037,1.037,0,0,0,.765.211,4.345,4.345,0,0,0,.738-.053v2.118a5.466,5.466,0,0,1-1.67.255A3.1,3.1,0,0,1,33,18.455a2.954,2.954,0,0,1-.729-2.188v-4.72H31.06V9.49h1.213V7.126Zm8.481,5.045-.976-.07a1.752,1.752,0,0,0-1.793.879V19H37.986V9.49h2.777l.1,1.222a2.294,2.294,0,0,1,2.083-1.4,2.888,2.888,0,0,1,.826.105ZM49.877,19a3.344,3.344,0,0,1-.281-.853,2.754,2.754,0,0,1-2.285,1.028,3.374,3.374,0,0,1-2.285-.813,2.588,2.588,0,0,1-.94-2.043,2.66,2.66,0,0,1,1.143-2.338,5.821,5.821,0,0,1,3.322-.791h.914v-.5q0-1.316-1.134-1.316a.927.927,0,0,0-1.055,1.042H44.314a2.655,2.655,0,0,1,1.173-2.239,4.931,4.931,0,0,1,2.993-.86,4.323,4.323,0,0,1,2.874.888,3.086,3.086,0,0,1,1.081,2.435v4.21a4.311,4.311,0,0,0,.4,2V19Zm-1.854-1.934a1.652,1.652,0,0,0,.918-.237,1.487,1.487,0,0,0,.523-.536V14.772H48.6q-1.547,0-1.547,1.389a.848.848,0,0,0,.272.655A.986.986,0,0,0,48.023,17.066ZM53.7,14.175a5.809,5.809,0,0,1,.976-3.56,3.211,3.211,0,0,1,2.725-1.3,2.731,2.731,0,0,1,2.145,1V5.5h2.971V19H59.853L59.7,17.98a2.8,2.8,0,0,1-2.32,1.2,3.205,3.205,0,0,1-2.689-1.3A5.993,5.993,0,0,1,53.7,14.175Zm2.962.185q0,2.531,1.477,2.531a1.458,1.458,0,0,0,1.406-.826V12.443a1.419,1.419,0,0,0-1.389-.844q-1.371,0-1.485,2.215Zm13.2,3.612a3.054,3.054,0,0,1-2.54,1.2,3,3,0,0,1-2.369-.91,3.826,3.826,0,0,1-.8-2.615V9.49h2.962v6.179A1.065,1.065,0,0,0,68.3,16.891a1.548,1.548,0,0,0,1.45-.729V9.49h2.979V19H69.952Zm8.508-1.081a1.317,1.317,0,0,0,.967-.338,1.241,1.241,0,0,0,.334-.945H82.45a3.288,3.288,0,0,1-1.121,2.566,4.168,4.168,0,0,1-2.887,1,4.22,4.22,0,0,1-3.27-1.3,5.125,5.125,0,0,1-1.2-3.6v-.123a5.792,5.792,0,0,1,.532-2.544,3.872,3.872,0,0,1,1.534-1.7,4.573,4.573,0,0,1,2.373-.593,4.116,4.116,0,0,1,2.944,1.028,3.647,3.647,0,0,1,1.09,2.786H79.672A1.626,1.626,0,0,0,79.312,12a1.244,1.244,0,0,0-.967-.4q-1.151,0-1.345,1.468a10.357,10.357,0,0,0-.062,1.283,4.068,4.068,0,0,0,.343,1.986A1.187,1.187,0,0,0,78.372,16.891Zm9.352,0a1.317,1.317,0,0,0,.967-.338,1.241,1.241,0,0,0,.334-.945H91.8a3.288,3.288,0,0,1-1.121,2.566,4.168,4.168,0,0,1-2.887,1,4.22,4.22,0,0,1-3.27-1.3,5.125,5.125,0,0,1-1.2-3.6v-.123A5.792,5.792,0,0,1,83.86,11.6a3.872,3.872,0,0,1,1.534-1.7,4.573,4.573,0,0,1,2.373-.593,4.116,4.116,0,0,1,2.944,1.028,3.647,3.647,0,0,1,1.09,2.786H89.024A1.626,1.626,0,0,0,88.664,12a1.244,1.244,0,0,0-.967-.4q-1.151,0-1.345,1.468a10.357,10.357,0,0,0-.062,1.283,4.068,4.068,0,0,0,.343,1.986A1.187,1.187,0,0,0,87.723,16.891ZM96.178,19H93.208V9.49h2.971ZM93.032,7.038A1.322,1.322,0,0,1,93.489,6a1.943,1.943,0,0,1,2.373,0,1.322,1.322,0,0,1,.457,1.037,1.322,1.322,0,0,1-.457,1.037,1.943,1.943,0,0,1-2.373,0A1.322,1.322,0,0,1,93.032,7.038Zm4.6,7.119a5.613,5.613,0,0,1,.554-2.536,3.96,3.96,0,0,1,1.591-1.709,4.791,4.791,0,0,1,2.435-.6,4.373,4.373,0,0,1,3.366,1.323,5.076,5.076,0,0,1,1.23,3.6v.105a4.925,4.925,0,0,1-1.235,3.529,4.384,4.384,0,0,1-3.344,1.305,4.434,4.434,0,0,1-3.261-1.217,4.761,4.761,0,0,1-1.327-3.3Zm2.962.185A3.538,3.538,0,0,0,101,16.275a1.376,1.376,0,0,0,1.222.615q1.582,0,1.617-2.435v-.3q0-2.558-1.635-2.558-1.485,0-1.608,2.206ZM102.612,5.5h3.129L103.3,8.26l-2.417,0Zm8.218,3.99.1,1.116a3.225,3.225,0,0,1,2.716-1.292,2.713,2.713,0,0,1,2.219.888,4.226,4.226,0,0,1,.76,2.672V19h-2.971V13a1.6,1.6,0,0,0-.29-1.059,1.342,1.342,0,0,0-1.055-.338,1.413,1.413,0,0,0-1.292.686V19h-2.962V9.49Zm11.54,4.685a5.809,5.809,0,0,1,.976-3.56,3.211,3.211,0,0,1,2.725-1.3,2.731,2.731,0,0,1,2.145,1V5.5h2.971V19h-2.663l-.149-1.02a2.8,2.8,0,0,1-2.32,1.2,3.205,3.205,0,0,1-2.689-1.3A5.993,5.993,0,0,1,122.37,14.175Zm2.962.185q0,2.531,1.477,2.531a1.458,1.458,0,0,0,1.406-.826V12.443a1.419,1.419,0,0,0-1.389-.844q-1.371,0-1.485,2.215Zm12.138,4.816a4.889,4.889,0,0,1-3.542-1.305,4.507,4.507,0,0,1-1.354-3.4v-.246a5.84,5.84,0,0,1,.541-2.575,3.955,3.955,0,0,1,1.578-1.727,4.763,4.763,0,0,1,2.461-.611,4.117,4.117,0,0,1,3.164,1.244,4.887,4.887,0,0,1,1.16,3.467v1.151h-5.889a2.135,2.135,0,0,0,.694,1.257,2.066,2.066,0,0,0,1.389.457,2.662,2.662,0,0,0,2.2-.984l1.354,1.6a3.784,3.784,0,0,1-1.569,1.217A5.3,5.3,0,0,1,137.469,19.176Zm-.334-7.576q-1.3,0-1.547,1.723h2.988v-.229a1.467,1.467,0,0,0-.36-1.1A1.434,1.434,0,0,0,137.135,11.6ZM28.687,44.176a4.889,4.889,0,0,1-3.542-1.305,4.507,4.507,0,0,1-1.354-3.4v-.246a5.84,5.84,0,0,1,.541-2.575,3.955,3.955,0,0,1,1.578-1.727,4.763,4.763,0,0,1,2.461-.611,4.117,4.117,0,0,1,3.164,1.244,4.887,4.887,0,0,1,1.16,3.467v1.151H26.806a2.135,2.135,0,0,0,.694,1.257,2.066,2.066,0,0,0,1.389.457,2.662,2.662,0,0,0,2.2-.984l1.354,1.6a3.784,3.784,0,0,1-1.569,1.217A5.3,5.3,0,0,1,28.687,44.176ZM28.353,36.6q-1.3,0-1.547,1.723h2.988v-.229a1.467,1.467,0,0,0-.36-1.1A1.434,1.434,0,0,0,28.353,36.6Zm5.159,2.549A5.709,5.709,0,0,1,34.5,35.6a3.233,3.233,0,0,1,2.716-1.283,2.761,2.761,0,0,1,2.338,1.2l.211-1.02h2.566V47.656H39.357V43.209a2.757,2.757,0,0,1-2.162.967,3.2,3.2,0,0,1-2.685-1.305A6.027,6.027,0,0,1,33.512,39.148Zm2.962.185q0,2.558,1.477,2.558a1.43,1.43,0,0,0,1.406-.773V37.355a1.4,1.4,0,0,0-1.389-.756q-1.38,0-1.485,2.206Zm13.192,3.639a3.054,3.054,0,0,1-2.54,1.2,3,3,0,0,1-2.369-.91,3.826,3.826,0,0,1-.8-2.615V34.49h2.962v6.179A1.065,1.065,0,0,0,48.1,41.891a1.548,1.548,0,0,0,1.45-.729V34.49h2.979V44H49.754ZM57.278,44H54.307V34.49h2.971ZM54.131,32.038A1.322,1.322,0,0,1,54.588,31a1.943,1.943,0,0,1,2.373,0,1.405,1.405,0,0,1,0,2.074,1.943,1.943,0,0,1-2.373,0A1.322,1.322,0,0,1,54.131,32.038Zm8.763,8.438,1.5-5.985h3.12L64.415,44H61.391l-3.1-9.51h3.129ZM73.625,44a3.344,3.344,0,0,1-.281-.853,2.754,2.754,0,0,1-2.285,1.028,3.374,3.374,0,0,1-2.285-.813,2.588,2.588,0,0,1-.94-2.043,2.66,2.66,0,0,1,1.143-2.338A5.821,5.821,0,0,1,72.3,38.19h.914v-.5q0-1.316-1.134-1.316a.927.927,0,0,0-1.055,1.042H68.062a2.655,2.655,0,0,1,1.173-2.239,4.931,4.931,0,0,1,2.993-.86A4.323,4.323,0,0,1,75.1,35.2a3.086,3.086,0,0,1,1.081,2.435v4.21a4.311,4.311,0,0,0,.4,2V44Zm-1.854-1.934a1.652,1.652,0,0,0,.918-.237,1.487,1.487,0,0,0,.523-.536V39.772h-.861q-1.547,0-1.547,1.389a.848.848,0,0,0,.272.655A.986.986,0,0,0,71.771,42.066ZM80.947,44H77.976V30.5h2.971Zm6.425.176a4.889,4.889,0,0,1-3.542-1.305,4.507,4.507,0,0,1-1.354-3.4v-.246a5.84,5.84,0,0,1,.541-2.575,3.955,3.955,0,0,1,1.578-1.727,4.763,4.763,0,0,1,2.461-.611,4.117,4.117,0,0,1,3.164,1.244,4.887,4.887,0,0,1,1.16,3.467v1.151H85.491a2.135,2.135,0,0,0,.694,1.257,2.066,2.066,0,0,0,1.389.457,2.662,2.662,0,0,0,2.2-.984l1.354,1.6a3.784,3.784,0,0,1-1.569,1.217A5.3,5.3,0,0,1,87.372,44.176ZM87.038,36.6q-1.3,0-1.547,1.723h2.988v-.229a1.467,1.467,0,0,0-.36-1.1A1.434,1.434,0,0,0,87.038,36.6Zm8.253-2.109.1,1.116A3.225,3.225,0,0,1,98.1,34.314a2.713,2.713,0,0,1,2.219.888,4.226,4.226,0,0,1,.76,2.672V44H98.112V38a1.6,1.6,0,0,0-.29-1.059,1.342,1.342,0,0,0-1.055-.338,1.413,1.413,0,0,0-1.292.686V44H92.513V34.49Zm11.452,7.4a1.317,1.317,0,0,0,.967-.338,1.241,1.241,0,0,0,.334-.945h2.777a3.288,3.288,0,0,1-1.121,2.566,4.168,4.168,0,0,1-2.887,1,4.22,4.22,0,0,1-3.27-1.3,5.125,5.125,0,0,1-1.2-3.6v-.123a5.792,5.792,0,0,1,.532-2.544,3.872,3.872,0,0,1,1.534-1.7,4.573,4.573,0,0,1,2.373-.593,4.116,4.116,0,0,1,2.944,1.028,3.647,3.647,0,0,1,1.09,2.786h-2.777a1.626,1.626,0,0,0-.36-1.134,1.244,1.244,0,0,0-.967-.4q-1.151,0-1.345,1.468a10.357,10.357,0,0,0-.062,1.283,4.068,4.068,0,0,0,.343,1.986A1.187,1.187,0,0,0,106.743,41.891ZM115.2,44h-2.971V34.49H115.2Zm-3.146-11.962A1.322,1.322,0,0,1,112.508,31a1.943,1.943,0,0,1,2.373,0,1.405,1.405,0,0,1,0,2.074,1.943,1.943,0,0,1-2.373,0A1.322,1.322,0,0,1,112.051,32.038ZM122.378,44a3.344,3.344,0,0,1-.281-.853,2.754,2.754,0,0,1-2.285,1.028,3.374,3.374,0,0,1-2.285-.813,2.588,2.588,0,0,1-.94-2.043,2.66,2.66,0,0,1,1.143-2.338,5.821,5.821,0,0,1,3.322-.791h.914v-.5q0-1.316-1.134-1.316a.927.927,0,0,0-1.055,1.042h-2.962a2.655,2.655,0,0,1,1.173-2.239,4.931,4.931,0,0,1,2.993-.86,4.323,4.323,0,0,1,2.874.888,3.086,3.086,0,0,1,1.081,2.435v4.21a4.311,4.311,0,0,0,.4,2V44Zm-1.854-1.934a1.652,1.652,0,0,0,.918-.237,1.487,1.487,0,0,0,.523-.536V39.772H121.1q-1.547,0-1.547,1.389a.848.848,0,0,0,.272.655A.986.986,0,0,0,120.524,42.066ZM46.538,69V61.547h-1.38V59.49h1.38v-.756a3.286,3.286,0,0,1,.958-2.522,3.785,3.785,0,0,1,2.689-.9,5.889,5.889,0,0,1,1.389.185l.009,2.18a2.706,2.706,0,0,0-.729-.079q-1.345,0-1.345,1.16v.729h1.854v2.057H49.508V69Zm5.493-4.843a5.613,5.613,0,0,1,.554-2.536,3.96,3.96,0,0,1,1.591-1.709,4.791,4.791,0,0,1,2.435-.6,4.373,4.373,0,0,1,3.366,1.323,5.076,5.076,0,0,1,1.23,3.6v.105a4.925,4.925,0,0,1-1.235,3.529,4.384,4.384,0,0,1-3.344,1.305,4.434,4.434,0,0,1-3.261-1.217,4.761,4.761,0,0,1-1.327-3.3Zm2.962.185a3.538,3.538,0,0,0,.413,1.934,1.376,1.376,0,0,0,1.222.615q1.582,0,1.617-2.435v-.3q0-2.558-1.635-2.558-1.485,0-1.608,2.206Zm13.271-2.171-.976-.07a1.752,1.752,0,0,0-1.793.879V69H62.534V59.49h2.777l.1,1.222a2.294,2.294,0,0,1,2.083-1.4,2.888,2.888,0,0,1,.826.105Zm3.867-2.681.1,1.116a3.27,3.27,0,0,1,2.716-1.292,2.407,2.407,0,0,1,2.435,1.433,3.165,3.165,0,0,1,2.795-1.433q2.892,0,2.971,3.5V69H80.173V63a1.813,1.813,0,0,0-.246-1.063,1.048,1.048,0,0,0-.9-.334,1.4,1.4,0,0,0-1.31.782l.009.123V69H74.759V63.015a1.906,1.906,0,0,0-.237-1.081,1.045,1.045,0,0,0-.905-.334,1.42,1.42,0,0,0-1.3.782V69H69.354V59.49ZM90.193,69a3.344,3.344,0,0,1-.281-.853,2.754,2.754,0,0,1-2.285,1.028,3.374,3.374,0,0,1-2.285-.813,2.588,2.588,0,0,1-.94-2.043,2.66,2.66,0,0,1,1.143-2.338,5.821,5.821,0,0,1,3.322-.791h.914v-.5q0-1.316-1.134-1.316a.927.927,0,0,0-1.055,1.042H84.629A2.655,2.655,0,0,1,85.8,60.175a4.931,4.931,0,0,1,2.993-.86,4.323,4.323,0,0,1,2.874.888,3.086,3.086,0,0,1,1.081,2.435v4.21a4.311,4.311,0,0,0,.4,2V69Zm-1.854-1.934a1.652,1.652,0,0,0,.918-.237,1.487,1.487,0,0,0,.523-.536V64.772h-.861q-1.547,0-1.547,1.389a.848.848,0,0,0,.272.655A.986.986,0,0,0,88.338,67.066ZM97.514,69H94.543V55.5h2.971Zm3.656-2.874a1.686,1.686,0,0,1,1.169.417,1.457,1.457,0,0,1,0,2.136,1.844,1.844,0,0,1-2.342,0,1.456,1.456,0,0,1,0-2.127A1.672,1.672,0,0,1,101.17,66.126Z" transform="translate(948.792 1577)" fill="#fff"/><rect width="217.597" height="88.702" rx="10" transform="translate(915 1672.794)" fill="#387db8"/><path d="M25.031,16.627H30.4V19H21.946V6.2h3.085ZM36.923,19a3.344,3.344,0,0,1-.281-.853,2.754,2.754,0,0,1-2.285,1.028,3.374,3.374,0,0,1-2.285-.813,2.588,2.588,0,0,1-.94-2.043,2.66,2.66,0,0,1,1.143-2.338A5.821,5.821,0,0,1,35.6,13.19h.914v-.5q0-1.316-1.134-1.316a.927.927,0,0,0-1.055,1.042H31.359a2.655,2.655,0,0,1,1.173-2.239,4.931,4.931,0,0,1,2.993-.86A4.323,4.323,0,0,1,38.4,10.2a3.086,3.086,0,0,1,1.081,2.435v4.21a4.311,4.311,0,0,0,.4,2V19Zm-1.854-1.934a1.652,1.652,0,0,0,.918-.237,1.487,1.487,0,0,0,.523-.536V14.772h-.861q-1.547,0-1.547,1.389a.848.848,0,0,0,.272.655A.986.986,0,0,0,35.068,17.066Zm13.983-9.94V9.49h1.564v2.057H49.052V15.9a1.111,1.111,0,0,0,.193.747,1.037,1.037,0,0,0,.765.211,4.345,4.345,0,0,0,.738-.053v2.118a5.466,5.466,0,0,1-1.67.255,3.1,3.1,0,0,1-2.259-.721,2.954,2.954,0,0,1-.729-2.188v-4.72H44.877V9.49H46.09V7.126Zm8.481,5.045-.976-.07a1.752,1.752,0,0,0-1.793.879V19H51.8V9.49H54.58l.1,1.222a2.294,2.294,0,0,1,2.083-1.4,2.888,2.888,0,0,1,.826.105ZM63.694,19a3.344,3.344,0,0,1-.281-.853,2.754,2.754,0,0,1-2.285,1.028,3.374,3.374,0,0,1-2.285-.813,2.588,2.588,0,0,1-.94-2.043,2.66,2.66,0,0,1,1.143-2.338,5.821,5.821,0,0,1,3.322-.791h.914v-.5q0-1.316-1.134-1.316a.927.927,0,0,0-1.055,1.042H58.131A2.655,2.655,0,0,1,59.3,10.175a4.931,4.931,0,0,1,2.993-.86,4.323,4.323,0,0,1,2.874.888,3.086,3.086,0,0,1,1.081,2.435v4.21a4.311,4.311,0,0,0,.4,2V19ZM61.84,17.066a1.652,1.652,0,0,0,.918-.237,1.487,1.487,0,0,0,.523-.536V14.772H62.42q-1.547,0-1.547,1.389a.848.848,0,0,0,.272.655A.986.986,0,0,0,61.84,17.066Zm5.678-2.892a5.809,5.809,0,0,1,.976-3.56,3.211,3.211,0,0,1,2.725-1.3,2.731,2.731,0,0,1,2.145,1V5.5h2.971V19H73.67l-.149-1.02a2.8,2.8,0,0,1-2.32,1.2,3.205,3.205,0,0,1-2.689-1.3A5.993,5.993,0,0,1,67.518,14.175Zm2.962.185q0,2.531,1.477,2.531a1.458,1.458,0,0,0,1.406-.826V12.443a1.419,1.419,0,0,0-1.389-.844q-1.371,0-1.485,2.215Zm13.2,3.612a3.054,3.054,0,0,1-2.54,1.2,3,3,0,0,1-2.369-.91,3.826,3.826,0,0,1-.8-2.615V9.49H80.93v6.179a1.065,1.065,0,0,0,1.187,1.222,1.548,1.548,0,0,0,1.45-.729V9.49h2.979V19H83.768Zm8.508-1.081a1.317,1.317,0,0,0,.967-.338,1.241,1.241,0,0,0,.334-.945h2.777a3.288,3.288,0,0,1-1.121,2.566,4.168,4.168,0,0,1-2.887,1,4.22,4.22,0,0,1-3.27-1.3,5.125,5.125,0,0,1-1.2-3.6v-.123a5.792,5.792,0,0,1,.532-2.544,3.872,3.872,0,0,1,1.534-1.7,4.573,4.573,0,0,1,2.373-.593,4.116,4.116,0,0,1,2.944,1.028,3.647,3.647,0,0,1,1.09,2.786H93.489A1.626,1.626,0,0,0,93.129,12a1.244,1.244,0,0,0-.967-.4q-1.151,0-1.345,1.468a10.357,10.357,0,0,0-.062,1.283,4.068,4.068,0,0,0,.343,1.986A1.187,1.187,0,0,0,92.188,16.891Zm9.352,0a1.317,1.317,0,0,0,.967-.338,1.241,1.241,0,0,0,.334-.945h2.777a3.288,3.288,0,0,1-1.121,2.566,4.168,4.168,0,0,1-2.887,1,4.22,4.22,0,0,1-3.27-1.3,5.125,5.125,0,0,1-1.2-3.6v-.123a5.792,5.792,0,0,1,.532-2.544,3.872,3.872,0,0,1,1.534-1.7,4.573,4.573,0,0,1,2.373-.593,4.116,4.116,0,0,1,2.944,1.028,3.647,3.647,0,0,1,1.09,2.786h-2.777A1.626,1.626,0,0,0,102.48,12a1.244,1.244,0,0,0-.967-.4q-1.151,0-1.345,1.468a10.357,10.357,0,0,0-.062,1.283,4.068,4.068,0,0,0,.343,1.986A1.187,1.187,0,0,0,101.54,16.891ZM110,19h-2.971V9.49H110ZM106.849,7.038A1.322,1.322,0,0,1,107.306,6a1.943,1.943,0,0,1,2.373,0,1.322,1.322,0,0,1,.457,1.037,1.322,1.322,0,0,1-.457,1.037,1.943,1.943,0,0,1-2.373,0A1.322,1.322,0,0,1,106.849,7.038Zm4.6,7.119A5.613,5.613,0,0,1,112,11.622a3.96,3.96,0,0,1,1.591-1.709,4.791,4.791,0,0,1,2.435-.6,4.373,4.373,0,0,1,3.366,1.323,5.076,5.076,0,0,1,1.23,3.6v.105a4.925,4.925,0,0,1-1.235,3.529,4.384,4.384,0,0,1-3.344,1.305,4.434,4.434,0,0,1-3.261-1.217,4.761,4.761,0,0,1-1.327-3.3Zm2.962.185a3.538,3.538,0,0,0,.413,1.934,1.376,1.376,0,0,0,1.222.615q1.582,0,1.617-2.435v-.3q0-2.558-1.635-2.558-1.485,0-1.608,2.206ZM116.429,5.5h3.129l-2.443,2.76-2.417,0Zm8.218,3.99.1,1.116a3.225,3.225,0,0,1,2.716-1.292,2.713,2.713,0,0,1,2.219.888,4.226,4.226,0,0,1,.76,2.672V19h-2.971V13a1.6,1.6,0,0,0-.29-1.059,1.342,1.342,0,0,0-1.055-.338,1.413,1.413,0,0,0-1.292.686V19h-2.962V9.49Zm11.54,4.685a5.809,5.809,0,0,1,.976-3.56,3.211,3.211,0,0,1,2.725-1.3,2.731,2.731,0,0,1,2.145,1V5.5H145V19h-2.663l-.149-1.02a2.8,2.8,0,0,1-2.32,1.2,3.205,3.205,0,0,1-2.689-1.3A5.993,5.993,0,0,1,136.186,14.175Zm2.962.185q0,2.531,1.477,2.531a1.458,1.458,0,0,0,1.406-.826V12.443a1.419,1.419,0,0,0-1.389-.844q-1.371,0-1.485,2.215Zm12.138,4.816a4.889,4.889,0,0,1-3.542-1.305,4.507,4.507,0,0,1-1.354-3.4v-.246a5.84,5.84,0,0,1,.541-2.575,3.955,3.955,0,0,1,1.578-1.727,4.763,4.763,0,0,1,2.461-.611,4.117,4.117,0,0,1,3.164,1.244,4.887,4.887,0,0,1,1.16,3.467v1.151h-5.889a2.135,2.135,0,0,0,.694,1.257,2.066,2.066,0,0,0,1.389.457,2.662,2.662,0,0,0,2.2-.984l1.354,1.6a3.784,3.784,0,0,1-1.569,1.217A5.3,5.3,0,0,1,151.286,19.176Zm-.334-7.576q-1.3,0-1.547,1.723h2.988v-.229a1.467,1.467,0,0,0-.36-1.1A1.434,1.434,0,0,0,150.952,11.6ZM42.5,44.176a4.889,4.889,0,0,1-3.542-1.305,4.507,4.507,0,0,1-1.354-3.4v-.246a5.84,5.84,0,0,1,.541-2.575,3.955,3.955,0,0,1,1.578-1.727,4.763,4.763,0,0,1,2.461-.611,4.117,4.117,0,0,1,3.164,1.244,4.887,4.887,0,0,1,1.16,3.467v1.151H40.623a2.135,2.135,0,0,0,.694,1.257,2.066,2.066,0,0,0,1.389.457,2.662,2.662,0,0,0,2.2-.984l1.354,1.6a3.784,3.784,0,0,1-1.569,1.217A5.3,5.3,0,0,1,42.5,44.176ZM42.17,36.6q-1.3,0-1.547,1.723h2.988v-.229a1.467,1.467,0,0,0-.36-1.1A1.434,1.434,0,0,0,42.17,36.6Zm5.159,2.549a5.709,5.709,0,0,1,.984-3.551,3.233,3.233,0,0,1,2.716-1.283,2.761,2.761,0,0,1,2.338,1.2l.211-1.02h2.566V47.656H53.174V43.209a2.757,2.757,0,0,1-2.162.967,3.2,3.2,0,0,1-2.685-1.305A6.027,6.027,0,0,1,47.329,39.148Zm2.962.185q0,2.558,1.477,2.558a1.43,1.43,0,0,0,1.406-.773V37.355a1.4,1.4,0,0,0-1.389-.756q-1.38,0-1.485,2.206Zm13.192,3.639a3.054,3.054,0,0,1-2.54,1.2,3,3,0,0,1-2.369-.91,3.826,3.826,0,0,1-.8-2.615V34.49h2.962v6.179a1.065,1.065,0,0,0,1.187,1.222,1.548,1.548,0,0,0,1.45-.729V34.49h2.979V44H63.571ZM71.095,44H68.124V34.49h2.971ZM67.948,32.038A1.322,1.322,0,0,1,68.405,31a1.943,1.943,0,0,1,2.373,0,1.405,1.405,0,0,1,0,2.074,1.943,1.943,0,0,1-2.373,0A1.322,1.322,0,0,1,67.948,32.038Zm8.763,8.438,1.5-5.985h3.12L78.231,44H75.208l-3.1-9.51h3.129ZM87.442,44a3.344,3.344,0,0,1-.281-.853,2.754,2.754,0,0,1-2.285,1.028,3.374,3.374,0,0,1-2.285-.813,2.588,2.588,0,0,1-.94-2.043,2.66,2.66,0,0,1,1.143-2.338,5.821,5.821,0,0,1,3.322-.791h.914v-.5q0-1.316-1.134-1.316a.927.927,0,0,0-1.055,1.042H81.879a2.655,2.655,0,0,1,1.173-2.239,4.931,4.931,0,0,1,2.993-.86,4.323,4.323,0,0,1,2.874.888A3.086,3.086,0,0,1,90,37.637v4.21a4.311,4.311,0,0,0,.4,2V44Zm-1.854-1.934a1.652,1.652,0,0,0,.918-.237,1.487,1.487,0,0,0,.523-.536V39.772h-.861q-1.547,0-1.547,1.389a.848.848,0,0,0,.272.655A.986.986,0,0,0,85.588,42.066ZM94.764,44H91.793V30.5h2.971Zm6.425.176a4.889,4.889,0,0,1-3.542-1.305,4.507,4.507,0,0,1-1.354-3.4v-.246a5.84,5.84,0,0,1,.541-2.575,3.955,3.955,0,0,1,1.578-1.727,4.763,4.763,0,0,1,2.461-.611,4.117,4.117,0,0,1,3.164,1.244,4.887,4.887,0,0,1,1.16,3.467v1.151H99.308A2.135,2.135,0,0,0,100,41.434a2.066,2.066,0,0,0,1.389.457,2.662,2.662,0,0,0,2.2-.984l1.354,1.6a3.784,3.784,0,0,1-1.569,1.217A5.3,5.3,0,0,1,101.188,44.176Zm-.334-7.576q-1.3,0-1.547,1.723H102.3v-.229a1.467,1.467,0,0,0-.36-1.1A1.434,1.434,0,0,0,100.854,36.6Zm8.253-2.109.1,1.116a3.225,3.225,0,0,1,2.716-1.292,2.713,2.713,0,0,1,2.219.888,4.226,4.226,0,0,1,.76,2.672V44h-2.971V38a1.6,1.6,0,0,0-.29-1.059,1.342,1.342,0,0,0-1.055-.338,1.413,1.413,0,0,0-1.292.686V44H106.33V34.49Zm11.452,7.4a1.317,1.317,0,0,0,.967-.338,1.241,1.241,0,0,0,.334-.945h2.777a3.288,3.288,0,0,1-1.121,2.566,4.168,4.168,0,0,1-2.887,1,4.22,4.22,0,0,1-3.27-1.3,5.125,5.125,0,0,1-1.2-3.6v-.123A5.792,5.792,0,0,1,116.7,36.6a3.872,3.872,0,0,1,1.534-1.7,4.573,4.573,0,0,1,2.373-.593,4.116,4.116,0,0,1,2.944,1.028,3.647,3.647,0,0,1,1.09,2.786H121.86A1.626,1.626,0,0,0,121.5,37a1.244,1.244,0,0,0-.967-.4q-1.151,0-1.345,1.468a10.357,10.357,0,0,0-.062,1.283,4.068,4.068,0,0,0,.343,1.986A1.187,1.187,0,0,0,120.56,41.891ZM129.015,44h-2.971V34.49h2.971Zm-3.146-11.962A1.322,1.322,0,0,1,126.325,31a1.943,1.943,0,0,1,2.373,0,1.405,1.405,0,0,1,0,2.074,1.943,1.943,0,0,1-2.373,0A1.322,1.322,0,0,1,125.868,32.038ZM136.2,44a3.344,3.344,0,0,1-.281-.853,2.754,2.754,0,0,1-2.285,1.028,3.374,3.374,0,0,1-2.285-.813,2.588,2.588,0,0,1-.94-2.043,2.66,2.66,0,0,1,1.143-2.338,5.821,5.821,0,0,1,3.322-.791h.914v-.5q0-1.316-1.134-1.316a.927.927,0,0,0-1.055,1.042h-2.962a2.655,2.655,0,0,1,1.173-2.239,4.931,4.931,0,0,1,2.993-.86,4.323,4.323,0,0,1,2.874.888,3.086,3.086,0,0,1,1.081,2.435v4.21a4.311,4.311,0,0,0,.4,2V44Zm-1.854-1.934a1.652,1.652,0,0,0,.918-.237,1.487,1.487,0,0,0,.523-.536V39.772h-.861q-1.547,0-1.547,1.389a.848.848,0,0,0,.272.655A.986.986,0,0,0,134.341,42.066ZM48.986,64.175a5.809,5.809,0,0,1,.976-3.56,3.211,3.211,0,0,1,2.725-1.3,2.731,2.731,0,0,1,2.145,1V55.5H57.8V69H55.138l-.149-1.02a2.8,2.8,0,0,1-2.32,1.2,3.205,3.205,0,0,1-2.689-1.3A5.993,5.993,0,0,1,48.986,64.175Zm2.962.185q0,2.531,1.477,2.531a1.458,1.458,0,0,0,1.406-.826V62.443a1.419,1.419,0,0,0-1.389-.844q-1.371,0-1.485,2.215ZM62.609,69H59.638V59.49h2.971ZM59.462,57.038A1.322,1.322,0,0,1,59.919,56a1.943,1.943,0,0,1,2.373,0,1.405,1.405,0,0,1,0,2.074,1.943,1.943,0,0,1-2.373,0A1.322,1.322,0,0,1,59.462,57.038Zm7.69,2.452.1,1.116a3.225,3.225,0,0,1,2.716-1.292,2.713,2.713,0,0,1,2.219.888,4.226,4.226,0,0,1,.76,2.672V69H69.974V63a1.6,1.6,0,0,0-.29-1.059,1.342,1.342,0,0,0-1.055-.338,1.413,1.413,0,0,0-1.292.686V69H64.375V59.49ZM79.941,69a3.344,3.344,0,0,1-.281-.853,2.754,2.754,0,0,1-2.285,1.028,3.374,3.374,0,0,1-2.285-.813,2.588,2.588,0,0,1-.94-2.043,2.66,2.66,0,0,1,1.143-2.338,5.821,5.821,0,0,1,3.322-.791h.914v-.5q0-1.316-1.134-1.316a.927.927,0,0,0-1.055,1.042H74.377a2.655,2.655,0,0,1,1.173-2.239,4.931,4.931,0,0,1,2.993-.86,4.323,4.323,0,0,1,2.874.888A3.086,3.086,0,0,1,82.5,62.637v4.21a4.311,4.311,0,0,0,.4,2V69Zm-1.854-1.934A1.652,1.652,0,0,0,79,66.829a1.487,1.487,0,0,0,.523-.536V64.772h-.861q-1.547,0-1.547,1.389a.848.848,0,0,0,.272.655A.986.986,0,0,0,78.086,67.066ZM78.825,55.5h3.129L79.51,58.26l-2.417,0Zm8.112,3.99.1,1.116a3.27,3.27,0,0,1,2.716-1.292,2.407,2.407,0,0,1,2.435,1.433,3.165,3.165,0,0,1,2.795-1.433q2.892,0,2.971,3.5V69H94.979V63a1.813,1.813,0,0,0-.246-1.063,1.048,1.048,0,0,0-.9-.334,1.4,1.4,0,0,0-1.31.782l.009.123V69H89.565V63.015a1.906,1.906,0,0,0-.237-1.081,1.045,1.045,0,0,0-.905-.334,1.42,1.42,0,0,0-1.3.782V69H84.16V59.49ZM102.766,69H99.8V59.49h2.971ZM99.62,57.038A1.322,1.322,0,0,1,100.077,56a1.943,1.943,0,0,1,2.373,0,1.405,1.405,0,0,1,0,2.074,1.943,1.943,0,0,1-2.373,0A1.322,1.322,0,0,1,99.62,57.038Zm8.991,9.853a1.317,1.317,0,0,0,.967-.338,1.241,1.241,0,0,0,.334-.945h2.777a3.288,3.288,0,0,1-1.121,2.566,4.168,4.168,0,0,1-2.887,1,4.22,4.22,0,0,1-3.27-1.3,5.125,5.125,0,0,1-1.2-3.6v-.123a5.792,5.792,0,0,1,.532-2.544,3.872,3.872,0,0,1,1.534-1.7,4.573,4.573,0,0,1,2.373-.593,4.116,4.116,0,0,1,2.944,1.028,3.647,3.647,0,0,1,1.09,2.786h-2.777a1.626,1.626,0,0,0-.36-1.134,1.244,1.244,0,0,0-.967-.4q-1.151,0-1.345,1.468a10.357,10.357,0,0,0-.062,1.283,4.068,4.068,0,0,0,.343,1.986A1.187,1.187,0,0,0,108.611,66.891ZM119.3,69a3.344,3.344,0,0,1-.281-.853,2.754,2.754,0,0,1-2.285,1.028,3.374,3.374,0,0,1-2.285-.813,2.588,2.588,0,0,1-.94-2.043,2.66,2.66,0,0,1,1.143-2.338,5.821,5.821,0,0,1,3.322-.791h.914v-.5q0-1.316-1.134-1.316a.927.927,0,0,0-1.055,1.042h-2.962a2.655,2.655,0,0,1,1.173-2.239,4.931,4.931,0,0,1,2.993-.86,4.323,4.323,0,0,1,2.874.888,3.086,3.086,0,0,1,1.081,2.435v4.21a4.311,4.311,0,0,0,.4,2V69Zm-1.854-1.934a1.652,1.652,0,0,0,.918-.237,1.487,1.487,0,0,0,.523-.536V64.772h-.861q-1.547,0-1.547,1.389a.848.848,0,0,0,.272.655A.986.986,0,0,0,117.444,67.066Zm7.884-.94a1.686,1.686,0,0,1,1.169.417,1.457,1.457,0,0,1,0,2.136,1.844,1.844,0,0,1-2.342,0,1.456,1.456,0,0,1,0-2.127A1.672,1.672,0,0,1,125.328,66.126Z" transform="translate(935.91 1679.328)" fill="#fff"/></g></svg>