<svg xmlns="http://www.w3.org/2000/svg" xmlns:xlink="http://www.w3.org/1999/xlink" width="61.893" height="45.571" viewBox="0 0 61.893 45.571">
  <defs>
    <clipPath id="clip-path">
      <rect id="Rectángulo_34177" data-name="Rectángulo 34177" width="61.893" height="45.571" fill="#1dd1ff"/>
    </clipPath>
  </defs>
  <g id="Grupo_80895" data-name="Grupo 80895" transform="translate(0 0)">
    <g id="Grupo_80894" data-name="Grupo 80894" transform="translate(0 0)" clip-path="url(#clip-path)">
      <path id="Trazado_116299" data-name="Trazado 116299" d="M31.169,26.463H1.665a.8.8,0,0,1-.8-.8V19.63A15.625,15.625,0,0,1,8.535,6.224a.8.8,0,1,1,.81,1.371A14.03,14.03,0,0,0,2.459,19.63v5.242H30.371V19.63A14.018,14.018,0,0,0,23.489,7.6a.8.8,0,0,1,.81-1.374A15.629,15.629,0,0,1,31.966,19.63v6.036a.8.8,0,0,1-.8.8" transform="translate(1.992 14.027)" fill="#1dd1ff"/>
      <path id="Trazado_116300" data-name="Trazado 116300" d="M11.35,16.542A8.271,8.271,0,1,1,19.623,8.27a8.283,8.283,0,0,1-8.273,8.273m0-14.951A6.68,6.68,0,1,0,18.028,8.27,6.684,6.684,0,0,0,11.35,1.591" transform="translate(7.061 -0.001)" fill="#1dd1ff"/>
      <path id="Trazado_116301" data-name="Trazado 116301" d="M61.1,13.4H.8a.8.8,0,1,1,0-1.591H61.1a.8.8,0,1,1,0,1.591" transform="translate(0 27.092)" fill="#1dd1ff"/>
      <path id="Trazado_116302" data-name="Trazado 116302" d="M61.1,14.94H.8a.8.8,0,1,1,0-1.591H61.1a.8.8,0,1,1,0,1.591" transform="translate(0 30.63)" fill="#1dd1ff"/>
      <path id="Trazado_116303" data-name="Trazado 116303" d="M29.46,17.425H15.8a3.687,3.687,0,0,1,0-7.373H29.46a.8.8,0,1,1,0,1.591H15.8a2.1,2.1,0,0,0,0,4.191H29.46a.8.8,0,1,1,0,1.591" transform="translate(27.797 23.065)" fill="#1dd1ff"/>
      <path id="Trazado_116304" data-name="Trazado 116304" d="M29.723,13.915H16.064a3.687,3.687,0,1,1,0-7.373h13.66a.8.8,0,1,1,0,1.591H16.064a2.1,2.1,0,1,0,0,4.191h13.66a.8.8,0,1,1,0,1.591" transform="translate(28.401 15.011)" fill="#1dd1ff"/>
      <path id="Trazado_116305" data-name="Trazado 116305" d="M26.174,15.673H12.514a.8.8,0,1,1,0-1.591h13.66a2.1,2.1,0,0,0,0-4.191H12.514a.8.8,0,0,1,0-1.595h13.66a3.688,3.688,0,0,1,0,7.377" transform="translate(26.886 19.035)" fill="#1dd1ff"/>
      <path id="Trazado_116306" data-name="Trazado 116306" d="M21.186,10.765H12.91a.8.8,0,1,1,0-1.591h8.276a.8.8,0,1,1,0,1.591" transform="translate(27.795 21.05)" fill="#1dd1ff"/>
      <path id="Trazado_116307" data-name="Trazado 116307" d="M22.087,9.01H15.87a.8.8,0,0,1,0-1.591h6.217a.8.8,0,0,1,0,1.591" transform="translate(34.594 17.023)" fill="#1dd1ff"/>
      <path id="Trazado_116308" data-name="Trazado 116308" d="M21.637,12.52H15.42a.8.8,0,0,1,0-1.591h6.217a.8.8,0,1,1,0,1.591" transform="translate(33.561 25.077)" fill="#1dd1ff"/>
      <path id="Trazado_116309" data-name="Trazado 116309" d="M10.673,14.724a.795.795,0,0,1-.629-1.282L12.4,10.391a4.944,4.944,0,0,1-1.98-3.762c0-3.535,4.461-6.3,10.157-6.3S30.73,3.093,30.73,6.629s-4.461,6.3-10.157,6.3a16.575,16.575,0,0,1-2.814-.241l-6.863,2a.753.753,0,0,1-.224.033m9.9-12.806c-4.642,0-8.566,2.158-8.566,4.711a3.774,3.774,0,0,0,1.957,2.952.792.792,0,0,1,.185,1.147L12.8,12.477l4.7-1.367a.777.777,0,0,1,.369-.02,14.709,14.709,0,0,0,2.708.25c4.642,0,8.566-2.158,8.566-4.711s-3.924-4.711-8.566-4.711" transform="translate(22.662 0.747)" fill="#1dd1ff"/>
      <path id="Trazado_116310" data-name="Trazado 116310" d="M20.242,3.125H12.489a.8.8,0,1,1,0-1.591h7.752a.8.8,0,1,1,0,1.591" transform="translate(26.829 3.519)" fill="#1dd1ff"/>
      <path id="Trazado_116311" data-name="Trazado 116311" d="M20.173,4.112H12.42a.8.8,0,1,1,0-1.591h7.752a.8.8,0,1,1,0,1.591" transform="translate(26.671 5.784)" fill="#1dd1ff"/>
    </g>
  </g>
</svg>
