<svg xmlns="http://www.w3.org/2000/svg" xmlns:xlink="http://www.w3.org/1999/xlink" width="180.126" height="125.509" viewBox="0 0 180.126 125.509"><defs><clipPath id="a"><rect width="64.432" height="112.91" fill="none"/></clipPath></defs><g transform="translate(-6769.784 2544.484)"><g transform="translate(6769.784 -2540.91)"><g clip-path="url(#a)"><path d="M58.865,28.959a5.091,5.091,0,0,0-5.091,5.091v7.755h-.647V32.076a6.8,6.8,0,1,0-13.593,0v9.729h-.905V29.618a6.8,6.8,0,1,0-13.593,0V41.805H24.13V8.9a6.8,6.8,0,1,0-13.593,0V43.452A5.914,5.914,0,0,0,4.875,47.66L2.721,54.8A14.811,14.811,0,0,0,5,67.9l8.263,11.541q.424.652.9,1.261l.055.077.021.02a16.947,16.947,0,0,0,13.274,6.4H46.971A16.984,16.984,0,0,0,63.956,70.212V34.05a5.091,5.091,0,0,0-5.091-5.091" transform="translate(-0.81 -0.814)" fill="#f0c6bf"/><path d="M22.677,2.1h0a6.8,6.8,0,0,0-6.8,6.8v5.146a6.8,6.8,0,1,1,13.593,0V8.9a6.8,6.8,0,0,0-6.8-6.8" transform="translate(-6.152 -0.814)" fill="#f2e1de"/><path d="M46.344,35.927a6.8,6.8,0,0,0-6.8,6.8V47.87a6.8,6.8,0,1,1,13.593,0V42.724a6.8,6.8,0,0,0-6.8-6.8" transform="translate(-15.321 -13.919)" fill="#f2e1de"/><path d="M70.012,39.94a6.8,6.8,0,0,0-6.8,6.8v5.146a6.8,6.8,0,0,1,13.593,0V46.737a6.8,6.8,0,0,0-6.8-6.8" transform="translate(-24.491 -15.473)" fill="#f2e1de"/><path d="M33.084,99.463c-.535.141-1.025.289-1.464.448-.23.086-.461.172-.687.273v5.146A12.441,12.441,0,0,1,45.5,108.668a12.275,12.275,0,0,1,2.648,5.454,12.409,12.409,0,0,0-15.06-14.658" transform="translate(-11.984 -38.4)" fill="#f2e1de"/><path d="M2.722,86.1l2.154-7.144a5.915,5.915,0,0,1,5.663-4.207h24.3A5.191,5.191,0,0,1,39.608,77.9a11.7,11.7,0,0,0,.419-3.1,5.19,5.19,0,0,0-5.19-5.19h-24.3a5.914,5.914,0,0,0-5.663,4.208L2.722,80.956a14.807,14.807,0,0,0-.4,6.846,14.921,14.921,0,0,1,.4-1.7" transform="translate(-0.81 -26.966)" fill="#f2e1de"/><path d="M41.256,134.279a12.456,12.456,0,0,0,2.681-10.648,12.294,12.294,0,0,1-2.742,5.552c-4.784,5.5-14.93,3.747-20-1.32l-1.114-1.555a17.075,17.075,0,0,0,6.284,5.922v27.29h35.7V132.212a16.9,16.9,0,0,1-8.125,2.067Z" transform="translate(-7.781 -47.897)" fill="#e99f96"/><path d="M69.683,79.5a6.8,6.8,0,0,0,7.125-6.789V67.562a6.8,6.8,0,0,1-7.125,6.789,6.923,6.923,0,0,1-6.468-6.98v5.146a6.923,6.923,0,0,0,6.468,6.98" transform="translate(-24.491 -26.1)" fill="#e99f96"/><path d="M25.786,94a12.442,12.442,0,0,1,13.2,1.968,11.708,11.708,0,0,0,7.067-10.75,5.173,5.173,0,0,0-.423-2.052,11.71,11.71,0,0,1-11.284,8.588h-16.7L19.21,94Z" transform="translate(-6.836 -32.222)" fill="#e99f96"/><path d="M91.213,75.438a5.206,5.206,0,0,1-4.752-5.254V75.33a5.207,5.207,0,0,0,4.752,5.254,5.091,5.091,0,0,0,5.429-5.08V70.358a5.091,5.091,0,0,1-5.429,5.08" transform="translate(-33.496 -27.191)" fill="#e99f96"/><path d="M91.552,45.946h0a5.091,5.091,0,0,0-5.091,5.091v5.146a5.091,5.091,0,1,1,10.181,0V51.037a5.091,5.091,0,0,0-5.091-5.091" transform="translate(-33.496 -17.8)" fill="#f2e1de"/><path d="M58.055,26.859a6.358,6.358,0,0,0-4.774,2.164,8.092,8.092,0,0,0-7.76-5.843h0a8.08,8.08,0,0,0-6.693,3.557,8.064,8.064,0,0,0-14.22-2.83V8.083a8.083,8.083,0,0,0-16.167,0V41.466a7.15,7.15,0,0,0-5.608,5.009L.679,53.619A16.158,16.158,0,0,0,3.149,67.837L11.4,79.355c.291.448.606.887.936,1.308l.037.053a1.25,1.25,0,0,0,.109.132A18.25,18.25,0,0,0,17.3,85.061v26.563a1.286,1.286,0,0,0,1.286,1.286h35.7a1.286,1.286,0,0,0,1.286-1.286V85.061A18.275,18.275,0,0,0,64.432,69.4V33.236a6.384,6.384,0,0,0-6.377-6.377m-3.8,6.377a3.8,3.8,0,0,1,7.608,0v9.931a3.8,3.8,0,0,1-4.059,3.8,3.9,3.9,0,0,1-3.549-3.97Zm-14.24-1.974a5.51,5.51,0,0,1,11.02,0v10.2a5.51,5.51,0,0,1-5.778,5.5,5.67,5.67,0,0,1-5.242-5.7ZM25.512,28.8a5.51,5.51,0,1,1,11.02,0V41.461c0,.13-.008.26-.017.39a6.439,6.439,0,0,0-2.488-.5h-8.51c0-.028,0-.055,0-.083ZM11.014,8.083a5.51,5.51,0,0,1,11.02,0V41.352H11.017c0-.028,0-.055,0-.083Zm42.656,75.1A1.287,1.287,0,0,0,53,84.315v26.022H19.873V84.316a1.287,1.287,0,0,0-.67-1.13,15.676,15.676,0,0,1-4.76-4l-.032-.039,0,0-.036-.048c-.295-.374-.575-.766-.834-1.165-.01-.017-.021-.032-.033-.049L5.228,66.321A13.585,13.585,0,0,1,3.142,54.362L5.3,47.218a4.6,4.6,0,0,1,4.431-3.293h24.3a3.908,3.908,0,0,1,3.9,3.9A10.433,10.433,0,0,1,27.509,58.25H11.537a1.286,1.286,0,1,0,0,2.573h5.521l.731,1.519a1.286,1.286,0,0,0,1.682.617A11.152,11.152,0,0,1,32.443,80.443a1.287,1.287,0,0,0,1.943,1.688A13.756,13.756,0,0,0,29.694,60.64,13.016,13.016,0,0,0,40.5,47.829c0-.025,0-.05,0-.075a7.908,7.908,0,0,0,4.632,1.781c.132.006.263.009.395.009A8.009,8.009,0,0,0,51.1,47.31a8.128,8.128,0,0,0,1.215-1.478,6.362,6.362,0,0,0,5.319,3.7c.143.009.287.014.429.014a6.3,6.3,0,0,0,3.8-1.263V69.4A15.7,15.7,0,0,1,53.67,83.186" transform="translate(0)" fill="#540836"/></g></g><g transform="translate(6908.494 -2540.91) rotate(50)" opacity="0.37"><g clip-path="url(#a)"><path d="M58.865,28.959a5.091,5.091,0,0,0-5.091,5.091v7.755h-.647V32.076a6.8,6.8,0,1,0-13.593,0v9.729h-.905V29.618a6.8,6.8,0,1,0-13.593,0V41.805H24.13V8.9a6.8,6.8,0,1,0-13.593,0V43.452A5.914,5.914,0,0,0,4.875,47.66L2.721,54.8A14.811,14.811,0,0,0,5,67.9l8.263,11.541q.424.652.9,1.261l.055.077.021.02a16.947,16.947,0,0,0,13.274,6.4H46.971A16.984,16.984,0,0,0,63.956,70.212V34.05a5.091,5.091,0,0,0-5.091-5.091" transform="translate(-0.81 -0.814)" fill="#f0c6bf"/><path d="M22.677,2.1h0a6.8,6.8,0,0,0-6.8,6.8v5.146a6.8,6.8,0,1,1,13.593,0V8.9a6.8,6.8,0,0,0-6.8-6.8" transform="translate(-6.152 -0.814)" fill="#f2e1de"/><path d="M46.344,35.927a6.8,6.8,0,0,0-6.8,6.8V47.87a6.8,6.8,0,1,1,13.593,0V42.724a6.8,6.8,0,0,0-6.8-6.8" transform="translate(-15.321 -13.919)" fill="#f2e1de"/><path d="M70.012,39.94a6.8,6.8,0,0,0-6.8,6.8v5.146a6.8,6.8,0,0,1,13.593,0V46.737a6.8,6.8,0,0,0-6.8-6.8" transform="translate(-24.491 -15.473)" fill="#f2e1de"/><path d="M33.084,99.463c-.535.141-1.025.289-1.464.448-.23.086-.461.172-.687.273v5.146A12.441,12.441,0,0,1,45.5,108.668a12.275,12.275,0,0,1,2.648,5.454,12.409,12.409,0,0,0-15.06-14.658" transform="translate(-11.984 -38.4)" fill="#f2e1de"/><path d="M2.722,86.1l2.154-7.144a5.915,5.915,0,0,1,5.663-4.207h24.3A5.191,5.191,0,0,1,39.608,77.9a11.7,11.7,0,0,0,.419-3.1,5.19,5.19,0,0,0-5.19-5.19h-24.3a5.914,5.914,0,0,0-5.663,4.208L2.722,80.956a14.807,14.807,0,0,0-.4,6.846,14.921,14.921,0,0,1,.4-1.7" transform="translate(-0.81 -26.966)" fill="#f2e1de"/><path d="M41.256,134.279a12.456,12.456,0,0,0,2.681-10.648,12.294,12.294,0,0,1-2.742,5.552c-4.784,5.5-14.93,3.747-20-1.32l-1.114-1.555a17.075,17.075,0,0,0,6.284,5.922v27.29h35.7V132.212a16.9,16.9,0,0,1-8.125,2.067Z" transform="translate(-7.781 -47.897)" fill="#e99f96"/><path d="M69.683,79.5a6.8,6.8,0,0,0,7.125-6.789V67.562a6.8,6.8,0,0,1-7.125,6.789,6.923,6.923,0,0,1-6.468-6.98v5.146a6.923,6.923,0,0,0,6.468,6.98" transform="translate(-24.491 -26.1)" fill="#e99f96"/><path d="M25.786,94a12.442,12.442,0,0,1,13.2,1.968,11.708,11.708,0,0,0,7.067-10.75,5.173,5.173,0,0,0-.423-2.052,11.71,11.71,0,0,1-11.284,8.588h-16.7L19.21,94Z" transform="translate(-6.836 -32.222)" fill="#e99f96"/><path d="M91.213,75.438a5.206,5.206,0,0,1-4.752-5.254V75.33a5.207,5.207,0,0,0,4.752,5.254,5.091,5.091,0,0,0,5.429-5.08V70.358a5.091,5.091,0,0,1-5.429,5.08" transform="translate(-33.496 -27.191)" fill="#e99f96"/><path d="M91.552,45.946h0a5.091,5.091,0,0,0-5.091,5.091v5.146a5.091,5.091,0,1,1,10.181,0V51.037a5.091,5.091,0,0,0-5.091-5.091" transform="translate(-33.496 -17.8)" fill="#f2e1de"/><path d="M58.055,26.859a6.358,6.358,0,0,0-4.774,2.164,8.092,8.092,0,0,0-7.76-5.843h0a8.08,8.08,0,0,0-6.693,3.557,8.064,8.064,0,0,0-14.22-2.83V8.083a8.083,8.083,0,0,0-16.167,0V41.466a7.15,7.15,0,0,0-5.608,5.009L.679,53.619A16.158,16.158,0,0,0,3.149,67.837L11.4,79.355c.291.448.606.887.936,1.308l.037.053a1.25,1.25,0,0,0,.109.132A18.25,18.25,0,0,0,17.3,85.061v26.563a1.286,1.286,0,0,0,1.286,1.286h35.7a1.286,1.286,0,0,0,1.286-1.286V85.061A18.275,18.275,0,0,0,64.432,69.4V33.236a6.384,6.384,0,0,0-6.377-6.377m-3.8,6.377a3.8,3.8,0,0,1,7.608,0v9.931a3.8,3.8,0,0,1-4.059,3.8,3.9,3.9,0,0,1-3.549-3.97Zm-14.24-1.974a5.51,5.51,0,0,1,11.02,0v10.2a5.51,5.51,0,0,1-5.778,5.5,5.67,5.67,0,0,1-5.242-5.7ZM25.512,28.8a5.51,5.51,0,1,1,11.02,0V41.461c0,.13-.008.26-.017.39a6.439,6.439,0,0,0-2.488-.5h-8.51c0-.028,0-.055,0-.083ZM11.014,8.083a5.51,5.51,0,0,1,11.02,0V41.352H11.017c0-.028,0-.055,0-.083Zm42.656,75.1A1.287,1.287,0,0,0,53,84.315v26.022H19.873V84.316a1.287,1.287,0,0,0-.67-1.13,15.676,15.676,0,0,1-4.76-4l-.032-.039,0,0-.036-.048c-.295-.374-.575-.766-.834-1.165-.01-.017-.021-.032-.033-.049L5.228,66.321A13.585,13.585,0,0,1,3.142,54.362L5.3,47.218a4.6,4.6,0,0,1,4.431-3.293h24.3a3.908,3.908,0,0,1,3.9,3.9A10.433,10.433,0,0,1,27.509,58.25H11.537a1.286,1.286,0,1,0,0,2.573h5.521l.731,1.519a1.286,1.286,0,0,0,1.682.617A11.152,11.152,0,0,1,32.443,80.443a1.287,1.287,0,0,0,1.943,1.688A13.756,13.756,0,0,0,29.694,60.64,13.016,13.016,0,0,0,40.5,47.829c0-.025,0-.05,0-.075a7.908,7.908,0,0,0,4.632,1.781c.132.006.263.009.395.009A8.009,8.009,0,0,0,51.1,47.31a8.128,8.128,0,0,0,1.215-1.478,6.362,6.362,0,0,0,5.319,3.7c.143.009.287.014.429.014a6.3,6.3,0,0,0,3.8-1.263V69.4A15.7,15.7,0,0,1,53.67,83.186" transform="translate(0)" fill="#540836"/></g></g><path d="M22.074,15.188H.844A.844.844,0,0,0,0,16.031v3.938a.844.844,0,0,0,.844.844h21.23v3.239a1.688,1.688,0,0,0,2.881,1.193l6.051-6.051a1.687,1.687,0,0,0,0-2.386l-6.051-6.051a1.688,1.688,0,0,0-2.881,1.193Z" transform="translate(6834.216 -2554.742)"/></g></svg>