<svg xmlns="http://www.w3.org/2000/svg" xmlns:xlink="http://www.w3.org/1999/xlink" width="85" height="85" viewBox="0 0 85 85"><defs><clipPath id="a"><rect width="49.822" height="52.414" fill="none"/></clipPath></defs><g transform="translate(-284 -6456)"><circle cx="42.5" cy="42.5" r="42.5" transform="translate(284 6456)" fill="#cce951"/><g transform="translate(301 6472)"><g clip-path="url(#a)"><path d="M23.469,52.414a.908.908,0,0,1-.91-.91V43.846a4.614,4.614,0,0,1,4.61-4.609H40.506a.91.91,0,0,1,.5,1.667L23.973,52.261a.9.9,0,0,1-.5.153m3.7-11.357a2.793,2.793,0,0,0-2.79,2.789V49.8L37.5,41.057Z"/><path d="M32.868,11.527H8.548a.91.91,0,0,1-.91-.91V6.684a.911.911,0,0,1,.91-.911h24.32a.911.911,0,0,1,.91.911v3.933a.91.91,0,0,1-.91.91M9.458,9.707h22.5V7.594H9.458Z"/><path d="M24.4,16.46H17.014a.91.91,0,1,1,0-1.82H24.4a.91.91,0,1,1,0,1.82"/><path d="M33.084,21.392H8.548a.91.91,0,1,1,0-1.82H33.084a.91.91,0,0,1,0,1.82"/><path d="M28.286,26.325H8.548a.91.91,0,0,1,0-1.82H28.286a.91.91,0,0,1,0,1.82"/><path d="M23.135,31.258H8.548a.91.91,0,0,1,0-1.821H23.135a.91.91,0,0,1,0,1.821"/><path d="M18.211,36.191H8.548a.91.91,0,0,1,0-1.82h9.663a.91.91,0,0,1,0,1.82"/><path d="M19.534,42.635a.908.908,0,0,1-.644-.267L15.112,38.59a.91.91,0,0,1,0-1.288l25.1-25.1a.909.909,0,0,1,1.287,0l3.778,3.778a.909.909,0,0,1,0,1.287l-8.587,8.588A.91.91,0,0,1,35.4,24.568l7.944-7.944-2.492-2.492L17.042,37.946l2.492,2.492,12.22-12.221A.91.91,0,0,1,33.041,29.5L20.178,42.368a.908.908,0,0,1-.644.267"/><path d="M44.635,17.534a.91.91,0,0,1-.644-.267l-3.779-3.778a.912.912,0,0,1,0-1.288L42.6,9.811a.911.911,0,0,1,1.287,0l3.779,3.779a.911.911,0,0,1,0,1.287l-2.391,2.39a.907.907,0,0,1-.643.267m-2.492-4.689,2.492,2.491,1.1-1.1-2.492-2.491Z"/><path d="M46.559,14.678a.907.907,0,0,1-.643-.267l-2.848-2.848a.911.911,0,0,1,0-1.287L44.4,8.944A2.625,2.625,0,0,1,46.42,8.18,3.065,3.065,0,0,1,49.3,11.06a2.636,2.636,0,0,1-.764,2.019L47.2,14.411a.908.908,0,0,1-.644.267M45,10.92l1.56,1.561.689-.689a.844.844,0,0,0,.233-.646A1.251,1.251,0,0,0,46.333,10a.83.83,0,0,0-.645.233Z"/><path d="M14.021,44.368a.91.91,0,0,1-.868-1.183l1.734-5.512A.911.911,0,0,1,16.4,37.3l3.779,3.779a.911.911,0,0,1-.371,1.512L14.3,44.327a.919.919,0,0,1-.274.041m2.152-4.717-.76,2.415,2.416-.759Z"/><path d="M23.469,52.414H4.61A4.615,4.615,0,0,1,0,47.8V46a.911.911,0,1,1,1.821,0V47.8a2.793,2.793,0,0,0,2.789,2.79H23.193L39.6,39.659V20.753a.91.91,0,0,1,1.821,0V40.146a.909.909,0,0,1-.406.758L23.974,52.261a.909.909,0,0,1-.505.153"/><path d="M.91,41.182a.91.91,0,0,1-.91-.91V4.61A4.615,4.615,0,0,1,4.61,0h32.2a4.616,4.616,0,0,1,4.611,4.61V8.651a.91.91,0,0,1-1.821,0V4.61a2.792,2.792,0,0,0-2.79-2.789H4.61A2.792,2.792,0,0,0,1.82,4.61V40.272a.91.91,0,0,1-.91.91"/><path d="M47.025,21.14a.909.909,0,0,1-.91-.91v-.636a.91.91,0,1,1,1.82,0v.636a.909.909,0,0,1-.91.91"/><path d="M48.912,22.391h-.635a.91.91,0,1,1,0-1.82h.635a.91.91,0,0,1,0,1.82"/><path d="M47.025,24.278a.909.909,0,0,1-.91-.91v-.636a.91.91,0,1,1,1.82,0v.636a.909.909,0,0,1-.91.91"/><path d="M45.774,22.391h-.635a.91.91,0,1,1,0-1.82h.635a.91.91,0,0,1,0,1.82"/><path d="M41.48,45.484a.91.91,0,0,1-.91-.91v-.636a.91.91,0,0,1,1.82,0v.636a.91.91,0,0,1-.91.91"/><path d="M43.367,46.735h-.635a.91.91,0,1,1,0-1.82h.635a.91.91,0,1,1,0,1.82"/><path d="M41.48,48.622a.91.91,0,0,1-.91-.91v-.636a.91.91,0,0,1,1.82,0v.636a.91.91,0,0,1-.91.91"/><path d="M40.229,46.735h-.635a.91.91,0,1,1,0-1.82h.635a.91.91,0,1,1,0,1.82"/></g></g></g></svg>