<svg xmlns="http://www.w3.org/2000/svg" xmlns:xlink="http://www.w3.org/1999/xlink" width="85" height="85" viewBox="0 0 85 85"><defs><clipPath id="a"><rect width="57.163" height="45.328" transform="translate(0 0.001)" fill="none"/></clipPath></defs><g transform="translate(-810 -6461.863)"><circle cx="42.5" cy="42.5" r="42.5" transform="translate(810 6461.863)" fill="#cce951"/><g transform="translate(823 6480.863)"><g clip-path="url(#a)"><path d="M28.582,45.328a.91.91,0,0,1-.911-.91c0-3.655-2.392-6.628-5.334-6.628H3.662a.91.91,0,0,1-.91-.911V.91A.909.909,0,0,1,3.662,0H22.337c3.945,0,7.155,3.79,7.155,8.448v35.97a.91.91,0,0,1-.91.91M4.572,35.969H22.337a6.721,6.721,0,0,1,5.334,2.824V8.448c0-3.654-2.392-6.628-5.334-6.628H4.572Z"/><path d="M11.645,5.825H7.884a.91.91,0,0,1,0-1.82h3.761a.91.91,0,1,1,0,1.82"/><path d="M28.581,12.741a.91.91,0,0,1-.91-.91c0-3.311-2.393-6.005-5.335-6.005H16.121a.911.911,0,0,1,0-1.821h6.215c3.945,0,7.155,3.511,7.155,7.826a.91.91,0,0,1-.91.91"/><path d="M17.88,10.835h-10a.91.91,0,1,1,0-1.82h10a.91.91,0,1,1,0,1.82"/><path d="M28.581,17.751a.909.909,0,0,1-.91-.91c0-3.311-2.393-6-5.335-6h-1a.911.911,0,1,1,0-1.821h1c3.945,0,7.155,3.511,7.155,7.826a.909.909,0,0,1-.91.91"/><path d="M9.825,15.845H7.884a.91.91,0,0,1,0-1.82H9.825a.91.91,0,0,1,0,1.82"/><path d="M28.581,22.76a.909.909,0,0,1-.91-.91c0-3.311-2.393-6.005-5.335-6.005H15.513a.911.911,0,0,1,0-1.821h6.823c3.945,0,7.155,3.511,7.155,7.826a.909.909,0,0,1-.91.91"/><path d="M28.581,27.77a.909.909,0,0,1-.91-.91c0-3.311-2.393-6.005-5.335-6.005H7.884a.91.91,0,0,1,0-1.821H22.336c3.945,0,7.155,3.511,7.155,7.826a.909.909,0,0,1-.91.91"/><path d="M15.218,25.865H7.884a.91.91,0,0,1,0-1.821h7.334a.91.91,0,0,1,0,1.821"/><path d="M28.581,32.78a.909.909,0,0,1-.91-.91c0-3.311-2.393-6.005-5.335-6.005H20.792a.91.91,0,0,1,0-1.821h1.544c3.945,0,7.155,3.511,7.155,7.826a.909.909,0,0,1-.91.91"/><path d="M9.62,30.875H7.884a.91.91,0,0,1,0-1.82H9.62a.91.91,0,0,1,0,1.82"/><path d="M28.581,37.79a.91.91,0,0,1-.91-.91c0-3.311-2.393-6.005-5.335-6.005H13.374a.91.91,0,0,1,0-1.821h8.962c3.945,0,7.155,3.511,7.155,7.826a.91.91,0,0,1-.91.91"/><path d="M28.581,45.328a.909.909,0,0,1-.91-.91V8.448C27.671,3.79,30.88,0,34.826,0H53.5a.909.909,0,0,1,.91.91V36.879a.909.909,0,0,1-.91.91H34.826c-2.941,0-5.335,2.974-5.335,6.629a.909.909,0,0,1-.91.91M34.826,1.82c-2.941,0-5.335,2.973-5.335,6.628V38.793a6.722,6.722,0,0,1,5.335-2.824H52.59V1.82Z"/><path d="M49.278,5.825H44.1a.91.91,0,0,1,0-1.82h5.174a.91.91,0,0,1,0,1.82"/><path d="M28.581,12.741a.91.91,0,0,1-.91-.91c0-4.315,3.209-7.826,7.154-7.826h4.1a.911.911,0,0,1,0,1.821h-4.1c-2.941,0-5.334,2.694-5.334,6.005a.91.91,0,0,1-.91.91"/><path d="M28.581,17.751a.909.909,0,0,1-.91-.91c0-4.315,3.209-7.826,7.154-7.826H49.278a.911.911,0,0,1,0,1.821H34.825c-2.941,0-5.334,2.694-5.334,6a.909.909,0,0,1-.91.91"/><path d="M28.581,22.76a.909.909,0,0,1-.91-.91c0-4.315,3.209-7.826,7.154-7.826H49.278a.911.911,0,0,1,0,1.821H34.825c-2.941,0-5.334,2.694-5.334,6.005a.909.909,0,0,1-.91.91"/><path d="M49.278,20.855H40.9a.91.91,0,1,1,0-1.82h8.378a.91.91,0,0,1,0,1.82"/><path d="M28.581,27.77a.909.909,0,0,1-.91-.91c0-4.315,3.209-7.826,7.154-7.826H36.5a.91.91,0,0,1,0,1.821H34.825c-2.941,0-5.334,2.694-5.334,6.005a.909.909,0,0,1-.91.91"/><path d="M28.581,32.78a.909.909,0,0,1-.91-.91c0-4.315,3.209-7.826,7.154-7.826H49.278a.91.91,0,0,1,0,1.821H34.825c-2.941,0-5.334,2.694-5.334,6.005a.909.909,0,0,1-.91.91"/><path d="M49.278,30.875H46.6a.91.91,0,0,1,0-1.82h2.674a.91.91,0,0,1,0,1.82"/><path d="M28.581,37.79a.91.91,0,0,1-.91-.91c0-4.315,3.209-7.826,7.154-7.826h6.591a.91.91,0,0,1,0,1.821H34.825c-2.941,0-5.334,2.694-5.334,6.005a.91.91,0,0,1-.91.91"/><path d="M56.252,41.87H37.679a.91.91,0,1,1,0-1.82H55.342V5.31H53.5a.911.911,0,0,1,0-1.821h2.752a.91.91,0,0,1,.91.91V40.96a.909.909,0,0,1-.91.91"/><path d="M37.679,45.329h-9.1a.91.91,0,0,1,0-1.82h9.1a.91.91,0,0,1,0,1.82"/><path d="M19.483,41.87H.91A.909.909,0,0,1,0,40.96V4.4a.91.91,0,0,1,.91-.91H3.662a.911.911,0,0,1,0,1.821H1.82V40.05H19.483a.91.91,0,1,1,0,1.82"/><path d="M28.581,45.329h-9.1a.91.91,0,0,1,0-1.82h9.1a.91.91,0,1,1,0,1.82"/></g></g></g></svg>