<svg xmlns="http://www.w3.org/2000/svg" xmlns:xlink="http://www.w3.org/1999/xlink" width="445" height="255.696" viewBox="0 0 445 255.696"><defs><clipPath id="a"><rect width="445" height="255.696" fill="none"/></clipPath><clipPath id="c"><rect width="54.321" height="16.026" fill="none"/></clipPath><clipPath id="d"><rect width="32.392" height="12.526" fill="none"/></clipPath></defs><g transform="translate(-48 0)"><g transform="translate(48 0)" clip-path="url(#a)"><g clip-path="url(#a)"><path d="M396.529,350.152c0-.834-19.057-1.51-42.565-1.51s-42.566.676-42.566,1.51,19.057,1.51,42.566,1.51,42.565-.676,42.565-1.51" transform="translate(-95.834 -107.296)" fill="#387db8"/><path d="M488.721,359.426c0-.834-19.057-1.51-42.565-1.51s-42.566.676-42.566,1.51,19.057,1.51,42.566,1.51,42.565-.676,42.565-1.51" transform="translate(-124.206 -110.149)" fill="#387db8"/><path d="M581.026,366.518c0-.834-14.6-1.51-32.62-1.51s-32.621.676-32.621,1.51,14.605,1.51,32.621,1.51,32.62-.676,32.62-1.51" transform="translate(-158.734 -112.332)" fill="#387db8"/><path d="M284.045,68.877c1.4.971,5.079,7.686,6.765,11.639l-8.494,6.206c-5.615-4.6-6.8-12.879-5.526-13.844s5.858-4.971,7.254-4" transform="translate(-85.039 -21.151)" fill="#e79b69"/><path d="M297,68.963c.16.653-2.2,5.052-1.628,11.75l-5.745-1.395c.075-2.979,3.529-10.92,4.576-11.585a1.975,1.975,0,0,1,2.8,1.23" transform="translate(-89.132 -20.767)" fill="#edb984"/><path d="M286.773,58.028c.266.635,1.461,7.191,3.256,12.935l-5.011-2.433s-1.389-9.476-.81-10.566a1.463,1.463,0,0,1,2.565.065" transform="translate(-87.422 -17.614)" fill="#edb984"/><path d="M282.657,68.128c.62.242,4.576,5.8,1.885,7.748-1.267.917-3.065-2.067-3.065-2.067s-1.458-3.345-1.2-4.455a2,2,0,0,1,2.381-1.227" transform="translate(-86.247 -20.944)" fill="#edb984"/><path d="M277.466,80.086c-4.529-5.886.305-10.862.923-9.728s3.25,4.739,2.937,6.333c-.4,2.036-3.861,3.4-3.861,3.4" transform="translate(-84.801 -21.603)" fill="#edb984"/><path d="M338.917,61.225c-9.54,9.1-11.571,20.708-25.849,46.422-1.21,2.179,5.238,21.915,11.176,22.142s29.738-29.652,29.738-29.652Z" transform="translate(-96.302 -18.842)" fill="#e8e4d4"/><path d="M341.021,69.066c-.131,5.9-2.19,13.464-6.079,21.04-6.408,12.484-15.643,20.835-21.993,20.432-.424,3.681,5.664,21.449,11.3,21.664,5.938.228,29.738-29.652,29.738-29.652Z" transform="translate(-96.304 -21.255)" fill="#ddd6c0"/><path d="M307.259,108c-3.2,17.225,8.535,35.725,15.263,37.866,8.4,2.673,11.071-32.075,1.2-37.909-11.642-6.88-16.462.043-16.462.043" transform="translate(-94.393 -32.287)" fill="#a03d59"/><path d="M346.673,141.26c-9.038,46.421,4.911,142.9,4.911,142.9l31.954-126.52Z" transform="translate(-105.752 -43.473)" fill="#544e5e"/><path d="M366.135,157.856,354.862,287.992c.116.829.181,1.28.181,1.28L387,162.751Z" transform="translate(-109.21 -48.581)" fill="#474251"/><path d="M400.3,164.6l-43.98-5.586,1.125,30.947,6.061,5.917s16.457,64.625,27.583,93.752c0,0,11.538-101.82,9.211-125.03" transform="translate(-109.659 -48.936)" fill="#544e5e"/><path d="M400.462,166.9l-56.735,7.141-.076,12.359c14.856-4.138,29.726-1.972,44.676,3.127l-1.54,101.456c.136.361.271.721.4,1.072,0,0,15.6-101.945,13.271-125.155" transform="translate(-105.76 -51.364)" fill="#474251"/><path d="M342.963,145.181c7.639-2.1,21.854-3.094,34.476-2.616,10.616.4,27.469-70.088,8.641-86.017-14.841-12.556-31.47-2.383-37.927,1.365a4.844,4.844,0,0,0-2.37,4.748c4.13,37.731-3.423,65.154-2.82,82.519" transform="translate(-105.537 -15.531)" fill="#e8e4d4"/><path d="M401.19,59.086c-2.8-2.37-6.923,6.363-8.983,28.758-1.227,13.342,4.419,47.317-.048,57.244,10.266.447,20.591,1.935,23.995,4.565,0,0,3.865-74.638-14.963-90.567" transform="translate(-120.647 -18.068)" fill="#ddd6c0"/><g transform="translate(240.887 78.18)" opacity="0.76" style="mix-blend-mode:multiply;isolation:isolate"><g clip-path="url(#c)"><path d="M402.3,128.963c-.183-3.013-.415-6.079-.705-9.148-11.117-2.725-37.271-8.46-53.172-6.465q-.157,4.377-.443,8.49c22.108-.71,44.924,4.614,54.321,7.123" transform="translate(-347.979 -112.937)" fill="#a03d59"/></g></g><path d="M279.546,86.351c16.921,41.374,34.356,47.5,34.356,47.5,5.5-.07,8.329-27.542.457-33.837-4.411-3.527-25.242-17.749-25.242-17.749Z" transform="translate(-86.031 -25.317)" fill="#edb984"/><path d="M352.884,349.008h-8.628a48.2,48.2,0,0,1,5.763-2.688c3.653-1.1,2.865,2.688,2.865,2.688" transform="translate(-105.946 -106.519)" fill="#eae3d3"/><path d="M408.8,348.912h-4.954s.518-2.18,1.264-2.792c1.517-1.244,3.69,2.792,3.69,2.792" transform="translate(-124.284 -106.446)" fill="#eae3d3"/><path d="M361.845,212.362,350.9,207.128l9.836,1.243,9.287-5.253Z" transform="translate(-107.99 -62.51)" fill="#474251"/><path d="M315.8,103.3c.923,9.408-2.035,12.347-4.985,13.258-3.846,1.188-12.98.658-30.718-28.726l-.547.234c16.921,41.374,34.428,49.914,34.428,49.914,5.134-.066,7.873-26.082,1.822-34.679" transform="translate(-86.031 -27.03)" fill="#e79b69"/><path d="M389.215,58.887c-8.481,10.093-9.244,21.876-20.632,49.03-.965,2.3,7.559,21.278,13.474,20.868s26.3-32.737,26.3-32.737Z" transform="translate(-113.409 -18.123)" fill="#e8e4d4"/><path d="M390.227,55.563c.507,5.894.941,21.136-2.1,29.1-5.01,13.128-13.268,22.439-19.611,22.719-.023,3.715,7.932,20.767,13.543,20.378,5.915-.41,26.3-32.737,26.3-32.737,3.749-22.233-5.261-38.048-18.131-39.462" transform="translate(-113.412 -17.1)" fill="#ddd6c0"/><path d="M360.949,109.742c-1.318,17.509,12.319,34.685,19.223,36.1,8.617,1.763,7.522-33.15-2.9-37.906-12.289-5.608-16.323,1.808-16.323,1.808" transform="translate(-111.056 -32.572)" fill="#a03d59"/><path d="M330.974,91.072c21.247,39.416,39.2,43.651,39.2,43.651,5.451-.66,5.291-28.34-3.2-33.769-4.756-3.042-26.952-14.982-26.952-14.982Z" transform="translate(-101.858 -26.458)" fill="#edb984"/><path d="M368.573,104.5c1.931,9.276-.687,12.522-3.515,13.746-3.686,1.6-12.8,2.047-33.566-25.333l-.518.292c21.247,39.416,39.532,46.049,39.532,46.049,5.085-.616,5-26.836-1.933-34.754" transform="translate(-101.858 -28.595)" fill="#e79b69"/><path d="M393.607,56.886c-21.8-12.912-31.474-4.7-37.923-1.2a5.425,5.425,0,0,0,1.246,3.688c4.237,5.249,17.956,5.427,30.64.4a47.8,47.8,0,0,0,6.037-2.881" transform="translate(-109.461 -15.349)" fill="#ddd6c0"/><path d="M344.313,22.812c-9.574-15.112-4.3-20.619.172-21.772s16.386-2.433,18.68,2.689S368.13,31.3,368.13,31.3l-6.314-6.826h-4.752L353.219,12.95Z" transform="translate(-104.312 0)" fill="#77383b"/><path d="M364.7,27.379l-9.059,11.669L357.8,48.8c4.16,6.018,11.885,1.754,18.465-5.2Z" transform="translate(-109.448 -8.426)" fill="#d27558"/><path d="M350.846,41.352c-5.629-14.109-5.527-24.668-3.928-28.156s9.178-4.7,13.365-1.062,3.746,18.508,3.971,21.845-13.407,7.373-13.407,7.373" transform="translate(-106.473 -3.054)" fill="#edb984"/><path d="M368.489,25.084l-4.824.789s-7.746-17.318-1.043-17.263,5.867,16.473,5.867,16.473" transform="translate(-110.757 -2.65)" fill="#77383b"/><path d="M371.257,26.8c.123-2.183-.7-3.953-1.844-3.953s-2.166,1.77-2.289,3.953.7,3.953,1.845,3.953,2.165-1.77,2.288-3.953" transform="translate(-112.98 -7.032)" fill="#edb984"/><path d="M371.383,28.167c.154-1.286-.266-2.33-.938-2.33s-1.344,1.044-1.5,2.33.266,2.331.939,2.331,1.343-1.043,1.5-2.331" transform="translate(-113.535 -7.951)" fill="#d27558"/><path d="M370.754,30.612c.11-.916-.189-1.659-.668-1.659s-.956.743-1.066,1.659.19,1.659.668,1.659.956-.743,1.066-1.659" transform="translate(-113.56 -8.91)" fill="#edb984"/><path d="M332.979,73c1.518.761,6.128,6.894,8.368,10.573l-7.474,7.389c-6.207-3.75-8.586-11.8-7.467-12.941s5.054-5.782,6.572-5.021" transform="translate(-100.37 -22.442)" fill="#edb984"/><path d="M345.2,69.023c.253.625-1.447,5.992.1,12.556l-5.4-3.492c-.417-1.8,1.433-9.069,2.369-9.88a1.965,1.965,0,0,1,2.938.816" transform="translate(-104.585 -20.869)" fill="#edb984"/><path d="M333.085,61.678A71.475,71.475,0,0,1,336.6,72.121l-4.117-.792s-2.348-8.173-1.9-9.246a1.518,1.518,0,0,1,2.5-.4" transform="translate(-101.721 -18.829)" fill="#edb984"/><path d="M322.415,66.526c.654.066,4.456,4.464,7.923,8.621l-4.131.858s-5.681-6.505-5.731-7.649a1.985,1.985,0,0,1,1.94-1.831" transform="translate(-98.627 -20.472)" fill="#edb984"/><path d="M327.677,86.537c-5.573-4.4-3.142-9.687-2.11-8.9s7.805,4.8,7.761,5-5.651,3.9-5.651,3.9" transform="translate(-99.756 -23.868)" fill="#edb984"/><path d="M356.328,28.753c-.115-.795.244-1.469.8-1.508s1.113.577,1.232,1.377-.244,1.482-.809,1.515-1.11-.587-1.225-1.384" transform="translate(-109.655 -8.384)" fill="#5a4949"/><path d="M347.524,30.334c-.1-.8.23-1.481.743-1.517s1.02.588,1.126,1.4-.231,1.493-.749,1.524-1.018-.6-1.121-1.4" transform="translate(-106.946 -8.868)" fill="#5a4949"/><path d="M354.892,21.122l4.034.575a.962.962,0,0,1,.81,1.059l-.117,1.02a.89.89,0,0,1-1.023.791l-4.036-.624a.942.942,0,0,1-.772-1.045l.118-.994a.875.875,0,0,1,.987-.782" transform="translate(-108.877 -6.498)" fill="#77383b"/><path d="M344.132,23.451l3.029-.92a.725.725,0,0,1,.872.615l.208.9a.851.851,0,0,1-.5,1.031l-3.05.9a.716.716,0,0,1-.852-.62l-.2-.894a.849.849,0,0,1,.487-1.016" transform="translate(-105.751 -6.926)" fill="#77383b"/><path d="M352.714,31.646s.169.159.408.418c-.432,1.749-.716,4.6,1.733,3.44,0,.071.019.143.013.213-4.017,2.628-2.607-2.925-2.154-4.07" transform="translate(-108.361 -9.739)" fill="#d27558"/><path d="M355.192,41.022a3.727,3.727,0,0,0,3.334-3.221s1.1,1.212-.64,2.633-2.694.588-2.694.588" transform="translate(-109.311 -11.633)" fill="#d27558"/><path d="M361.244,42.14c-.095-.232-.543-.273-1-.091s-.755.517-.66.749.543.273,1,.091.755-.517.66-.749" transform="translate(-110.657 -12.906)" fill="#d27558"/><path d="M418.137,116.016c-9.191-17.131-3.01-31.031,8.481-32.816s22.524,7.389,21.712,15.7c0,0,6.849-1.656,11.344,9.236s-1.647,18.593-1.647,18.593,13.314,2.516,7.93,13.094-21.412,15.693-29.724,9.183a17.41,17.41,0,0,1-6.756-15.735s-8.034,1.267-10.83-5.046a17.276,17.276,0,0,1-.512-12.213" transform="translate(-127.317 -25.536)" fill="#77383b"/><path d="M439.648,303.192s-13.294-58.83-12.405-64.181c1.092-6.573,23.563-41.85,23.563-41.85l-1.98-15.332,22.26-1.417a72.6,72.6,0,0,1,.32,27.312c-2.761,14.312-28.467,38.287-28.467,38.287Z" transform="translate(-131.472 -55.522)" fill="#563740"/><path d="M475.5,181.15l-4.972-.293-17.418,1.109,7.044,18.3L454.911,207l4.574,4.956s-17.15,23.538-18.242,30.111c-.657,3.953,1.654,36.951,3.06,54.846l4.444-51.324s25.57-23.055,28.332-37.368c2.413-12.5-1.021-24.367-1.577-27.075" transform="translate(-135.758 -55.659)" fill="#472c35"/><path d="M486.156,303.045s-24.2-51.907-24.546-57.34c-.421-6.672,4.634-37.175,4.634-37.175l-6.067-1.589-2.008-22,21.946-5s12.808,9.371,13.351,23.986-16.54,43.532-16.54,43.532Z" transform="translate(-141.003 -55.376)" fill="#563740"/><path d="M495.1,203.446c-.543-14.615-14.991-23.512-14.991-23.512l-21.946,5,1.241,12.991L458.2,200.4s20.566,1.221,22.976,7.653c2.593,6.918-9.725,38.938-9.725,38.938l13.533,53.525c.741,1.6,1.172,2.526,1.172,2.526l-7.662-55.433s17.154-29.55,16.61-44.165" transform="translate(-141.002 -55.375)" fill="#472c35"/><path d="M436.331,147.747C450.8,158.714,451.89,183.96,451.89,183.96s14.829,1.478,33.909-5.486c-8.769-16.718-32.968-45.47-41.358-47.537-9.224-2.273-8.11,16.81-8.11,16.81" transform="translate(-134.269 -40.238)" fill="#b54b66"/><path d="M452.209,161.774c7.63-1.29,17.222,5.454,21.423,15.064a24.109,24.109,0,0,1,1.538,4.824,95.083,95.083,0,0,0,10.629-3.189c-8.769-16.718-32.968-45.47-41.359-47.537-9.224-2.272-8.109,16.811-8.109,16.811,5.4,4.092,8.933,10.172,11.246,16.187a9.258,9.258,0,0,1,4.632-2.16" transform="translate(-134.269 -40.238)" fill="#a03755"/><path d="M426.6,133.463c-2.893,4.822-6.041,21.823-9.126,18.075-3.48-4.226-.643-22.4-.643-22.4l-1.715-.643c-4.608,13.931-7.715,27-.75,30.754s15.966-7.287,15.966-7.287Z" transform="translate(-126.265 -39.546)" fill="#a03755"/><path d="M433.9,134.018c-1.387,13.151.595,26.736,2.026,27.7s16.855-1.76,17.491-4.322-7.027-25.491-9.858-26.5-9.421.858-9.659,3.122" transform="translate(-133.39 -40.198)" fill="#b54b66"/><path d="M445.924,131.225c-2.182,7.588-3.944,15.245-4.1,24.281-.025,1.486,2.355,5.529-1.538,6.563,4.675-.272,14.73-2.431,15.241-4.49.618-2.489-6.6-24.207-9.606-26.354" transform="translate(-135.5 -40.385)" fill="#a03755"/><path d="M436.126,134.751c-7.244,5.573-15.753,25.015-21.343,23.734s-10.058-31.564-10.058-31.564l-1.445.416s-3.011,33.912,8.829,39.329,28.995-24.743,29.536-27.752-1.828-7-5.52-4.163" transform="translate(-124.006 -39.06)" fill="#b54b66"/><path d="M441.63,142.349a8.38,8.38,0,0,0-.689-4.111c-3.456,7.374-17.784,32.858-28.377,28.01-6.994-3.2-9.415-17.625-9.627-28.165-.278,10.557.394,29.279,8.807,33.13,11.84,5.418,29.345-25.853,29.886-28.864" transform="translate(-123.99 -42.495)" fill="#a03755"/><path d="M443.514,358.242h-8.873a50.714,50.714,0,0,1,5.987-2.772c3.781-1.139,2.887,2.772,2.887,2.772" transform="translate(-133.762 -109.333)" fill="#eae3d3"/><path d="M501.4,358.115h-5.094s0-2.293.613-2.936c1.254-1.309,4.481,2.936,4.481,2.936" transform="translate(-152.74 -109.23)" fill="#eae3d3"/><path d="M448.54,135.841c-.9-.981-1.464-2.277-2.547-2.746a4.655,4.655,0,0,0-2.55-2.2c-2.065-.734-6.122.063-8.263,1.425a2.519,2.519,0,0,0-1.023.866l-.014.021c-.04.056-.082.107-.12.169a12.82,12.82,0,0,0-.972,1.932A16.194,16.194,0,0,0,437,144.14s7.233-9.093,11.544-8.3" transform="translate(-133.272 -40.198)" fill="#a03755"/><path d="M434.367,124.906l-2.385-11.527,6.081-8.045,4.293,17.651-5.485,5.4Z" transform="translate(-132.944 -32.417)" fill="#d27558"/><path d="M426.92,120.557c-7.664-10.55-4.228-22.627-1.219-25.533,3.186-3.076,11.775,1.5,11.99,8.032.51,15.511-10.771,17.5-10.771,17.5" transform="translate(-129.954 -28.942)" fill="#edb984"/><path d="M434.907,91.167c-4.524,3-2.559,11,5.105,18.608,7.643,7.584,8.827-9.219,5-13.578-3.853-4.385-10.1-5.031-10.1-5.031" transform="translate(-133.105 -28.057)" fill="#77383b"/><g transform="translate(316.331 127.178)" style="mix-blend-mode:overlay;isolation:isolate"><g clip-path="url(#d)"><path d="M489.626,191.217c-.61-1-1.262-2.028-1.94-3.07-7.149,3.144-18.129,6.977-29.84,7.395.115.732.21,1.414.291,2.036,12.489.393,24.117-3.3,31.489-6.36" transform="translate(-457.235 -185.081)" fill="#eae3d3"/><path d="M485.369,183.718a82.971,82.971,0,0,1-28.406,7.062c.069.341.137.679.2,1.007,11.486-.35,21.981-3.974,28.9-7.045q-.344-.51-.7-1.025" transform="translate(-456.963 -183.718)" fill="#eae3d3"/></g></g><path d="M403.749,126.252c-.7-1.986-.782-4.318-1.459-4.687s-3.089,1.083-1.941,2.919a22.8,22.8,0,0,0,2.553,3.3Z" transform="translate(-123.115 -37.394)" fill="#edb984"/><path d="M404.969,125.021c-.325-2.251.977-6.02.558-6.272-.4-.24-2.229,4.06-2.063,4.772.172.739,1.636,2.409,1.5,1.5" transform="translate(-124.164 -36.542)" fill="#edb984"/><path d="M404.23,122.787c-2.134-3.127-1.7-6.452-1.994-6.716s-.995,2.3-.177,4.4,2.17,2.318,2.17,2.318" transform="translate(-123.617 -35.715)" fill="#edb984"/><path d="M402.952,123.585c-2.4-2.885-2.506-6.793-2.883-7.068s-.491,2.775.593,4.769a4.958,4.958,0,0,0,2.289,2.3" transform="translate(-123.041 -35.853)" fill="#edb984"/><path d="M401.824,125.405c-2.506-3.209-2.693-6.237-2.939-6.385s-.345,1.988.543,3.763a5.389,5.389,0,0,0,2.4,2.622" transform="translate(-122.707 -36.627)" fill="#edb984"/><path d="M433.035,111.471c-.028-.931.253-1.691.627-1.694s.7.753.723,1.683-.255,1.676-.627,1.679-.7-.741-.724-1.668" transform="translate(-133.267 -33.784)" fill="#5a4949"/><path d="M422.846,111.55c-.045-.937.226-1.7.605-1.7s.72.757.762,1.693-.229,1.686-.605,1.69-.717-.746-.762-1.679" transform="translate(-130.131 -33.805)" fill="#5a4949"/><path d="M430.649,104.883l3.054.634a.832.832,0,0,1,.624.863l-.056.788a.6.6,0,0,1-.723.579l-3.038-.621a.842.842,0,0,1-.635-.862l.048-.795a.6.6,0,0,1,.727-.587" transform="translate(-132.294 -32.274)" fill="#872d2d"/><path d="M421.851,105.71l2.123-.969c.262-.12.552.1.65.489l.193.768a.8.8,0,0,1-.294.914l-2.111.963c-.26.118-.551-.1-.651-.482l-.2-.766a.8.8,0,0,1,.289-.917" transform="translate(-129.726 -32.224)" fill="#872d2d"/><path d="M427.963,113.735s.085.173.2.444c-.62,1.229-1.337,3.335.527,3.157-.013.054-.014.114-.031.166-3.177.836-1.217-3.009-.7-3.767" transform="translate(-131.376 -35.002)" fill="#d27558"/><path d="M426.835,121.383l4.741-.4s-.444,3.218-2.41,3.126-2.33-2.724-2.33-2.724" transform="translate(-131.36 -37.232)" fill="#2d171a"/><path d="M431.05,122.24a5.617,5.617,0,0,0,.273-1.044l-3.953.336a3.931,3.931,0,0,0,.462,1.3Z" transform="translate(-131.525 -37.298)" fill="#faf0db"/><path d="M434.435,113.015c-.069-1.166-.649-2.079-1.294-2.041s-1.112,1.015-1.042,2.18.649,2.079,1.293,2.041,1.112-1.014,1.043-2.18" transform="translate(-132.978 -34.152)" fill="#edb984"/><path d="M424.992,113.118c-.069-1.166-.649-2.079-1.294-2.041s-1.111,1.015-1.042,2.18.649,2.079,1.293,2.041,1.112-1.015,1.042-2.18" transform="translate(-130.071 -34.184)" fill="#edb984"/><path d="M444.154,112.392c.669-1.85.352-3.766-.707-4.279s-2.46.57-3.128,2.419-.352,3.765.707,4.279,2.46-.57,3.128-2.419" transform="translate(-135.402 -33.233)" fill="#edb984"/><path d="M443.755,113.423c.425-1.176.224-2.4-.45-2.722s-1.564.362-1.99,1.539-.224,2.4.45,2.722,1.564-.363,1.99-1.539" transform="translate(-135.748 -34.044)" fill="#d27558"/><path d="M443.2,114.87c.287-.793.151-1.615-.3-1.835s-1.055.244-1.342,1.038-.151,1.614.3,1.835,1.055-.244,1.342-1.038" transform="translate(-135.845 -34.77)" fill="#edb984"/><path d="M418.126,128.577c.744-1.969,2.18-3.809,1.9-4.526s-3.062-1.158-3.365.985a22.845,22.845,0,0,0-.166,4.167Z" transform="translate(-128.168 -37.995)" fill="#edb984"/><path d="M419.224,128.59c1.2-1.933,4.621-3.979,4.464-4.443-.151-.44-4.318,1.673-4.649,2.325-.344.677-.3,2.9.186,2.118" transform="translate(-128.891 -38.188)" fill="#edb984"/><path d="M420.3,125.973c.379-3.767,2.847-6.034,2.8-6.424s-2.239,1.118-2.965,3.254.17,3.17.17,3.17" transform="translate(-129.209 -36.773)" fill="#edb984"/><path d="M418.932,125.679c.021-3.751,2.453-6.812,2.342-7.265s-2.163,1.809-2.616,4.032a4.964,4.964,0,0,0,.274,3.233" transform="translate(-128.803 -36.425)" fill="#edb984"/><path d="M417.1,126.327c.147-4.07,1.953-6.507,1.859-6.779s-1.543,1.3-2.005,3.229a5.4,5.4,0,0,0,.147,3.55" transform="translate(-128.257 -36.783)" fill="#edb984"/><path d="M418.626,129.958l-.572,3.215-3.214-.572,1.126-2.358Z" transform="translate(-127.668 -39.995)" fill="#e8e4d4"/><path d="M404.579,127.116l.941,3.127-3.127.941-.06-2.613Z" transform="translate(-123.819 -39.12)" fill="#e8e4d4"/><path d="M201.236,349.061c0-.834-19.057-1.51-42.565-1.51s-42.566.676-42.566,1.51,19.058,1.51,42.566,1.51,42.565-.676,42.565-1.51" transform="translate(-35.732 -106.96)" fill="#387db8"/><path d="M86.134,357.243c0-.834-19.057-1.51-42.565-1.51S1,356.409,1,357.243s19.057,1.51,42.566,1.51,42.565-.676,42.565-1.51" transform="translate(-0.309 -109.478)" fill="#387db8"/><path d="M154.191,10.789c-6.472-6.652-11.685,1.438-11.685,1.438-3.776-.9-16,9.707-19.056,21.932s8.45,22.472,24.27,16.359l3.236-.9c7.19-3.6,1.618-7.7,6.472-16.719s3.236-15.46-3.236-22.112" transform="translate(-37.84 -2.513)" fill="#874232"/><path d="M159.262,68.75c7.462,6.476,22.555,26.616,26.056,27.312,3.564.709,7.917-1.832,7.211-5.351-.69-3.44-21.878-26.058-26.423-28.5-4.381-2.353-10.788,3.115-6.844,6.538" transform="translate(-48.634 -18.97)" fill="#e8e4d4"/><path d="M192.65,90.138c-.159-.789-1.4-2.6-3.272-4.929a7.035,7.035,0,0,1-4.2.532c-3.074-.611-6.058-16.257-21.567-25.961-3.18.984-7.014,5.98-4.23,8.4,7.463,6.476,22.556,26.616,26.056,27.312,3.564.709,7.917-1.832,7.211-5.351" transform="translate(-48.754 -18.398)" fill="#dbd4bd"/><path d="M202.15,94.738c-2.905-.91-6.807,1.2-8.715,4.709s-1.1,7.093,1.805,8,6.807-1.2,8.715-4.709,1.1-7.094-1.805-8" transform="translate(-59.212 -29.091)" fill="#b54b66"/><path d="M196.054,87.315c7.737-17.1,25.356-34.241,25.356-34.241l.932.679S209.187,83.172,203.805,89.54a16.287,16.287,0,0,1-2.383,2.329c-3.3,2.577-7.114-.694-5.368-4.555" transform="translate(-60.201 -16.334)" fill="#edb984"/><path d="M205.4,83.245a16.257,16.257,0,0,1-2.478,2.228,3.436,3.436,0,0,1-5.267-.952q-.854,1.634-1.6,3.277c-1.747,3.861,2.072,7.133,5.368,4.555a16.252,16.252,0,0,0,2.383-2.329c5.013-5.932,16.766-31.852,18.353-35.378-4.577,8.864-12.807,24.3-16.759,28.6" transform="translate(-60.201 -16.817)" fill="#e79b69"/><path d="M164.256,135.259l21.8,3.548c10.051,24.434-2.12,80.224-15.357,143.934h-1.639S151.082,194.757,151.4,172.383c.365-25.858,12.859-37.124,12.859-37.124" transform="translate(-46.592 -41.626)" fill="#563740"/><path d="M176.678,184.624l7.208,3.454-6.165,107.961h.693l7.378-107.961,5.619-3.636c-4.529,1.562-9.549,1.193-14.733.182" transform="translate(-54.373 -56.763)" fill="#492e37"/><path d="M161.954,192.321c1.7-26.952,14.614-37.7,14.614-37.7l12.286-4.99a46.342,46.342,0,0,0-2.8-10.822l-21.8-3.549s-12.494,11.266-12.859,37.124c-.316,22.375,17.662,110.359,17.662,110.359h1.43c-3.87-28.9-9.516-74.866-8.534-90.42" transform="translate(-46.591 -41.626)" fill="#492e37"/><path d="M190.82,130.71s-20.655,5.385-33.935.062c7.583-27.757,5.458-36.09.793-55.147l9.953-.154S185.475,102.4,190.82,130.71" transform="translate(-48.282 -23.226)" fill="#e8e4d4"/><path d="M169.779,133.094c-.314-1.047-.609-2.116-.877-3.208-3.9-15.894-1.144-30.23,6.152-32.019a7.525,7.525,0,0,1,5.072.683,186.489,186.489,0,0,0-12.5-23.079l-9.954.154c4.666,19.057,6.79,27.39-.792,55.146a38.021,38.021,0,0,0,12.894,2.323" transform="translate(-48.282 -23.226)" fill="#dbd4bd"/><path d="M180.811,83.964s-3.78,2.493-13.161,4.139a5.292,5.292,0,0,1-5.822-3.175L153.894,64.1a3.194,3.194,0,0,1,2.754-4.3L160,59.375a3.9,3.9,0,0,1,2.893.784,61.321,61.321,0,0,1,17.916,23.8" transform="translate(-47.296 -18.263)" fill="#e8e4d4"/><path d="M172.717,86.916a6.229,6.229,0,0,1-6.111-2.948L154.846,62.5a4.564,4.564,0,0,1-.367-.866A3.058,3.058,0,0,0,153.9,64.8l7.722,22.353a5.291,5.291,0,0,0,5.822,3.175c4.52-.793,8.214-3.281,10.614-4.246-1.576.373-3.353.552-5.337.831" transform="translate(-47.297 -18.969)" fill="#dbd4bd"/><path d="M148.127,65.343c-1.369,11.435-9.5,35.845-8.1,38.924s6.469,6.315,8.906,4.082,8.139-28.042,7.805-34.1-7.842-15.315-8.609-8.907" transform="translate(-43.044 -19.443)" fill="#e8e4d4"/><path d="M143.5,97.494c-1.343-2.309,4.286-21.873,5.794-34.235-.586.174-1.016.821-1.171,2.11-1.369,11.435-9.5,35.845-8.1,38.924s6.469,6.315,8.906,4.082c.914-.837,2.286-4.99,3.628-10.173-1.456,1.723-7.863,1.344-9.056-.708" transform="translate(-43.044 -19.468)" fill="#dbd4bd"/><path d="M143.824,125.076c2.853.524,5.871-1.606,7.066-4.648,1.175-2.991.378-6.343-2.045-7.687-2.8-1.553-6.728.069-8.375,3.935-1.683,3.951.037,7.791,3.354,8.4" transform="translate(-43.029 -34.517)" fill="#b54b66"/><path d="M167.892,348.461h9.726s.315-2.591-1.008-3.645c-2.691-2.145-8.718,3.645-8.718,3.645" transform="translate(-51.669 -105.972)" fill="#eae3d3"/><path d="M186.231,348.14h-7.019s-.808-3.044-.089-4.283c1.463-2.52,7.109,4.283,7.109,4.283" transform="translate(-55.034 -105.651)" fill="#eae3d3"/><path d="M168.535,66.653a2.354,2.354,0,0,0,.231-1.556,28.761,28.761,0,0,0-4.447-3.593,4.62,4.62,0,0,0-.519-.235c-.442-.374-.892-.745-1.353-1.11a3.905,3.905,0,0,0-2.894-.785L156.2,59.8a3.364,3.364,0,0,0-2.6,1.764c-.487.152-.957.651-1.375,1.6.568.37,1.151.734,1.763,1.085,6.62,3.8,13.135,4.875,14.552,2.406" transform="translate(-46.846 -18.263)" fill="#dbd4bd"/><path d="M162.16,53.716l-4.129-11.882-5.869-3.256,3.352,15.607,6.974,2.53Z" transform="translate(-46.828 -11.872)" fill="#d27558"/><path d="M165.906,45.1c2.426-9.855-.147-23.084-3.746-24.448-7.073-2.68-10.989,4.12-10.614,9.653.921,13.6,14.36,14.795,14.36,14.795" transform="translate(-46.631 -6.169)" fill="#edb984"/><path d="M152.084,15.09c5.412,2.554,4.957,12.368-2.574,22.546-7.541,10.193-9.464-11.529-6.366-16.315,3.078-4.756,8.94-6.231,8.94-6.231" transform="translate(-43.617 -4.644)" fill="#874232"/><path d="M150.665,39.593c-.943-1.653-.949-3.562-.015-4.264s2.455.069,3.4,1.724.949,3.564.015,4.265-2.456-.071-3.4-1.724" transform="translate(-46.149 -10.793)" fill="#edb984"/><path d="M151.64,39.648c-.651-1.144-.656-2.464-.01-2.948s1.7.048,2.35,1.191.656,2.464.01,2.949-1.7-.048-2.349-1.192" transform="translate(-46.516 -11.239)" fill="#d27558"/><path d="M152.979,41.57c-.459-.793-.467-1.7-.017-2.027s1.184.051,1.643.842.467,1.7.017,2.028-1.184-.051-1.643-.843" transform="translate(-46.972 -12.133)" fill="#edb984"/><path d="M231.839,53.174c2.16-1.106,3.983-3.065,4.915-2.778s2.194,3.725-.291,4.294a25.6,25.6,0,0,1-4.942.58Z" transform="translate(-71.251 -15.501)" fill="#edb984"/><path d="M232.081,51.063c2-1.673,3.542-6.133,4.138-5.977.567.149-.863,5.548-1.555,6.02-.719.49-3.387.631-2.583-.044" transform="translate(-71.377 -13.874)" fill="#edb984"/><path d="M233.935,50.39c4.407-.81,6.47-4.1,6.949-4.068s-.747,2.9-3.11,4a3.954,3.954,0,0,1-3.839.071" transform="translate(-71.994 -14.256)" fill="#edb984"/><path d="M234.209,52.352c4.483-.361,7.5-3.674,8.076-3.575s-1.594,2.864-4.135,3.629a5.98,5.98,0,0,1-3.941-.053" transform="translate(-72.078 -15.011)" fill="#edb984"/><path d="M234.194,54.991c4.831-.547,7.271-3.022,7.622-2.928s-1.147,2.045-3.335,2.795a6.389,6.389,0,0,1-4.287.134" transform="translate(-72.074 -16.022)" fill="#edb984"/><path d="M163.091,35.208c-.058-1.072-.639-1.9-1.3-1.857s-1.153.959-1.094,2.037.644,1.906,1.306,1.854,1.144-.962,1.087-2.033" transform="translate(-49.454 -10.263)" fill="#473939"/><path d="M172.22,33.819c-.056-.882-.561-1.581-1.128-1.561s-.987.756-.93,1.643.566,1.584,1.135,1.558.98-.759.924-1.64" transform="translate(-52.366 -9.927)" fill="#473939"/><path d="M157.718,31.725l-.148-.209a.838.838,0,0,1,.219-1.161l3.141-2.241a.844.844,0,0,1,1.185.173l.091.129Z" transform="translate(-48.448 -8.6)" fill="#7f4138"/><path d="M167.724,36.591s-.1.215-.227.552c1.012,1.483,2.262,4.034-.378,3.928.025.066.033.141.064.2,4.534.831,1.36-3.776.541-4.685" transform="translate(-51.431 -11.261)" fill="#d27558"/><path d="M167.632,46.656c-1.033.1-1.918-.689-2.488-1.959l-.529.157c.559,1.429,1.51,2.314,2.614,2.208a1.806,1.806,0,0,0,1.279-.742,1.774,1.774,0,0,1-.876.336" transform="translate(-50.661 -13.756)" fill="#d27558"/><path d="M168.345,28.137l.018-.132a.482.482,0,0,1,.689-.433l2.717,1.2a.982.982,0,0,1,.521.982l-.017.134Z" transform="translate(-51.809 -8.471)" fill="#7f4138"/><path d="M166.953,49.547c.034-.17-.269-.374-.678-.456s-.768-.013-.8.156.269.373.678.456.768.012.8-.156" transform="translate(-50.924 -15.097)" fill="#d27558"/><path d="M142.638,108.082c6.454-15.2,22.637-29.729,22.637-29.729l1,.687s-10.788,25.311-15.69,30.844a12.947,12.947,0,0,1-1.811,1.7c-3.158,2.422-7.671.112-6.135-3.506" transform="translate(-43.802 -24.113)" fill="#edb984"/><path d="M149.641,107.33a19.246,19.246,0,0,1-2.061,2c-1.863,1.547-3.942,1.507-5.235.535a4,4,0,0,0,6.4,2.957,12.938,12.938,0,0,0,1.81-1.7c4.9-5.533,15.724-31.843,15.724-31.843l-.208-.144c-3.647,7.123-12.223,23.478-16.43,28.193" transform="translate(-43.807 -24.355)" fill="#e79b69"/><path d="M171.574,81.024c.694-2.422.566-5.318,1.4-5.729s4.077,1.565,2.79,3.768a23.342,23.342,0,0,1-2.943,3.922Z" transform="translate(-52.802 -23.155)" fill="#edb984"/><path d="M170.561,79.406c.188-2.778-1.867-7.558-1.354-7.844.487-.271,3.274,5.208,3.134,6.082-.147.908-1.856,2.883-1.78,1.762" transform="translate(-52.049 -22.02)" fill="#edb984"/><path d="M171.351,76.725c2.421-3.741,1.531-7.908,1.877-8.216s1.51,2.928.674,5.485-2.551,2.732-2.551,2.732" transform="translate(-52.734 -21.077)" fill="#edb984"/><path d="M172.75,77.817c2.785-3.421,2.527-8.276,2.982-8.591s.912,3.488-.277,5.892a5.173,5.173,0,0,1-2.705,2.7" transform="translate(-53.164 -21.299)" fill="#edb984"/><path d="M174.375,80.164c2.892-3.818,2.823-7.572,3.125-7.739s.646,2.5-.315,4.643a5.6,5.6,0,0,1-2.81,3.1" transform="translate(-53.664 -22.287)" fill="#edb984"/><path d="M107.7,78.538c1.326.957,1.914,1.393,3.267,2.421l3.912,1.351,3.121,2.286s-1.484,7.159-6.18,10.182l-8.424-3.318c-.051-7.037,4.3-12.923,4.3-12.923" transform="translate(-31.819 -24.17)" fill="#e79b69"/><path d="M116.051,87.75c-1.883-1.019-3.287-6.655-7.6-6.554a8.848,8.848,0,0,0-1.244.12,22.259,22.259,0,0,1,1.662-2.778c1.326.957,1.914,1.393,3.267,2.421l3.912,1.352,3.121,2.286s-1.484,7.159-6.18,10.182L110.4,91.367c2.433-1.261,5.626-.932,5.649-3.616" transform="translate(-32.994 -24.17)" fill="#edaa72"/><path d="M122.266,84.837a75.088,75.088,0,0,0,3.084-10.691c-.073-.455-2.188-1.395-2.437-1.191a50.83,50.83,0,0,0-3.825,8.038c-.048,1.135,2.122,3.562,3.179,3.844" transform="translate(-36.649 -22.443)" fill="#edb984"/><path d="M113.924,79.035c-.492,1.344-1.893,4.529-1.8,4.921.115.474,2.5,1.74,3.165,1.3a24.135,24.135,0,0,0,2.333-4.815,6.073,6.073,0,0,0-3.7-1.406" transform="translate(-34.506 -24.32)" fill="#edb984"/><path d="M115.6,86.067c.093,0,.184-.01.276-.018a4.465,4.465,0,0,1-.583.931c-.669.44-3.051-.827-3.165-1.3a3.31,3.31,0,0,1,.279-1.055,3.8,3.8,0,0,0,3.193,1.442" transform="translate(-34.506 -26.044)" fill="#edaa72"/><path d="M108.164,78.245c-.493,1.342-1.888,4.542-1.8,4.914.1.447,2.387,1.464,3.04.98a26.4,26.4,0,0,0,2.316-4.858,5.341,5.341,0,0,0-3.555-1.036" transform="translate(-32.732 -24.067)" fill="#edb984"/><path d="M108.387,82.882a5.838,5.838,0,0,0,2,.662A10.41,10.41,0,0,1,109.4,85.3c-.652.484-2.935-.533-3.04-.98a10.524,10.524,0,0,1,.78-2.337,5.957,5.957,0,0,0,1.245.9" transform="translate(-32.732 -25.231)" fill="#edaa72"/><path d="M101.91,95.418l10.943,3.039a8.981,8.981,0,0,0-1.5,5.692l-10.543.249Z" transform="translate(-31.024 -29.365)" fill="#edb984"/><path d="M100.808,104.623l.86-8.473c1.605,7.926,8.465,5.926,10.566,3.6a9.207,9.207,0,0,0-.883,4.626Z" transform="translate(-31.024 -29.59)" fill="#edb984"/><path d="M110.391,96.859c1.355-.812,5.372-1.927,6.036-1.488.646.426.143,1.877-.689,2.876-1.109,1.333-3.369,2.307-4.728,1.681-1.441-.665-2.47-1.958-.62-3.068" transform="translate(-33.666 -29.32)" fill="#edb984"/><path d="M104.02,83.857l3.145,3.363-.8,2.023c2.51,2.334,1.411,7.882-2.734,7.025-3.481-.72-2.732-7.229-2.725-7.96s2.622-4.471,3.114-4.451" transform="translate(-31.032 -25.807)" fill="#edb984"/><path d="M100.906,88.308c.006-.733,2.622-4.471,3.113-4.451l3.146,3.363-.8,2.023c.082.076.159.156.234.24a3.131,3.131,0,0,0-3.537-.719c-1.6.791-2.169,3.011-1.272,4.959a3.555,3.555,0,0,0,4.25,2.21,3.253,3.253,0,0,1-2.408.336c-3.482-.72-2.733-7.229-2.726-7.96" transform="translate(-31.032 -25.807)" fill="#edaa72"/><path d="M107.481,83.663c2.52,2.967,5.958,2.4,6.269,2.527a1.707,1.707,0,0,1-.019,2.261c-2.505,2.431-6.445-.21-6.445-.21s-2.691-2.561-2.631-3.915c.03-.675,1.7-1.25,2.826-.662" transform="translate(-32.208 -25.672)" fill="#edb984"/><path d="M103.073,103.526c1.8,14.305-2.779,40.44-6.07,43.367s-20.967-3.193-23.233-8.84S93.184,99.627,93.184,99.627Z" transform="translate(-22.652 -30.66)" fill="#edb984"/><path d="M76.049,131.1c4.423,2.377,8.9,3.751,10.642,2.667,2.951-1.84,16.386-28.505,16.386-28.505,1.8,14.305-2.779,40.44-6.07,43.367s-20.967-3.193-23.233-8.84c-.566-1.411.443-4.639,2.275-8.688" transform="translate(-22.656 -32.393)" fill="#e79b69"/><path d="M14.892,35.325a10.234,10.234,0,0,1-.35-9.97c2.7-5.629,9.149-3.4,9.149-3.4a11.511,11.511,0,0,1,11.025-1.992c6.333,2.23,5.277,7.507,5.277,7.507,1.29.821,3.634,5.982-.237,10.908L24.974,57.846s-12.431-8.1-13.133-14.077,3.051-8.444,3.051-8.444" transform="translate(-3.617 -5.944)" fill="#7c4735"/><path d="M78.216,308.49H76.34l-26.256-91.6,42.225-10.6S98.868,254.5,78.216,308.49" transform="translate(-15.413 -63.488)" fill="#afc76a"/><path d="M65.449,216.035c12.475,15.079,12.677,54.7,12.312,95.451H76.34L50.084,219.892Z" transform="translate(-15.413 -66.485)" fill="#8ab756"/><path d="M29.007,309.053H27.13l-2.8-96.089,51.294-4.811s-8.784,47.6-46.62,100.9" transform="translate(-7.489 -64.059)" fill="#afc76a"/><path d="M33.05,228.745l-4.675,76.632H27.129l-2.8-96.09,59.156-13.079a83.009,83.009,0,0,1,1.749,21.644c-11.682.732-31.185,5.478-52.187,10.893" transform="translate(-7.488 -60.384)" fill="#8ab756"/><path d="M82.235,175.964C59.011,184.17,18.194,191.2,18.194,191.2S.381,112.146,11.174,96.666s23.017-13.522,30.607-10.4c23.325,9.607,38.389,47.01,40.454,89.7" transform="translate(-2.37 -25.883)" fill="#f7e4bc"/><path d="M44.934,86.271c1.021.421,2.021.913,3.01,1.438C45.8,90.9,37.919,93.272,28.493,93.27a48.482,48.482,0,0,1-10.546-1.1c9.817-10.521,20.236-8.677,26.987-5.9" transform="translate(-5.523 -25.885)" fill="#ecd3a4"/><path d="M11.174,101.8c4.357-6.248,12.736,17.231,26.046,50.476,6.34,15.837,19.141,26.467,29.221,33.616-22.292,5.972-48.247,10.443-48.247,10.443S.381,117.282,11.174,101.8" transform="translate(-2.37 -31.019)" fill="#ecd3a4"/><path d="M45.593,86.269a35.612,35.612,0,0,1,6.009,3.21c1.016,4.284.4,10.413-1.153,13.528C38.465,101.87,27.6,95.78,20.089,90.663c9.371-8.84,19.092-7.035,25.5-4.394" transform="translate(-6.182 -25.883)" fill="#b1405c"/><path d="M46.76,86.271c.811.334,1.609.709,2.4,1.109,2.053,2.543,1.747,9.416.237,12.434C38.707,98.8,29.219,92.43,23.88,88.473c8.528-6.3,17.065-4.6,22.88-2.2" transform="translate(-7.349 -25.885)" fill="#edb984"/><path d="M31.021,93.257a83.709,83.709,0,0,1-7.141-4.785c8.528-6.3,17.065-4.6,22.88-2.2.811.334,1.609.709,2.4,1.109a4.219,4.219,0,0,1,.4.622c-2.35,2.964-9.717,5.145-18.543,5.256" transform="translate(-7.349 -25.885)" fill="#e79b69"/><path d="M46.921,78.974,44.78,68.644,28.126,61.252,26.564,80.194c13.464,4.38,19.3,3.3,20.357-1.22" transform="translate(-8.175 -18.85)" fill="#d27558"/><path d="M49.531,67.792c-7.093,1.6-17.278-2.973-18.661-4.628s-5.256-17.432-3.973-21.2,14.07-6.325,16.015-4.7c6.024,5.018,8.365,21.625,6.619,30.535" transform="translate(-8.199 -11.313)" fill="#edb984"/><path d="M9.309,100.611c-13.495,21.476-12.67,50.776,4.783,65.069l17.3-22.456C25,137.976,22.831,124.046,23.3,112.63c.423-10.241-11.259-16.367-13.992-12.019" transform="translate(0 -30.527)" fill="#f7e4bc"/><path d="M9.309,99.431c.325-.519,2.423-3.708,3.743-4.022,2.559-.608,2.389,4.478,1.459,6.938-6.961,18.41-4.824,39.389,7.532,51.834L14.093,164.5C-3.36,150.206-4.185,120.906,9.309,99.431" transform="translate(0 -29.347)" fill="#ecd3a4"/><path d="M86.615,355.545H95.3s-5.352-3.96-7.368-3.715-1.321,3.713-1.321,3.713" transform="translate(-26.62 -108.274)" fill="#ecd3a4"/><path d="M30.049,355.479h-7.7s3-4.092,4.9-3.839,2.8,3.84,2.8,3.84" transform="translate(-6.879 -108.214)" fill="#ecd3a4"/><path d="M32.448,157.933c-9.308-3.021-20.882.374-23.651,11.569S22,194.411,30.3,182.463s2.143-24.529,2.143-24.529" transform="translate(-2.609 -48.281)" fill="#b1405c"/><path d="M58.5,155.885c-9.385,10.946-27.424,25.525-31.769,26.242-10.3,1.7-18.925-15.035-9.066-23.147,4.7-3.866,36.987-13.658,36.987-13.658Z" transform="translate(-4.101 -44.724)" fill="#edb984"/><path d="M16.672,164.6c1.8,3.375,4.814,5.872,8.565,6.081,3.789.21,33.267-10.1,33.267-10.1-9.385,10.945-27.424,25.525-31.769,26.242-9.923,1.637-18.287-13.837-10.063-22.224" transform="translate(-4.104 -49.42)" fill="#e79b69"/><path d="M81.2,254.031l8.681-5.785-7.422,2.137-8.3-2.391Z" transform="translate(-22.823 -76.32)" fill="#8ab756"/><path d="M26.954,52.5l5.409.316S31.737,37.1,35.2,35.713s-3.081-5.912-8.365-1.951.123,18.743.123,18.743" transform="translate(-7.545 -9.901)" fill="#7c4735"/><path d="M25.057,59.537c-1.356-2.06-1.5-4.357-.328-5.13s3.227.269,4.583,2.329,1.5,4.357.328,5.13-3.227-.269-4.583-2.329" transform="translate(-7.366 -16.665)" fill="#edb984"/><path d="M25.959,59.849c-.876-1.33-.971-2.814-.212-3.314s2.084.174,2.959,1.5.971,2.815.212,3.314-2.084-.174-2.959-1.5" transform="translate(-7.766 -17.348)" fill="#d27558"/><path d="M27.882,61.673c-.525-.8-.581-1.684-.127-1.983s1.249.1,1.774.9.582,1.684.127,1.983-1.25-.1-1.774-.9" transform="translate(-8.447 -18.339)" fill="#edb984"/><path d="M49.986,54.44c-.15-.978-.755-1.706-1.353-1.627s-.961.937-.812,1.915.755,1.706,1.353,1.627.962-.937.812-1.915" transform="translate(-14.707 -16.252)" fill="#5a4949"/><path d="M48.094,46.977,44.28,48.009a.571.571,0,0,0-.412.713l.35,1.158a.613.613,0,0,0,.749.4l3.814-1.032a.571.571,0,0,0,.413-.713l-.35-1.158a.614.614,0,0,0-.749-.4" transform="translate(-13.493 -14.451)" fill="#7c4735"/><path d="M56.275,52.345c-.283-.948-.73-1.661-1-1.592s-.255.892.028,1.839.729,1.661,1,1.593.256-.892-.026-1.84" transform="translate(-16.952 -15.618)" fill="#5a4949"/><path d="M56.454,46l-1.965.25c-.165.021-.269.3-.233.613l.138,1.2c.036.318.2.559.366.538l1.964-.25c.165-.021.269-.3.233-.614l-.138-1.2c-.037-.318-.2-.559-.366-.538" transform="translate(-16.695 -14.155)" fill="#7c4735"/><path d="M54.1,55.575c2.661,2.308,4.087,3.944,3.72,5.094a2.08,2.08,0,0,1-1.7,1.177l.021.064s2.4,0,2.865-1.14S57.55,58,54.1,55.575" transform="translate(-16.65 -17.103)" fill="#d27558"/><path d="M55.966,67.33l-5.636.283s-.85,3.568,2.769,3.737c2.739.127,2.867-4.02,2.867-4.02" transform="translate(-15.463 -20.721)" fill="#3e2d34"/><path d="M55.757,67.711l-4.666.235s-.7,2.954,2.293,3.094c2.268.105,2.373-3.328,2.373-3.328" transform="translate(-15.701 -20.838)" fill="#f9eddb"/><path d="M88.088,149.2l-2.107,1.456-1.371-.606.5-1.7Z" transform="translate(-26.039 -45.656)" fill="#edb984"/><path d="M79.906,148.131l1.648,3.7s-6.881,5.161-13.047,3.338L64.4,145.052c1.415-1.258,1.561-4.241,3.265-4.076,3.678.357,5.164-1.178,7.231-1.605,1.692-.35,5.01,8.76,5.01,8.76" transform="translate(-19.82 -42.889)" fill="#edb984"/><path d="M77.721,152.248c.671-1.676,3.877-.419,3.877-.419l1.648,3.7s-6.881,5.162-13.047,3.338l-.3-3.643c2.726-.789,8.47,2.028,7.822-2.979" transform="translate(-21.512 -46.586)" fill="#edb984"/><path d="M73.411,140.828c1.725-.374,2.86-1.169,4.258-1.459,1.691-.35,5.01,8.761,5.01,8.761l1.648,3.7a22.356,22.356,0,0,1-6.351,3.124c1.833-1.936,1.824-11.314-4.564-14.129" transform="translate(-22.592 -42.888)" fill="#edb984"/><path d="M84.589,143.789c-.684-.068-6,2.378-6.306,2.8-.368.508.448,3.531,1.461,3.683.447.067,5.91-1.681,6.574-2.7.395-.6-1.08-3.719-1.729-3.784" transform="translate(-24.064 -44.251)" fill="#edb984"/><path d="M80.986,137.948c-.6-.3-5.535,2.162-5.779,2.572-.294.5.723,3.443,1.672,3.591.419.065,5.248-1.809,5.776-2.766.337-.612-.294-2.705-1.669-3.4" transform="translate(-23.129 -42.446)" fill="#edb984"/><path d="M65.093,144.607l3.851,12.422L62.016,159.4l-4.989-9.428Z" transform="translate(-17.55 -44.503)" fill="#edb984"/><path d="M70.212,157.715c-.257-.049-.515-.1-.774-.17-4.5-1.153-7.573-4.54-6.858-7.564.441-1.864,2.219-3.152,4.571-3.6l3.47,11.193Z" transform="translate(-19.227 -45.049)" fill="#edb984"/><path d="M72.218,157.108c1.23.5,3.362,2.265,3.454,3.031.089.744-1.78.868-2.842.875a3.907,3.907,0,0,1-3.493-2.6c-.373-1.483,1.2-1.989,2.881-1.31" transform="translate(-21.321 -48.259)" fill="#edb984"/><path d="M64.5,136l4.175,1.583-.539,2.18c3.148,3.195.723,11.745-4.1,10.859-1.753-.323-4.927-3.764-3.6-5.461,1.6-2.032,1.423-4.943,1.567-5.349A21.812,21.812,0,0,1,64.5,136" transform="translate(-18.504 -41.855)" fill="#edb984"/><path d="M68.674,137.584l-.531,2.149a2.447,2.447,0,0,0-1.229-.3c-2.053.048-3.946,2.55-4.23,5.588s1.151,5.463,3.2,5.414c.065,0,.13-.012.2-.019a3.555,3.555,0,0,1-2.044.209c-1.753-.323-4.927-3.764-3.6-5.461,1.6-2.032,1.423-4.943,1.566-5.349A21.844,21.844,0,0,1,64.5,136Z" transform="translate(-18.504 -41.855)" fill="#edb984"/><path d="M65.5,134.195c2.291-3.067.739-6.5.776-6.839a1.757,1.757,0,0,1,2.323-.438c3.358,2.1,1.915,7.551,1.472,8.4,0,0-5.382,2.588-4.572-1.121" transform="translate(-20.133 -38.981)" fill="#edb984"/><path d="M86.627,155.5a88.1,88.1,0,0,0,9.167-3.691c.491-.48.1-3.238-.836-3.511a67.659,67.659,0,0,0-8.76,2.5c-1.753,1.22-1.725,5.043.428,4.7" transform="translate(-26.141 -45.638)" fill="#edb984"/><path d="M461.988,64.74c.105-.228,1.348-2.771,1.348-2.771s-.161-2.146,2.73-2.3l-3.35-2.793a10.46,10.46,0,0,0-3.679,3.4,17.277,17.277,0,0,0,.847,5.123,4.05,4.05,0,0,0,2.1-.656" transform="translate(-141.259 -17.503)" fill="#e79b69"/><path d="M454.157,55.713c1-.682,5.157-.217,5.157-.217l2.219,3.028-.99,1.876s-3.808-1.744-4.488-1.551-2.271,2.428-2.816,2.968c-.826.818-3.01,1.759-3.3,1.582a4.046,4.046,0,0,1-.752-2.179c.208-.348,1.981-1.452,2.186-1.684s1.783-3.146,2.778-3.825" transform="translate(-138.233 -17.031)" fill="#edaa72"/><path d="M460.132,53.657c-4.1-3.1-7.4-5.467-7.58-5.864s.951-2.291,1.249-2.268a52.008,52.008,0,0,1,7.264,4.482c.629.865-.269,2.851-.933,3.65" transform="translate(-139.268 -14.01)" fill="#edb984"/><path d="M473.676,67.992l-9.1,2.952,1.263,5.876,9.853-2Z" transform="translate(-142.976 -20.925)" fill="#edaa72"/><path d="M462.283,60.359c3.862-1.037,1.387-4.457.518-5.11l.854-3.734s5.662,3.534,7.109,5.622A19.872,19.872,0,0,1,473,63.078a5.486,5.486,0,0,1-3.784,5.589Z" transform="translate(-142.269 -15.854)" fill="#edb984"/><path d="M464.363,61.452c.848-.957.354-2.644-.924-3.946a3.9,3.9,0,0,0-.77-.614l0,.012c.869.652,3.075,4.02-.82,5.163l.411.077a2.451,2.451,0,0,0,2.106-.692" transform="translate(-142.134 -17.509)" fill="#edaa72"/><path d="M456.788,67.959l-1.3-3.15a13.881,13.881,0,0,1,6.273-.321c4.365.964,9.17,4.516,6.007,7.665-2.055,2.046-6.955-1.432-7.285-2.064a4.294,4.294,0,0,0-3.7-2.131" transform="translate(-140.178 -19.777)" fill="#edb984"/><path d="M468.665,69.208a2.967,2.967,0,0,1-.881,2.495c-1.513,1.322-4.43.462-6.515-1.923-1.59-1.819-4.15-3.452-1.784-5.517a15.188,15.188,0,0,0-4,.546l1.3,3.15a4.3,4.3,0,0,1,3.7,2.13c.33.633,5.231,4.111,7.285,2.065a2.812,2.812,0,0,0,.9-2.946" transform="translate(-140.178 -19.777)" fill="#edaa72"/><path d="M455.729,65.335a1.529,1.529,0,0,1-.569,2.82,8.923,8.923,0,0,0-3.712,1.726c-.261.1-1.306-.723-1.292-1.4.057-2.92,3.966-3.474,3.966-3.474a3.04,3.04,0,0,1,1.607.324" transform="translate(-138.537 -20.005)" fill="#edb984"/><path d="M554.975,28.693c-2.96-9.93-14.976-14.863-20.585-8.665s-.411,14.168-.411,14.168Z" transform="translate(-163.659 -5.321)" fill="#904930"/><path d="M541.848,72.552C518.685,64.99,488.233,91.8,488.233,91.8l-4.091,30.921Z" transform="translate(-148.996 -21.914)" fill="#f0dcb6"/><path d="M544.228,83.569c-23.162-7.562-53.947,19.451-53.947,19.451l-.475,26.006Z" transform="translate(-150.739 -25.308)" fill="#e2ca9f"/><path d="M483.357,101.236c5.777,1.661,9.226,10.969,7.7,20.791s-7.442,16.438-13.22,14.778-9.226-10.969-7.7-20.791,7.442-16.439,13.221-14.778" transform="translate(-144.575 -31.077)" fill="#d75c74"/><path d="M470.377,67.2S490.341,92.733,483.55,116l-4.472,7.323c-10.357-2.162-15.407-11.212-15.891-15.853s1.967-33.505,1.967-33.505Z" transform="translate(-142.528 -20.682)" fill="#edb984"/><path d="M469.064,87.186c3.068,12.64,8.773,21.57,12.741,19.946,1.237-.506,2.159-1.979,2.75-4.149a38.779,38.779,0,0,1-1,16.02l-4.473,7.323c-10.357-2.162-15.407-11.212-15.891-15.853s1.967-33.505,1.967-33.505a60.123,60.123,0,0,1,3.908,10.219" transform="translate(-142.528 -23.687)" fill="#e79b69"/><path d="M508.225,181.426l52.358,10.045s-3.844,63.291-20.988,117.59h-1.407s-38.8-57.429-39.925-64.631c-2.079-13.311,9.962-63,9.962-63" transform="translate(-153.268 -55.834)" fill="#7b9bc2"/><path d="M533.475,244.907s6.716,41.322,14.559,82.305l-.244.168-18.343-58.693Z" transform="translate(-162.939 -75.371)" fill="#658bab"/><path d="M521.768,203.636c-8.355-2.562-15.541,1.585-19.126,10.065,2.633-15.768,5.539-33.845,5.539-33.845l55.34,11.074s-5.359,63.348-22.5,117.647h-.791c2.708-11.34,18.657-93.556-18.457-104.941" transform="translate(-154.689 -55.351)" fill="#658bab"/><path d="M564.106,170.227c-32.785.7-56.379-18.63-56.379-18.63s-8.1-62.19,11.524-75,27.862-8.385,40.778,3.493,4.077,90.136,4.077,90.136" transform="translate(-155.745 -21.19)" fill="#f0dcb6"/><path d="M571.092,124.784c-3.364-35.755,4.8-42.946,8.036-39.967,12.915,11.878,4.077,90.136,4.077,90.136a84.624,84.624,0,0,1-15.074-1.038c2.982-18.1,4.674-30.939,2.962-49.132" transform="translate(-174.844 -25.916)" fill="#e2ca9f"/><path d="M569.323,74.238C600.213,85.2,622.4,134.449,615.677,143.3l-30.015-8.433c-5.172-6.527-12.878-15.054-15.423-22.558-6.538-19.274-.916-38.074-.916-38.074" transform="translate(-174.519 -22.847)" fill="#f0dcb6"/><path d="M569.528,124.383c12.134,17.117,28.267,26.2,36.617,20.966,3.713-2.327,5.337-7.1,5.028-13.117,5.771,12.019,7.991,22.717,5.191,26.406L586.348,150.2c-5.172-6.527-12.957-15.139-15.933-22.963-.4-1.06-.768-2.12-1.109-3.179.075.107.146.214.221.321" transform="translate(-175.206 -38.18)" fill="#e2ca9f"/><path d="M552.991,365.289h-8.265s5.992-4.75,7.035-4.275,1.231,4.275,1.231,4.275" transform="translate(-167.641 -111.093)" fill="#f0dcb6"/><path d="M555,365.461h9.673s-6.063-4.322-7.378-3.89-2.295,3.89-2.295,3.89" transform="translate(-170.803 -111.265)" fill="#f0dcb6"/><path d="M591.812,162.538c.122-6.078,8.128-11,17.88-11s17.56,4.927,17.437,11-8.128,11-17.881,11-17.559-4.927-17.436-11" transform="translate(-182.131 -46.635)" fill="#d75c74"/><path d="M586.052,197.4c12.749-8.85,32.209-23.073,34.541-30.789,3.315-10.966-20.952-13.661-28.664-6.451-4.66,4.357-11.816,26.992-11.816,26.992Z" transform="translate(-178.531 -48.053)" fill="#edb984"/><path d="M596.722,189.34C607.768,180.4,611,171.71,607.1,167.076c-2.695-3.2-9.3-2.524-16.766,1.137,1.629-3.622,3.3-6.706,4.741-8.051,7.712-7.21,31.978-4.515,28.664,6.452-2.332,7.716-20.2,20.96-32.953,29.81,0,0,3.994-5.511,5.937-7.084" transform="translate(-181.677 -48.053)" fill="#e79b69"/><path d="M544.815,84.094c-8.486,0-15.526-5.123-19.1-8.13a28,28,0,0,1,5.41-2.837c11.229-5.993,18.43-5.251,25.9-.379a46.576,46.576,0,0,1,6.979,3.27c-3.234,2.979-10.76,8.076-19.2,8.076" transform="translate(-161.791 -21.192)" fill="#e2ca9f"/><path d="M533.872,73c9.3-4.909,15.826-5.165,22.063-2.271-.829,4.814-5.341,8.429-11.012,8.429A12.789,12.789,0,0,1,533.872,73" transform="translate(-164.301 -21.194)" fill="#624952"/><path d="M553.538,64.343l-1.916-12.228L536.98,56.191l.161,10.364c-.038,2.392,12.073,10.994,16.4-2.212" transform="translate(-165.257 -16.039)" fill="#d27558"/><path d="M550.241,45.2c1.442-8.854-.96-14.916-1.967-16.634-1.569-2.678-10.72-4.386-12.9-1.708s-4.093,15.533-2.55,27.154c.433,3.261,11.619,3.267,13.482,1.813,2.687-2.1,3.426-7.481,3.938-10.625" transform="translate(-163.805 -7.852)" fill="#edb984"/><path d="M528.694,204.251l5,2.2-.038,3.242-5-2.2Z" transform="translate(-162.695 -62.859)" fill="#e2ca9f"/><path d="M557.437,50.859l-1.252-5.228-3.212-3.963s-4-20.808,5.728-15.749-1.263,24.94-1.263,24.94" transform="translate(-169.928 -7.733)" fill="#904930"/><path d="M544.58,43.073c-.019-.831.379-1.5.889-1.487s.94.689.959,1.52-.378,1.5-.889,1.487-.94-.689-.959-1.52" transform="translate(-167.596 -12.798)" fill="#5a4949"/><path d="M544.878,37.482l3.335.5a.516.516,0,0,1,.449.556l-.122,1a.484.484,0,0,1-.566.4l-3.335-.5a.516.516,0,0,1-.449-.556l.122-1a.484.484,0,0,1,.566-.4" transform="translate(-167.475 -11.533)" fill="#904930"/><path d="M533.14,41.8c-.019-.831.379-1.5.889-1.487s.94.689.96,1.52-.379,1.5-.89,1.487-.94-.689-.959-1.52" transform="translate(-164.075 -12.407)" fill="#5a4949"/><path d="M530.974,36.429l3.332.013a.525.525,0,0,1,.527.489l.041,1.014a.473.473,0,0,1-.489.485l-3.332-.014a.524.524,0,0,1-.527-.489l-.04-1.014a.472.472,0,0,1,.488-.485" transform="translate(-163.258 -11.211)" fill="#904930"/><path d="M539.049,42.68c-1.054,2.7-1.457,4.453-.721,5.2a1.819,1.819,0,0,0,1.742.294l.01.056s-1.785.852-2.595.146-.032-2.63,1.564-5.7" transform="translate(-165.314 -13.135)" fill="#d27558"/><path d="M537.1,55.388l7.651-.885s.48,2.656-2.889,3.795-4.761-2.91-4.761-2.91" transform="translate(-165.293 -16.773)" fill="#3e2d34"/><path d="M537.873,55.668l6.579-.761s.413,2.284-2.484,3.263-4.095-2.5-4.095-2.5" transform="translate(-165.532 -16.898)" fill="#f9eddb"/><path d="M555.823,46.681c1.067-2.119,2.847-3.344,3.976-2.734s1.179,2.821.111,4.94-2.846,3.344-3.976,2.734-1.178-2.821-.111-4.94" transform="translate(-170.82 -13.477)" fill="#edb984"/><path d="M557.246,47.932c.674-1.334,1.793-2.1,2.5-1.72s.734,1.778.061,3.112-1.793,2.1-2.5,1.72-.734-1.778-.061-3.112" transform="translate(-171.344 -14.191)" fill="#d27558"/><path d="M556.291,49.4c.467-.922,1.24-1.453,1.725-1.187s.5,1.231.033,2.152-1.239,1.454-1.725,1.187-.5-1.23-.033-2.152" transform="translate(-171.095 -14.818)" fill="#edb984"/><path d="M567.267,206.355c.867-.764,3.654-3.823,7.516-3.425l1.122-4.2c-3.407.24-8.285,2.038-10.5,5.075-1.532,2.1.975,3.323,1.859,2.545" transform="translate(-173.856 -61.161)" fill="#edb984"/><path d="M586.3,205.624l-9.291-7.252a12.169,12.169,0,0,0-7.174,4.838,21.548,21.548,0,0,1-.988,6.742c-1.076,2.908,14.584,7.141,17.452-4.328" transform="translate(-175.05 -61.05)" fill="#edb984"/><path d="M562.009,217.326a10.37,10.37,0,0,0,5.4-6.073l2.363,2.64c-.323,1.678-2.961,4.215-4.753,5.283s-3.859-1.331-3.006-1.849" transform="translate(-172.899 -65.014)" fill="#edb984"/><path d="M569.774,218.721a10.385,10.385,0,0,0,5.258-6.2l2.415,2.59c-.287,1.686-2.685,3.789-4.451,4.9s-4.063-.75-3.222-1.288" transform="translate(-175.295 -65.404)" fill="#edb984"/><path d="M577.184,219.46c.941-.645,4.6-2.662,6.126-7.015l2.343,2.491c-.451,1.8-3.183,4.237-5.157,5.57s-4.253-.4-3.312-1.045" transform="translate(-177.563 -65.381)" fill="#edb984"/></g></g></g></svg>